<mxfile host="Electron" modified="2023-12-13T09:44:35.148Z" agent="Mozilla/5.0 (X11; Linux x86_64) AppleWebKit/537.36 (KHTML, like Gecko) draw.io/22.1.2 Chrome/114.0.5735.289 Electron/25.9.4 Safari/537.36" etag="HaG-2SAb8ihgTTdOj5Ue" version="22.1.2" type="device" pages="5">
  <diagram name="Current 2023-12" id="Eq1jV_r7S4z5SaxY9uDj">
    <mxGraphModel dx="1569" dy="1027" grid="1" gridSize="10" guides="1" tooltips="1" connect="1" arrows="1" fold="1" page="1" pageScale="1" pageWidth="827" pageHeight="1169" math="0" shadow="0">
      <root>
        <mxCell id="36aGQsGwIYLAXx43SORB-0" />
        <mxCell id="36aGQsGwIYLAXx43SORB-1" parent="36aGQsGwIYLAXx43SORB-0" />
        <mxCell id="36aGQsGwIYLAXx43SORB-2" value="Public Network" style="shape=mxgraph.ibm.box;prType=public;fontStyle=0;verticalAlign=top;align=left;spacingLeft=32;spacingTop=4;fillColor=none;rounded=0;whiteSpace=wrap;html=1;strokeColor=#4376BB;strokeWidth=3;dashed=0;container=0;spacing=-4;collapsible=0;" parent="36aGQsGwIYLAXx43SORB-1" vertex="1">
          <mxGeometry x="12" y="200" width="128" height="620" as="geometry" />
        </mxCell>
        <mxCell id="36aGQsGwIYLAXx43SORB-3" value="IBM Cloud" style="shape=mxgraph.ibm.box;prType=cloud;fontStyle=0;verticalAlign=top;align=left;spacingLeft=32;spacingTop=4;fillColor=none;rounded=0;whiteSpace=wrap;html=1;strokeColor=#4376BB;strokeWidth=3;dashed=0;container=0;spacing=-4;collapsible=0;" parent="36aGQsGwIYLAXx43SORB-1" vertex="1">
          <mxGeometry x="140" y="200" width="738" height="620" as="geometry" />
        </mxCell>
        <mxCell id="36aGQsGwIYLAXx43SORB-4" value="&amp;nbsp; &amp;nbsp; &amp;nbsp; &amp;nbsp; &amp;nbsp; &amp;nbsp;Kubernetes Cluster" style="rounded=1;whiteSpace=wrap;html=1;align=left;verticalAlign=top;fillColor=#f5f5f5;strokeColor=#666666;fontColor=#333333;" parent="36aGQsGwIYLAXx43SORB-1" vertex="1">
          <mxGeometry x="318" y="327" width="241" height="201" as="geometry" />
        </mxCell>
        <mxCell id="36aGQsGwIYLAXx43SORB-5" value="Region" style="shape=mxgraph.ibm.box;prType=region;fontStyle=0;verticalAlign=top;align=left;spacingLeft=32;spacingTop=4;fillColor=none;rounded=0;whiteSpace=wrap;html=1;strokeColor=#919191;strokeWidth=2;dashed=0;container=0;spacing=-4;collapsible=0;" parent="36aGQsGwIYLAXx43SORB-1" vertex="1">
          <mxGeometry x="186" y="237" width="670" height="473" as="geometry" />
        </mxCell>
        <mxCell id="36aGQsGwIYLAXx43SORB-6" style="edgeStyle=orthogonalEdgeStyle;rounded=0;orthogonalLoop=1;jettySize=auto;html=1;entryX=0;entryY=0.5;entryDx=0;entryDy=0;" parent="36aGQsGwIYLAXx43SORB-1" source="36aGQsGwIYLAXx43SORB-13" target="36aGQsGwIYLAXx43SORB-10" edge="1">
          <mxGeometry relative="1" as="geometry" />
        </mxCell>
        <mxCell id="36aGQsGwIYLAXx43SORB-7" value="&lt;font color=&quot;#000000&quot;&gt;User&lt;/font&gt;" style="aspect=fixed;perimeter=ellipsePerimeter;html=1;align=center;shadow=0;dashed=0;fontColor=#4277BB;labelBackgroundColor=#ffffff;fontSize=12;spacingTop=3;image;image=img/lib/ibm/users/user.svg;" parent="36aGQsGwIYLAXx43SORB-1" vertex="1">
          <mxGeometry x="49" y="410.5" width="60" height="60" as="geometry" />
        </mxCell>
        <mxCell id="36aGQsGwIYLAXx43SORB-8" style="edgeStyle=orthogonalEdgeStyle;rounded=0;orthogonalLoop=1;jettySize=auto;html=1;" parent="36aGQsGwIYLAXx43SORB-1" target="36aGQsGwIYLAXx43SORB-10" edge="1">
          <mxGeometry relative="1" as="geometry">
            <mxPoint x="501" y="300" as="sourcePoint" />
          </mxGeometry>
        </mxCell>
        <mxCell id="36aGQsGwIYLAXx43SORB-10" value="&lt;span style=&quot;background-color: rgb(245 , 245 , 245)&quot;&gt;&lt;font color=&quot;#000000&quot;&gt;Application&lt;/font&gt;&lt;/span&gt;" style="aspect=fixed;perimeter=ellipsePerimeter;html=1;align=center;shadow=0;dashed=0;fontColor=#4277BB;labelBackgroundColor=#ffffff;fontSize=12;spacingTop=3;image;image=img/lib/ibm/applications/enterprise_applications.svg;" parent="36aGQsGwIYLAXx43SORB-1" vertex="1">
          <mxGeometry x="471" y="410.5" width="60" height="60" as="geometry" />
        </mxCell>
        <mxCell id="36aGQsGwIYLAXx43SORB-11" value="&lt;h5&gt;4&lt;/h5&gt;" style="ellipse;whiteSpace=wrap;html=1;aspect=fixed;" parent="36aGQsGwIYLAXx43SORB-1" vertex="1">
          <mxGeometry x="511" y="351.5" width="20" height="20" as="geometry" />
        </mxCell>
        <mxCell id="36aGQsGwIYLAXx43SORB-12" value="&lt;h5&gt;7&lt;/h5&gt;" style="ellipse;whiteSpace=wrap;html=1;aspect=fixed;" parent="36aGQsGwIYLAXx43SORB-1" vertex="1">
          <mxGeometry x="728" y="277" width="20" height="20" as="geometry" />
        </mxCell>
        <mxCell id="36aGQsGwIYLAXx43SORB-13" value="Ingress" style="rounded=1;whiteSpace=wrap;html=1;labelPosition=center;verticalLabelPosition=top;align=left;verticalAlign=bottom;spacing=-19;spacingLeft=25;fillColor=#dae8fc;strokeColor=#6c8ebf;" parent="36aGQsGwIYLAXx43SORB-1" vertex="1">
          <mxGeometry x="280" y="390" width="138" height="101" as="geometry" />
        </mxCell>
        <mxCell id="36aGQsGwIYLAXx43SORB-14" style="edgeStyle=orthogonalEdgeStyle;rounded=0;orthogonalLoop=1;jettySize=auto;html=1;strokeWidth=1;" parent="36aGQsGwIYLAXx43SORB-1" source="36aGQsGwIYLAXx43SORB-7" target="36aGQsGwIYLAXx43SORB-15" edge="1">
          <mxGeometry relative="1" as="geometry" />
        </mxCell>
        <mxCell id="36aGQsGwIYLAXx43SORB-15" value="TLS&lt;br&gt;Cert" style="rounded=1;whiteSpace=wrap;html=1;" parent="36aGQsGwIYLAXx43SORB-1" vertex="1">
          <mxGeometry x="326.33" y="415.5" width="82" height="50" as="geometry" />
        </mxCell>
        <mxCell id="36aGQsGwIYLAXx43SORB-17" value="&lt;h5&gt;1&lt;/h5&gt;" style="ellipse;whiteSpace=wrap;html=1;aspect=fixed;" parent="36aGQsGwIYLAXx43SORB-1" vertex="1">
          <mxGeometry x="118" y="410.5" width="20" height="20" as="geometry" />
        </mxCell>
        <mxCell id="36aGQsGwIYLAXx43SORB-18" style="edgeStyle=orthogonalEdgeStyle;rounded=0;orthogonalLoop=1;jettySize=auto;html=1;entryX=0.5;entryY=1;entryDx=0;entryDy=0;exitX=0.621;exitY=0.006;exitDx=0;exitDy=0;exitPerimeter=0;" parent="36aGQsGwIYLAXx43SORB-1" source="36aGQsGwIYLAXx43SORB-31" target="36aGQsGwIYLAXx43SORB-15" edge="1">
          <mxGeometry relative="1" as="geometry">
            <mxPoint x="250" y="585" as="sourcePoint" />
          </mxGeometry>
        </mxCell>
        <UserObject label="&lt;font color=&quot;#000000&quot;&gt;Container&lt;br&gt;Registry&lt;/font&gt;" id="36aGQsGwIYLAXx43SORB-20">
          <mxCell style="aspect=fixed;perimeter=ellipsePerimeter;html=1;align=left;shadow=0;dashed=0;fontColor=#4277BB;fontSize=12;spacingTop=3;image;image=data:image/svg+xml,PHN2ZyB4bWxucz0iaHR0cDovL3d3dy53My5vcmcvMjAwMC9zdmciIHhtbG5zOnhsaW5rPSJodHRwOi8vd3d3LnczLm9yZy8xOTk5L3hsaW5rIiB2aWV3Qm94PSIwIDAgMzIgMzIiPgogIDxkZWZzPgogICAgPGxpbmVhckdyYWRpZW50IGlkPSJiNGNjMzZmMy04N2FiLTQ4YjMtODg3ZS05YzFhYzg3NDI5ZTciIHgxPSI3NjYuMzY1IiB5MT0iLTc3MC41NCIgeDI9Ijc3NS41NTciIHkyPSItNzc5LjczMyIgZ3JhZGllbnRUcmFuc2Zvcm09InRyYW5zbGF0ZSgtMTA3Ny43NTYgMzEuNDUzKSByb3RhdGUoNDUpIiBncmFkaWVudFVuaXRzPSJ1c2VyU3BhY2VPblVzZSI+CiAgICAgIDxzdG9wIG9mZnNldD0iMC4wMjQiIHN0b3Atb3BhY2l0eT0iMCIvPgogICAgICA8c3RvcCBvZmZzZXQ9IjAuNjQiLz4KICAgIDwvbGluZWFyR3JhZGllbnQ+CiAgICA8bWFzayBpZD0iYWVmNGQzYjMtNjM5Ni00ODY2LWI2MjAtOGRmOGNiZTg4ZDUwIiB4PSIwIiB5PSIwIiB3aWR0aD0iMzIiIGhlaWdodD0iMzIiIG1hc2tVbml0cz0idXNlclNwYWNlT25Vc2UiPgogICAgICA8cGF0aCBkPSJNMjEsMzBINGEyLDIsMCwwLDEtMi0yVjRBMiwyLDAsMCwxLDQsMkgyOGEyLDIsMCwwLDEsMiwyVjE2SDI4VjRINFYyOEgyMVoiIGZpbGw9IiNmZmYiLz4KICAgICAgPHJlY3QgeD0iOSIgeT0iMjYiIHdpZHRoPSIxMyIgaGVpZ2h0PSI1IiBmaWxsPSJ1cmwoI2I0Y2MzNmYzLTg3YWItNDhiMy04ODdlLTljMWFjODc0MjllNykiLz4KICAgIDwvbWFzaz4KICAgIDxsaW5lYXJHcmFkaWVudCBpZD0iYTk5N2EwODAtNWY1OC00ZDA0LWFhYjktYmYxNTAzNTZlMzcxIiB5MT0iMzIiIHgyPSIzMiIgZ3JhZGllbnRVbml0cz0idXNlclNwYWNlT25Vc2UiPgogICAgICA8c3RvcCBvZmZzZXQ9IjAuMSIgc3RvcC1jb2xvcj0iIzA4YmRiYSIvPgogICAgICA8c3RvcCBvZmZzZXQ9IjAuOSIgc3RvcC1jb2xvcj0iIzBmNjJmZSIvPgogICAgPC9saW5lYXJHcmFkaWVudD4KICA8L2RlZnM+CiAgPGcgaWQ9ImFlZDBhM2Q1LWY1MzItNGJmYy1iZjU5LWE0ZDIwMGFkZGNjZSIgZGF0YS1uYW1lPSJMYXllciAyIj4KICAgIDxnIGlkPSJhMDk1MDkzMi1lYzAwLTQ2MTEtOWIyMC0xYzFiYTIxYjJjYTUiIGRhdGEtbmFtZT0iQnVpbGQgaWNvbiBoZXJlIj4KICAgICAgPGc+CiAgICAgICAgPGcgbWFzaz0idXJsKCNhZWY0ZDNiMy02Mzk2LTQ4NjYtYjYyMC04ZGY4Y2JlODhkNTApIj4KICAgICAgICAgIDxyZWN0IHdpZHRoPSIzMiIgaGVpZ2h0PSIzMiIgZmlsbD0idXJsKCNhOTk3YTA4MC01ZjU4LTRkMDQtYWFiOS1iZjE1MDM1NmUzNzEpIi8+CiAgICAgICAgPC9nPgogICAgICAgIDxwYXRoIGQ9Ik0yOCwzMEgyM2EyLDIsMCwwLDEtMi0yVjIzYTIsMiwwLDAsMSwyLTJoNWEyLDIsMCwwLDEsMiwydjVBMiwyLDAsMCwxLDI4LDMwWm0tNS03aDBsMCw1aDVWMjNaIiBmaWxsPSIjMDAxZDZjIi8+CiAgICAgICAgPHBhdGggZD0iTTE2LDIzSDExYTIsMiwwLDAsMS0yLTJWMTFhMiwyLDAsMCwxLDItMkgyMWEyLDIsMCwwLDEsMiwydjVIMjFWMTFIMTFWMjFoNVoiIGZpbGw9IiMwMDFkNmMiLz4KICAgICAgPC9nPgogICAgPC9nPgogIDwvZz4KPC9zdmc+Cg==;strokeColor=#4277BB;strokeWidth=2;labelBackgroundColor=none;rounded=0;fillColor=none;labelPosition=right;verticalLabelPosition=middle;verticalAlign=middle;" parent="36aGQsGwIYLAXx43SORB-1" vertex="1">
            <mxGeometry x="470" y="240" width="60" height="60" as="geometry" />
          </mxCell>
        </UserObject>
        <mxCell id="36aGQsGwIYLAXx43SORB-21" value="&lt;h5&gt;5&lt;/h5&gt;" style="ellipse;whiteSpace=wrap;html=1;aspect=fixed;" parent="36aGQsGwIYLAXx43SORB-1" vertex="1">
          <mxGeometry x="595.742492698065" y="416.99862804878046" width="18.77588587206627" height="18.77588587206627" as="geometry" />
        </mxCell>
        <UserObject link="https://cloud.ibm.com/catalog/services/logdnaat" label="&lt;font color=&quot;#000000&quot;&gt;Cloud Activity&lt;br&gt;Tracker&lt;/font&gt;" id="36aGQsGwIYLAXx43SORB-22">
          <mxCell style="aspect=fixed;perimeter=ellipsePerimeter;html=1;align=center;shadow=0;dashed=0;fontColor=#4277BB;fontSize=12;spacingTop=3;image;image=data:image/svg+xml,PHN2ZyBpZD0iQnVpbGRfaWNvbl9oZXJlIiBkYXRhLW5hbWU9IkJ1aWxkIGljb24gaGVyZSIgeG1sbnM9Imh0dHA6Ly93d3cudzMub3JnLzIwMDAvc3ZnIiB4bWxuczp4bGluaz0iaHR0cDovL3d3dy53My5vcmcvMTk5OS94bGluayIgdmlld0JveD0iMCAwIDMyIDMyIj4KICA8ZGVmcz4KICAgIDxsaW5lYXJHcmFkaWVudCBpZD0ibGluZWFyLWdyYWRpZW50IiB4MT0iOCIgeTE9IjUiIHgyPSIyMSIgeTI9IjUiIGdyYWRpZW50VW5pdHM9InVzZXJTcGFjZU9uVXNlIj4KICAgICAgPHN0b3Agb2Zmc2V0PSIwIiBzdG9wLW9wYWNpdHk9IjAiLz4KICAgICAgPHN0b3Agb2Zmc2V0PSIwLjciLz4KICAgIDwvbGluZWFyR3JhZGllbnQ+CiAgICA8bWFzayBpZD0ibWFzayIgeD0iMCIgeT0iMCIgd2lkdGg9IjMyIiBoZWlnaHQ9IjMyIiBtYXNrVW5pdHM9InVzZXJTcGFjZU9uVXNlIj4KICAgICAgPGc+CiAgICAgICAgPHBhdGggZD0iTTI4LDE2djZINFY2SDIwVjRINEEyLDIsMCwwLDAsMiw2VjIyYTIsMiwwLDAsMCwyLDJoOHY0SDh2MkgyNFYyOEgyMFYyNGg4YTIsMiwwLDAsMCwyLTJWMTZaTTE4LDI4SDE0VjI0aDRaIiBzdHlsZT0iZmlsbDogI2ZmZiIvPgogICAgICAgIDxyZWN0IHg9IjgiIHk9IjMiIHdpZHRoPSIxMyIgaGVpZ2h0PSI0IiBzdHlsZT0iZmlsbDogdXJsKCNsaW5lYXItZ3JhZGllbnQpIi8+CiAgICAgIDwvZz4KICAgIDwvbWFzaz4KICAgIDxsaW5lYXJHcmFkaWVudCBpZD0ibGluZWFyLWdyYWRpZW50LTIiIHgxPSItMzUwMy44MjQiIHkxPSIzMiIgeDI9Ii0zNTMzLjk0MSIgZ3JhZGllbnRUcmFuc2Zvcm09Im1hdHJpeCgxLjA2MywgMCwgMCwgLTEsIDM3NTQuODEzLCAzMikiIGdyYWRpZW50VW5pdHM9InVzZXJTcGFjZU9uVXNlIj4KICAgICAgPHN0b3Agb2Zmc2V0PSIwLjEiIHN0b3AtY29sb3I9IiM0MmJlNjUiLz4KICAgICAgPHN0b3Agb2Zmc2V0PSIwLjkiIHN0b3AtY29sb3I9IiMwMDdkNzkiLz4KICAgIDwvbGluZWFyR3JhZGllbnQ+CiAgPC9kZWZzPgogIDxnPgogICAgPGcgc3R5bGU9Im1hc2s6IHVybCgjbWFzaykiPgogICAgICA8cmVjdCB3aWR0aD0iMzIiIGhlaWdodD0iMzIiIHRyYW5zZm9ybT0idHJhbnNsYXRlKDMyIDMyKSByb3RhdGUoMTgwKSIgc3R5bGU9ImZpbGw6IHVybCgjbGluZWFyLWdyYWRpZW50LTIpIi8+CiAgICA8L2c+CiAgICA8cG9seWdvbiBwb2ludHM9IjIxIDE1IDE2IDEwLjA0IDE3LjU5IDguNDcgMjEgMTEuODUgMjguNDEgNC41IDMwIDYuMDggMjEgMTUiIHN0eWxlPSJmaWxsOiAjMDAxZDZjIi8+CiAgPC9nPgo8L3N2Zz4K;strokeColor=#4277BB;strokeWidth=2;labelBackgroundColor=none;rounded=0;fillColor=#E0E0E0;" parent="36aGQsGwIYLAXx43SORB-1" vertex="1">
            <mxGeometry x="757.1818546914932" y="259.8048780487805" width="56.3276576161988" height="56.3276576161988" as="geometry" />
          </mxCell>
        </UserObject>
        <mxCell id="36aGQsGwIYLAXx43SORB-25" style="edgeStyle=orthogonalEdgeStyle;rounded=0;orthogonalLoop=1;jettySize=auto;html=1;entryX=0.5;entryY=1;entryDx=0;entryDy=0;" parent="36aGQsGwIYLAXx43SORB-1" edge="1">
          <mxGeometry relative="1" as="geometry">
            <Array as="points">
              <mxPoint x="360" y="670" />
              <mxPoint x="360" y="697" />
              <mxPoint x="684" y="697" />
            </Array>
            <mxPoint x="360" y="670" as="sourcePoint" />
            <mxPoint x="684.4460440326338" y="639.7443948458354" as="targetPoint" />
          </mxGeometry>
        </mxCell>
        <mxCell id="36aGQsGwIYLAXx43SORB-26" value="&lt;h5&gt;6&lt;/h5&gt;" style="ellipse;whiteSpace=wrap;html=1;aspect=fixed;fontStyle=1" parent="36aGQsGwIYLAXx43SORB-1" vertex="1">
          <mxGeometry x="648.0031325301204" y="572.7384215370456" width="18.77588587206627" height="18.77588587206627" as="geometry" />
        </mxCell>
        <mxCell id="36aGQsGwIYLAXx43SORB-27" value="&lt;h5&gt;3&lt;/h5&gt;" style="ellipse;whiteSpace=wrap;html=1;aspect=fixed;" parent="36aGQsGwIYLAXx43SORB-1" vertex="1">
          <mxGeometry x="469.99831325301204" y="544.9289875747813" width="18.77588587206627" height="18.77588587206627" as="geometry" />
        </mxCell>
        <mxCell id="36aGQsGwIYLAXx43SORB-28" value="&lt;h5&gt;2&lt;/h5&gt;" style="ellipse;whiteSpace=wrap;html=1;aspect=fixed;" parent="36aGQsGwIYLAXx43SORB-1" vertex="1">
          <mxGeometry x="337.9453012048193" y="544.9289875747813" width="18.77588587206627" height="18.77588587206627" as="geometry" />
        </mxCell>
        <UserObject link="https://cloud.ibm.com/catalog/services/cloud-object-storage" label="&lt;font color=&quot;#000000&quot;&gt;Cloud Object&lt;br&gt;Storage&lt;/font&gt;" id="36aGQsGwIYLAXx43SORB-29">
          <mxCell style="aspect=fixed;perimeter=ellipsePerimeter;html=1;align=center;shadow=0;dashed=0;fontColor=#4277BB;fontSize=12;spacingTop=3;image;image=data:image/svg+xml,PHN2ZyB4bWxucz0iaHR0cDovL3d3dy53My5vcmcvMjAwMC9zdmciIHhtbG5zOnhsaW5rPSJodHRwOi8vd3d3LnczLm9yZy8xOTk5L3hsaW5rIiB3aWR0aD0iMzIiIGhlaWdodD0iMzIiIHZpZXdCb3g9IjAgMCAzMiAzMiI+PGRlZnM+PHN0eWxlPi5he2ZpbGw6I2ZmZjt9LmJ7ZmlsbDp1cmwoI2EpO30uY3ttYXNrOnVybCgjYik7fS5ke2ZpbGw6dXJsKCNjKTt9LmV7ZmlsbDojMDAxZDZjO308L3N0eWxlPjxsaW5lYXJHcmFkaWVudCBpZD0iYSIgeDE9Ii0zMzEuNSIgeTE9Ii0xMjcuNSIgeDI9Ii0zMjEuNSIgeTI9Ii0xMjcuNSIgZ3JhZGllbnRUcmFuc2Zvcm09InRyYW5zbGF0ZSgzMzUuNSAxNDguNSkiIGdyYWRpZW50VW5pdHM9InVzZXJTcGFjZU9uVXNlIj48c3RvcCBvZmZzZXQ9IjAuMTMiLz48c3RvcCBvZmZzZXQ9IjAuODkiIHN0b3Atb3BhY2l0eT0iMCIvPjwvbGluZWFyR3JhZGllbnQ+PG1hc2sgaWQ9ImIiIHg9IjAiIHk9IjAiIHdpZHRoPSIzMiIgaGVpZ2h0PSIzMiIgbWFza1VuaXRzPSJ1c2VyU3BhY2VPblVzZSI+PGNpcmNsZSBjbGFzcz0iYSIgY3g9IjciIGN5PSIyNSIgcj0iMSIvPjxwYXRoIGNsYXNzPSJhIiBkPSJNMjgsMjBIMjZ2MmgydjZINFYyMmg5Ljk0VjIwSDRhMiwyLDAsMCwwLTIsMnY2YTIsMiwwLDAsMCwyLDJIMjhhMiwyLDAsMCwwLDItMlYyMkEyLDIsMCwwLDAsMjgsMjBaIi8+PHJlY3QgY2xhc3M9ImIiIHg9IjQiIHk9IjE5IiB3aWR0aD0iMTAiIGhlaWdodD0iNCIgdHJhbnNmb3JtPSJ0cmFuc2xhdGUoMTggNDIpIHJvdGF0ZSgxODApIi8+PC9tYXNrPjxsaW5lYXJHcmFkaWVudCBpZD0iYyIgeTE9IjMyIiB4Mj0iMzIiIGdyYWRpZW50VW5pdHM9InVzZXJTcGFjZU9uVXNlIj48c3RvcCBvZmZzZXQ9IjAuMSIgc3RvcC1jb2xvcj0iI2E1NmVmZiIvPjxzdG9wIG9mZnNldD0iMC45IiBzdG9wLWNvbG9yPSIjMGY2MmZlIi8+PC9saW5lYXJHcmFkaWVudD48L2RlZnM+PGcgY2xhc3M9ImMiPjxyZWN0IGNsYXNzPSJkIiB3aWR0aD0iMzIiIGhlaWdodD0iMzIiLz48L2c+PHBhdGggY2xhc3M9ImUiIGQ9Ik0xOCwxMEgxMFYyaDhaTTEyLDhoNFY0SDEyWiIvPjxwYXRoIGNsYXNzPSJlIiBkPSJNMjIsMTRIMTZ2OGg4VjE2aDZWOEgyMlptMCw2SDE4VjE2aDRabTYtMTB2NEgyNFYxMFoiLz48L3N2Zz4=;strokeColor=#4277BB;strokeWidth=2;labelBackgroundColor=none;rounded=0;fillColor=#E0E0E0;" parent="36aGQsGwIYLAXx43SORB-1" vertex="1">
            <mxGeometry x="656.2831325301204" y="398.85355729406353" width="56.3276576161988" height="56.3276576161988" as="geometry" />
          </mxCell>
        </UserObject>
        <mxCell id="36aGQsGwIYLAXx43SORB-30" style="edgeStyle=orthogonalEdgeStyle;rounded=0;orthogonalLoop=1;jettySize=auto;html=1;" parent="36aGQsGwIYLAXx43SORB-1" edge="1">
          <mxGeometry relative="1" as="geometry">
            <mxPoint x="685" y="500" as="sourcePoint" />
            <mxPoint x="684.4460440326338" y="583.4167372296365" as="targetPoint" />
            <Array as="points">
              <mxPoint x="684" y="500" />
            </Array>
          </mxGeometry>
        </mxCell>
        <UserObject label="&lt;font color=&quot;#000000&quot;&gt;Secrets&amp;nbsp;Manager&lt;/font&gt;" id="36aGQsGwIYLAXx43SORB-31">
          <mxCell style="aspect=fixed;perimeter=ellipsePerimeter;html=1;align=center;shadow=0;dashed=0;fontColor=#4277BB;fontSize=12;spacingTop=3;image;image=data:image/svg+xml,PD94bWwgdmVyc2lvbj0iMS4wIiBlbmNvZGluZz0idXRmLTgiPz4KPCEtLSBHZW5lcmF0b3I6IEFkb2JlIElsbHVzdHJhdG9yIDI2LjMuMSwgU1ZHIEV4cG9ydCBQbHVnLUluIC4gU1ZHIFZlcnNpb246IDYuMDAgQnVpbGQgMCkgIC0tPgo8c3ZnIHZlcnNpb249IjEuMSIgaWQ9IkNsb3VkU2VjcmV0c01hbmFnZXIiIHhtbG5zPSJodHRwOi8vd3d3LnczLm9yZy8yMDAwL3N2ZyIgeG1sbnM6eGxpbms9Imh0dHA6Ly93d3cudzMub3JnLzE5OTkveGxpbmsiCgkgeD0iMHB4IiB5PSIwcHgiIHZpZXdCb3g9IjAgMCAzMiAzMiIgc3R5bGU9ImVuYWJsZS1iYWNrZ3JvdW5kOm5ldyAwIDAgMzIgMzI7IiB4bWw6c3BhY2U9InByZXNlcnZlIj4KPHN0eWxlIHR5cGU9InRleHQvY3NzIj4KCS5zdDB7ZmlsbDojRkZGRkZGO2ZpbHRlcjp1cmwoI0Fkb2JlX09wYWNpdHlNYXNrRmlsdGVyKTt9Cgkuc3Qxe2ZpbGw6dXJsKCNHcmFkaWVudHNfX2JsYWNrX18wMDAwMDAzNDc3MzExNTkxODQ5NTc2MzkxMDAwMDAxNTg5OTYwMjU3OTMzMTIwNTUxMV8pO30KCS5zdDJ7ZmlsbDojRkZGRkZGO30KCS5zdDN7bWFzazp1cmwoI21hc2tfMDAwMDAwMjU0MzM5NTYwODIzNTY0MjM4MzAwMDAwMDczNTI0OTE3MzQyOTYyNDgxOTJfKTt9Cgkuc3Q0e2ZpbGw6dXJsKCNTVkdJRF8xXyk7fQoJLnN0NXtmaWxsOiMwMDFENkM7fQo8L3N0eWxlPgo8ZGVmcz4KCTxmaWx0ZXIgaWQ9IkFkb2JlX09wYWNpdHlNYXNrRmlsdGVyIiBmaWx0ZXJVbml0cz0idXNlclNwYWNlT25Vc2UiIHg9IjAiIHk9IjAiIHdpZHRoPSIzMiIgaGVpZ2h0PSIzMiI+CgkJPGZlQ29sb3JNYXRyaXggIHR5cGU9Im1hdHJpeCIgdmFsdWVzPSIxIDAgMCAwIDAgIDAgMSAwIDAgMCAgMCAwIDEgMCAwICAwIDAgMCAxIDAiLz4KCTwvZmlsdGVyPgo8L2RlZnM+CjxtYXNrIG1hc2tVbml0cz0idXNlclNwYWNlT25Vc2UiIHg9IjAiIHk9IjAiIHdpZHRoPSIzMiIgaGVpZ2h0PSIzMiIgaWQ9Im1hc2tfMDAwMDAwMjU0MzM5NTYwODIzNTY0MjM4MzAwMDAwMDczNTI0OTE3MzQyOTYyNDgxOTJfIj4KCTxwYXRoIGNsYXNzPSJzdDAiIGQ9Ik0xNiwzMEM4LjMsMzAsMiwyMy43LDIsMTZTOC4zLDIsMTYsMnMxNCw2LjMsMTQsMTRTMjMuNywzMCwxNiwzMHogTTE2LDRDOS40LDQsNCw5LjQsNCwxNnM1LjQsMTIsMTIsMTIKCQlzMTItNS40LDEyLTEyUzIyLjYsNCwxNiw0eiIvPgoJCgkJPGxpbmVhckdyYWRpZW50IGlkPSJHcmFkaWVudHNfX2JsYWNrX18wMDAwMDEwOTAyMDI4NTEyNTg3NTg1NjEwMDAwMDAxNDIwNzg2ODc2NTY4Mzk4NjU5MF8iIGdyYWRpZW50VW5pdHM9InVzZXJTcGFjZU9uVXNlIiB4MT0iMTc4MC4zMzAxIiB5MT0iMzgwMS40NDM0IiB4Mj0iMTc5Mi42NzExIiB5Mj0iMzgwMS40NDM0IiBncmFkaWVudFRyYW5zZm9ybT0ibWF0cml4KC0wLjQ2MjIgMS4wNzcgMC42NDYgMC4yNzcyIC0xNjA2LjI1MzEgLTI5NTQuNDQ1OCkiPgoJCTxzdG9wICBvZmZzZXQ9IjAuMTc5IiBzdHlsZT0ic3RvcC1jb2xvcjojMDAwMDAwIi8+CgkJPHN0b3AgIG9mZnNldD0iMC45NjQiIHN0eWxlPSJzdG9wLWNvbG9yOiMwMDAwMDA7c3RvcC1vcGFjaXR5OjAiLz4KCTwvbGluZWFyR3JhZGllbnQ+CgkKCQk8cGF0aCBpZD0iR3JhZGllbnRzX19ibGFja19fMDAwMDAxNjMwNzE5ODIxNjk5MTIyNTk2ODAwMDAwMTAwNDkxODMzNjQzMTgwOTUyODlfIiBzdHlsZT0iZmlsbDp1cmwoI0dyYWRpZW50c19fYmxhY2tfXzAwMDAwMTA5MDIwMjg1MTI1ODc1ODU2MTAwMDAwMDE0MjA3ODY4NzY1NjgzOTg2NTkwXyk7IiBkPSIKCQlNMzEuOCwxNy41bC02LDE0bC05LTMuOWw2LTE0TDMxLjgsMTcuNXoiLz4KCTxwYXRoIGNsYXNzPSJzdDIiIGQ9Ik0yNiwxNWg2djJoLTZWMTV6Ii8+CjwvbWFzaz4KPGcgY2xhc3M9InN0MyI+CgkKCQk8bGluZWFyR3JhZGllbnQgaWQ9IlNWR0lEXzFfIiBncmFkaWVudFVuaXRzPSJ1c2VyU3BhY2VPblVzZSIgeDE9Ii05LjA5NDk0N2UtMTMiIHkxPSItNjIiIHgyPSIzMiIgeTI9Ii0zMCIgZ3JhZGllbnRUcmFuc2Zvcm09Im1hdHJpeCgxIDAgMCAtMSAwIC0zMCkiPgoJCTxzdG9wICBvZmZzZXQ9IjAuMSIgc3R5bGU9InN0b3AtY29sb3I6IzA4QkRCQSIvPgoJCTxzdG9wICBvZmZzZXQ9IjAuOSIgc3R5bGU9InN0b3AtY29sb3I6IzBGNjJGRSIvPgoJPC9saW5lYXJHcmFkaWVudD4KCTxwYXRoIGNsYXNzPSJzdDQiIGQ9Ik0wLDBoMzJ2MzJIMFYweiIvPgo8L2c+CjxwYXRoIGNsYXNzPSJzdDUiIGQ9Ik0yMCwxNmMwLTAuNy0wLjItMS40LTAuNi0ybDMuMy0zLjNsLTEuNC0xLjRMMTgsMTIuNmMtMC42LTAuNC0xLjMtMC42LTItMC42cy0xLjQsMC4yLTIsMC42bC0zLjMtMy4zbC0xLjQsMS40CglsMy4zLDMuM2MtMC40LDAuNi0wLjYsMS4zLTAuNiwyczAuMiwxLjQsMC42LDJsLTMuMywzLjNsMS40LDEuNGwzLjMtMy4zYzAuNiwwLjQsMS4zLDAuNiwyLDAuNmMwLjcsMCwxLjQtMC4yLDItMC42bDMuMywzLjMKCWwxLjQtMS40TDE5LjQsMThDMTkuOCwxNy40LDIwLDE2LjcsMjAsMTZ6IE0xNiwxOGMtMS4xLDAtMi0wLjktMi0yczAuOS0yLDItMnMyLDAuOSwyLDJTMTcuMSwxOCwxNiwxOHoiLz4KPC9zdmc+Cg==;strokeColor=#4277BB;strokeWidth=2;labelBackgroundColor=none;rounded=0" parent="36aGQsGwIYLAXx43SORB-1" vertex="1">
            <mxGeometry x="330" y="583" width="60" height="60" as="geometry" />
          </mxCell>
        </UserObject>
        <UserObject link="https://cloud.ibm.com/catalog/services/containers-kubernetes" id="36aGQsGwIYLAXx43SORB-32">
          <mxCell style="aspect=fixed;perimeter=ellipsePerimeter;html=1;align=center;shadow=0;dashed=0;fontColor=#4277BB;fontSize=12;spacingTop=3;image;image=data:image/svg+xml,PHN2ZyB4bWxucz0iaHR0cDovL3d3dy53My5vcmcvMjAwMC9zdmciIHhtbG5zOnhsaW5rPSJodHRwOi8vd3d3LnczLm9yZy8xOTk5L3hsaW5rIiB2aWV3Qm94PSIwIDAgMzIgMzIiPgogIDxkZWZzPgogICAgPHN0eWxlPi5jbHMtMXtmaWxsOiNmZmY7fS5jbHMtMntmaWxsOnVybCgjaWtzLWljb24tbGlnaHQtbGluZWFyLWdyYWRpZW50KTt9LmNscy0ze21hc2s6dXJsKCNpa3MtaWNvbi1saWdodC1tYXNrKTt9LmNscy00e2ZpbGw6dXJsKCNpa3MtaWNvbi1saWdodC1saW5lYXItZ3JhZGllbnQtMik7fS5jbHMtNXtmaWxsOiMwMDFkNmM7fTwvc3R5bGU+CiAgICA8bGluZWFyR3JhZGllbnQgaWQ9Imlrcy1pY29uLWxpZ2h0LWxpbmVhci1ncmFkaWVudCIgeDE9IjI4IiB5MT0iMjIiIHgyPSIyOCIgeTI9IjExIiBncmFkaWVudFVuaXRzPSJ1c2VyU3BhY2VPblVzZSI+CiAgICAgIDxzdG9wIG9mZnNldD0iMCIgc3RvcC1vcGFjaXR5PSIwIi8+CiAgICAgIDxzdG9wIG9mZnNldD0iMC45Ii8+CiAgICA8L2xpbmVhckdyYWRpZW50PgogICAgPG1hc2sgaWQ9Imlrcy1pY29uLWxpZ2h0LW1hc2siIHg9IjAiIHk9IjAiIHdpZHRoPSIzMiIgaGVpZ2h0PSIzMiIgbWFza1VuaXRzPSJ1c2VyU3BhY2VPblVzZSI+CiAgICAgIDxwYXRoIGNsYXNzPSJjbHMtMSIgZD0iTTE2LDMxYS45LjksMCwwLDEtLjUtLjE0bC0xMi03QTEsMSwwLDAsMSwzLDIzVjlhMSwxLDAsMCwxLC41LS44NmwxMi03YTEsMSwwLDAsMSwxLDBsMTIsNy0xLDEuNzJMMTYsMy4xNiw1LDkuNTdWMjIuNDNsMTEsNi40MSwxMS02LjQxVjEyaDJWMjNhMSwxLDAsMCwxLS41Ljg2bC0xMiw3QS45LjksMCwwLDEsMTYsMzFaIi8+CiAgICAgIDxyZWN0IGNsYXNzPSJjbHMtMiIgeD0iMjYiIHk9IjExIiB3aWR0aD0iNCIgaGVpZ2h0PSIxMSIvPgogICAgPC9tYXNrPgogICAgPGxpbmVhckdyYWRpZW50IGlkPSJpa3MtaWNvbi1saWdodC1saW5lYXItZ3JhZGllbnQtMiIgeDE9Ii01ODIzIiB5MT0iLTE5NzkiIHgyPSItNTc5MSIgeTI9Ii0yMDExIiBncmFkaWVudFRyYW5zZm9ybT0ibWF0cml4KDEsIDAsIDAsIC0xLCA1ODIzLCAtMTk3OSkiIGdyYWRpZW50VW5pdHM9InVzZXJTcGFjZU9uVXNlIj4KICAgICAgPHN0b3Agb2Zmc2V0PSIwLjEiIHN0b3AtY29sb3I9IiMzZGRiZDkiLz4KICAgICAgPHN0b3Agb2Zmc2V0PSIwLjkiIHN0b3AtY29sb3I9IiM0NTg5ZmYiLz4KICAgIDwvbGluZWFyR3JhZGllbnQ+CiAgPC9kZWZzPgogIDxnPgogICAgPGcgY2xhc3M9ImNscy0zIj4KICAgICAgPHJlY3QgY2xhc3M9ImNscy00IiB3aWR0aD0iMzIiIGhlaWdodD0iMzIiIHRyYW5zZm9ybT0idHJhbnNsYXRlKDAgMzIpIHJvdGF0ZSgtOTApIi8+CiAgICA8L2c+CiAgICA8Zz4KICAgICAgPHBhdGggY2xhc3M9ImNscy01IiBkPSJNMTYsMjNhMSwxLDAsMCwxLS41MS0uMTRsLTUtM0ExLDEsMCwwLDEsMTAsMTlWMTNhMSwxLDAsMCwxLC40OS0uODZsNS0zYTEsMSwwLDAsMSwxLDBsNSwzQTEsMSwwLDAsMSwyMiwxM3Y2YTEsMSwwLDAsMS0uNDkuODZsLTUsM0ExLDEsMCwwLDEsMTYsMjNabS00LTQuNTcsNCwyLjQsNC0yLjRWMTMuNTdsLTQtMi40LTQsMi40WiIvPgogICAgPC9nPgogIDwvZz4KPC9zdmc+Cg==;strokeColor=#4277BB;strokeWidth=2;labelBackgroundColor=none;rounded=0" parent="36aGQsGwIYLAXx43SORB-1" vertex="1">
            <mxGeometry x="326.33" y="340" width="42" height="42" as="geometry" />
          </mxCell>
        </UserObject>
        <UserObject label="&lt;font color=&quot;#000000&quot;&gt;Cloudant&lt;/font&gt;" id="36aGQsGwIYLAXx43SORB-33">
          <mxCell style="aspect=fixed;perimeter=ellipsePerimeter;html=1;align=center;shadow=0;dashed=0;fontColor=#4277BB;fontSize=12;spacingTop=3;image;image=data:image/svg+xml,PHN2ZyBpZD0iQ2xvdWRhbnQiIHhtbG5zPSJodHRwOi8vd3d3LnczLm9yZy8yMDAwL3N2ZyIgeG1sbnM6eGxpbms9Imh0dHA6Ly93d3cudzMub3JnLzE5OTkveGxpbmsiIHZpZXdCb3g9IjAgMCAzMiAzMiI+PGRlZnM+PGxpbmVhckdyYWRpZW50IGlkPSI4dHc2aTE5am9hIiB4MT0iMjAyIiB5MT0iMjQuNSIgeDI9IjIxMCIgeTI9IjI0LjUiIGdyYWRpZW50VHJhbnNmb3JtPSJtYXRyaXgoMSAwIDAgLTEgLTE4NiA0OSkiIGdyYWRpZW50VW5pdHM9InVzZXJTcGFjZU9uVXNlIj48c3RvcCBvZmZzZXQ9IjAiIHN0b3Atb3BhY2l0eT0iMCIvPjxzdG9wIG9mZnNldD0iLjgiLz48L2xpbmVhckdyYWRpZW50PjxsaW5lYXJHcmFkaWVudCBpZD0icGhla29ranJ2YiIgeDE9Ii0zNjgzIiB5MT0iLTcxMTEiIHgyPSItMzY3NSIgeTI9Ii03MTExIiBncmFkaWVudFRyYW5zZm9ybT0ibWF0cml4KDEgMCAwIC0xIDM2OTMgLTcxMDUpIiB4bGluazpocmVmPSIjOHR3NmkxOWpvYSIvPjxsaW5lYXJHcmFkaWVudCBpZD0iaTBocWR3anZnZCIgeDE9IjI3NDIuNTA0IiB5MT0iMzEuNTM4IiB4Mj0iMjcxMS4yODgiIHkyPSIuMzIyIiBncmFkaWVudFRyYW5zZm9ybT0ibWF0cml4KDEgMCAwIC0xIC0yNzEwLjk2NiAzMikiIGdyYWRpZW50VW5pdHM9InVzZXJTcGFjZU9uVXNlIj48c3RvcCBvZmZzZXQ9Ii4xIiBzdG9wLWNvbG9yPSIjMDhiZGJhIi8+PHN0b3Agb2Zmc2V0PSIuOSIgc3RvcC1jb2xvcj0iIzBmNjJmZSIvPjwvbGluZWFyR3JhZGllbnQ+PG1hc2sgaWQ9ImRweHJ6aXNya2MiIHg9IjAiIHk9IjAiIHdpZHRoPSIzMiIgaGVpZ2h0PSIzMiIgbWFza1VuaXRzPSJ1c2VyU3BhY2VPblVzZSI+PHBhdGggZD0iTTQgMTRoMnYtMmE1LjAwNiA1LjAwNiAwIDAgMSA1LTVoNlY1aC02YTcuMDA4IDcuMDA4IDAgMCAwLTcgN3pNMTcgMjZoNGE3LjAwOCA3LjAwOCAwIDAgMCA3LTd2LTJoLTJ2MmE1LjAwNiA1LjAwNiAwIDAgMS01IDVoLTR6IiBzdHlsZT0iZmlsbDojZmZmIi8+PHBhdGggdHJhbnNmb3JtPSJyb3RhdGUoLTE4MCAyMCAyNC41KSIgc3R5bGU9ImZpbGw6dXJsKCM4dHc2aTE5am9hKSIgZD0iTTE2IDIyaDh2NWgtOHoiLz48cGF0aCBzdHlsZT0iZmlsbDp1cmwoI3BoZWtva2pydmIpIiBkPSJNMTAgNGg4djRoLTh6Ii8+PC9tYXNrPjwvZGVmcz48ZyBzdHlsZT0ibWFzazp1cmwoI2RweHJ6aXNya2MpIj48cGF0aCB0cmFuc2Zvcm09InJvdGF0ZSgtMTgwIDE2IDE2KSIgc3R5bGU9ImZpbGw6dXJsKCNpMGhxZHdqdmdkKSIgZD0iTTAgMGgzMnYzMkgweiIvPjwvZz48cGF0aCBkPSJNMjMuOTY5IDJhNS41MjYgNS41MjYgMCAwIDAtNS4yMTcgMy43NjRBNC4yNDggNC4yNDggMCAwIDAgMjAuMjE5IDE0aDcuNjA3YTQuMjQ5IDQuMjQ5IDAgMCAwIDEuMzYtOC4yMzZBNS41MjUgNS41MjUgMCAwIDAgMjMuOTY5IDJ6bS0zLjc1IDEwYTIuMjQ5IDIuMjQ5IDAgMCAxLS40NDktNC40NTNsLjY0My0uMTMxLjEzNS0uNjQyYTMuNSAzLjUgMCAwIDEgNi44NDMgMGwuMTM1LjY0Mi42NDMuMTMxQTIuMjUgMi4yNSAwIDAgMSAyNy44IDEyek05Ljk2OSAxN2gtNmEyIDIgMCAwIDAtMiAydjEwYTIgMiAwIDAgMCAyIDJoNmEyIDIgMCAwIDAgMi0yVjE5YTIgMiAwIDAgMC0yLTJ6bS02IDR2LTJoNnYyem0wIDR2LTJoNnYyem0wIDR2LTJoNnYyeiIgc3R5bGU9ImZpbGw6IzAwMWQ2YyIvPjwvc3ZnPg==;strokeColor=#4277BB;strokeWidth=2;labelBackgroundColor=none;rounded=0" parent="36aGQsGwIYLAXx43SORB-1" vertex="1">
            <mxGeometry x="754" y="399" width="60" height="60" as="geometry" />
          </mxCell>
        </UserObject>
        <UserObject link="https://cloud.ibm.com/catalog/services/kms" label="&lt;font color=&quot;#000000&quot;&gt;Key Protect&lt;/font&gt;" id="36aGQsGwIYLAXx43SORB-34">
          <mxCell style="aspect=fixed;perimeter=ellipsePerimeter;html=1;align=left;shadow=0;dashed=0;fontColor=#4277BB;fontSize=12;spacingTop=3;image;image=data:image/svg+xml,PD94bWwgdmVyc2lvbj0iMS4wIiBlbmNvZGluZz0idXRmLTgiPz4KPCEtLSBHZW5lcmF0b3I6IEFkb2JlIElsbHVzdHJhdG9yIDI0LjIuMSwgU1ZHIEV4cG9ydCBQbHVnLUluIC4gU1ZHIFZlcnNpb246IDYuMDAgQnVpbGQgMCkgIC0tPgo8c3ZnIHZlcnNpb249IjEuMSIgaWQ9IkNsb3VkLUtleVByb3RlY3RfbGlnaHRfdGhlbWVfaWNvbiIKCSB4bWxucz0iaHR0cDovL3d3dy53My5vcmcvMjAwMC9zdmciIHhtbG5zOnhsaW5rPSJodHRwOi8vd3d3LnczLm9yZy8xOTk5L3hsaW5rIiB4PSIwcHgiIHk9IjBweCIgdmlld0JveD0iMCAwIDMyIDMyIgoJIHN0eWxlPSJlbmFibGUtYmFja2dyb3VuZDpuZXcgMCAwIDMyIDMyOyIgeG1sOnNwYWNlPSJwcmVzZXJ2ZSI+CjxzdHlsZSB0eXBlPSJ0ZXh0L2NzcyI+Cgkuc3Qwe2ZpbGw6I0ZGRkZGRjtmaWx0ZXI6dXJsKCNBZG9iZV9PcGFjaXR5TWFza0ZpbHRlcik7fQoJLnN0MXtmaWxsOnVybCgjU1ZHSURfMV8pO30KCS5zdDJ7bWFzazp1cmwoI2JfMV8pO30KCS5zdDN7ZmlsbDp1cmwoI1NWR0lEXzJfKTt9Cgkuc3Q0e2ZpbGw6IzAwMUQ2Qzt9Cjwvc3R5bGU+CjxkZWZzPgoJPGZpbHRlciBpZD0iQWRvYmVfT3BhY2l0eU1hc2tGaWx0ZXIiIGZpbHRlclVuaXRzPSJ1c2VyU3BhY2VPblVzZSIgeD0iMCIgeT0iMCIgd2lkdGg9IjMyIiBoZWlnaHQ9IjMyIj4KCQk8ZmVDb2xvck1hdHJpeCAgdHlwZT0ibWF0cml4IiB2YWx1ZXM9IjEgMCAwIDAgMCAgMCAxIDAgMCAwICAwIDAgMSAwIDAgIDAgMCAwIDEgMCIvPgoJPC9maWx0ZXI+CjwvZGVmcz4KPG1hc2sgbWFza1VuaXRzPSJ1c2VyU3BhY2VPblVzZSIgeD0iMCIgeT0iMCIgd2lkdGg9IjMyIiBoZWlnaHQ9IjMyIiBpZD0iYl8xXyI+Cgk8cGF0aCBjbGFzcz0ic3QwIiBkPSJNMjQsNHYxNC4zYzAsMy4yLTEuNyw2LjItNC41LDcuOEwxNSwyOC43bC00LjUtMi42QzcuNywyNC41LDYsMjEuNSw2LDE4LjNWNEgyNCBNMjQsMkg2QzQuOSwyLDQsMi45LDQsNHYxNC4zCgkJYzAsMy45LDIuMSw3LjYsNS41LDkuNUwxNSwzMWw1LjUtMy4yYzMuNC0yLDUuNS01LjYsNS41LTkuNVY0QzI2LDIuOSwyNS4xLDIsMjQsMnoiLz4KCQoJCTxsaW5lYXJHcmFkaWVudCBpZD0iU1ZHSURfMV8iIGdyYWRpZW50VW5pdHM9InVzZXJTcGFjZU9uVXNlIiB4MT0iMTEuNzUiIHkxPSI2LjI1IiB4Mj0iMzMuNzUiIHkyPSIyOC4yNSIgZ3JhZGllbnRUcmFuc2Zvcm09Im1hdHJpeCgxIDAgMCAtMSAwIDM0KSI+CgkJPHN0b3AgIG9mZnNldD0iMC4xMyIgc3R5bGU9InN0b3AtY29sb3I6IzAwMDAwMDtzdG9wLW9wYWNpdHk6MCIvPgoJCTxzdG9wICBvZmZzZXQ9IjAuMzgiIHN0eWxlPSJzdG9wLWNvbG9yOiMwMDAwMDAiLz4KCTwvbGluZWFyR3JhZGllbnQ+Cgk8cG9seWdvbiBjbGFzcz0ic3QxIiBwb2ludHM9IjE1LDMxIDI5LDMxIDI5LDEgMTgsMSAxOCw3IDE1LDcgCSIvPgo8L21hc2s+CjxnIGNsYXNzPSJzdDIiPgoJCgkJPGxpbmVhckdyYWRpZW50IGlkPSJTVkdJRF8yXyIgZ3JhZGllbnRVbml0cz0idXNlclNwYWNlT25Vc2UiIHgxPSItMS44MTg5ODllLTEyIiB5MT0iMiIgeDI9IjMyIiB5Mj0iMzQiIGdyYWRpZW50VHJhbnNmb3JtPSJtYXRyaXgoMSAwIDAgLTEgMCAzNCkiPgoJCTxzdG9wICBvZmZzZXQ9IjAuMSIgc3R5bGU9InN0b3AtY29sb3I6I0E1NkVGRiIvPgoJCTxzdG9wICBvZmZzZXQ9IjAuOSIgc3R5bGU9InN0b3AtY29sb3I6IzBGNjJGRSIvPgoJPC9saW5lYXJHcmFkaWVudD4KCTxyZWN0IGNsYXNzPSJzdDMiIHdpZHRoPSIzMiIgaGVpZ2h0PSIzMiIvPgo8L2c+CjxwYXRoIGNsYXNzPSJzdDQiIGQ9Ik0yNiwxNC4xVjJoLTV2MmgzdjJoLTN2MmgzdjYuMWMtMi4xLDAuNi0zLjQsMi43LTIuOSw0LjljMC42LDIuMSwyLjcsMy40LDQuOSwyLjljMi4xLTAuNiwzLjQtMi43LDIuOS00LjkKCUMyOC41LDE1LjYsMjcuNCwxNC41LDI2LDE0LjF6IE0yNSwyMGMtMS4xLDAtMi0wLjktMi0yczAuOS0yLDItMnMyLDAuOSwyLDJTMjYuMSwyMCwyNSwyMHoiLz4KPC9zdmc+Cg==;strokeColor=#4277BB;strokeWidth=2;labelBackgroundColor=none;rounded=0;labelPosition=right;verticalLabelPosition=middle;verticalAlign=middle;" parent="36aGQsGwIYLAXx43SORB-1" vertex="1">
            <mxGeometry x="656.28" y="583" width="60" height="60" as="geometry" />
          </mxCell>
        </UserObject>
        <mxCell id="36aGQsGwIYLAXx43SORB-35" style="edgeStyle=orthogonalEdgeStyle;rounded=0;orthogonalLoop=1;jettySize=auto;html=1;fontColor=#000000;startArrow=classic;startFill=1;endArrow=none;endFill=0;exitX=0.5;exitY=0;exitDx=0;exitDy=0;" parent="36aGQsGwIYLAXx43SORB-1" source="jmKnwX7EA-S_3mg5XBJJ-7" target="36aGQsGwIYLAXx43SORB-31" edge="1">
          <mxGeometry relative="1" as="geometry">
            <Array as="points">
              <mxPoint x="212" y="630" />
            </Array>
            <mxPoint x="190.0999999999999" y="730" as="sourcePoint" />
            <mxPoint x="332" y="628" as="targetPoint" />
          </mxGeometry>
        </mxCell>
        <mxCell id="36aGQsGwIYLAXx43SORB-38" value="" style="sketch=0;html=1;aspect=fixed;strokeColor=none;shadow=0;align=center;verticalAlign=top;fillColor=#3B8DF1;shape=mxgraph.gcp2.lock;fontColor=#000000;" parent="36aGQsGwIYLAXx43SORB-1" vertex="1">
          <mxGeometry x="61.45" y="579" width="35.1" height="45" as="geometry" />
        </mxCell>
        <mxCell id="36aGQsGwIYLAXx43SORB-39" value="Let&#39;s Encrypt" style="text;html=1;align=center;verticalAlign=middle;resizable=0;points=[];autosize=1;strokeColor=none;fillColor=none;fontColor=#000000;" parent="36aGQsGwIYLAXx43SORB-1" vertex="1">
          <mxGeometry x="36.5" y="630" width="90" height="30" as="geometry" />
        </mxCell>
        <mxCell id="jmKnwX7EA-S_3mg5XBJJ-0" value="" style="endArrow=classic;html=1;rounded=0;entryX=0.5;entryY=0;entryDx=0;entryDy=0;" parent="36aGQsGwIYLAXx43SORB-1" source="36aGQsGwIYLAXx43SORB-10" edge="1">
          <mxGeometry width="50" height="50" relative="1" as="geometry">
            <mxPoint x="630" y="590" as="sourcePoint" />
            <mxPoint x="501.8321420611114" y="573.6767372296365" as="targetPoint" />
          </mxGeometry>
        </mxCell>
        <mxCell id="jmKnwX7EA-S_3mg5XBJJ-1" value="" style="endArrow=classic;html=1;rounded=0;exitX=0.994;exitY=0.387;exitDx=0;exitDy=0;entryX=0.049;entryY=0.4;entryDx=0;entryDy=0;entryPerimeter=0;exitPerimeter=0;" parent="36aGQsGwIYLAXx43SORB-1" source="jmKnwX7EA-S_3mg5XBJJ-4" target="36aGQsGwIYLAXx43SORB-34" edge="1">
          <mxGeometry width="50" height="50" relative="1" as="geometry">
            <mxPoint x="529.9959708692127" y="601.8405660377359" as="sourcePoint" />
            <mxPoint x="640" y="540" as="targetPoint" />
          </mxGeometry>
        </mxCell>
        <mxCell id="jmKnwX7EA-S_3mg5XBJJ-4" value="App ID" style="editable=1;moveable=0;rounded=0;shape=image;verticalLabelPosition=bottom;labelBackgroundColor=default;verticalAlign=top;aspect=fixed;imageAspect=0;image=data:image/svg+xml,PHN2ZyBpZD0iQ2xvdWRBcHBJRCIgeG1sbnM9Imh0dHA6Ly93d3cudzMub3JnLzIwMDAvc3ZnIiB2aWV3Qm94PSIwIDAgMzIgMzIiPjxkZWZzPjxsaW5lYXJHcmFkaWVudCBpZD0ibXptbzMxdHIyYSIgeDE9IjcyMi43NSIgeTE9Ii0yMy4yNSIgeDI9IjcwNy4yNSIgeTI9Ii03Ljc1IiBncmFkaWVudFRyYW5zZm9ybT0idHJhbnNsYXRlKC02OTAgMzkpIiBncmFkaWVudFVuaXRzPSJ1c2VyU3BhY2VPblVzZSI+PHN0b3Agb2Zmc2V0PSIuMjYzIiBzdG9wLW9wYWNpdHk9IjAiLz48c3RvcCBvZmZzZXQ9Ii44MiIvPjwvbGluZWFyR3JhZGllbnQ+PGxpbmVhckdyYWRpZW50IGlkPSJxNnppdmxxcWdiIiB4MT0iLTU1Ni41IiB5MT0iLTMzMS41IiB4Mj0iLTU1Ni41IiB5Mj0iLTMwNi41IiBncmFkaWVudFRyYW5zZm9ybT0idHJhbnNsYXRlKDU3MSAzMjcpIiBncmFkaWVudFVuaXRzPSJ1c2VyU3BhY2VPblVzZSI+PHN0b3Agb2Zmc2V0PSIuMTE5IiBzdG9wLW9wYWNpdHk9IjAiLz48c3RvcCBvZmZzZXQ9Ii41MjYiLz48L2xpbmVhckdyYWRpZW50PjxsaW5lYXJHcmFkaWVudCBpZD0iYmRoYjhjOXFvZCIgeDE9IjAiIHkxPSIzMiIgeDI9IjMyIiB5Mj0iMCIgZ3JhZGllbnRVbml0cz0idXNlclNwYWNlT25Vc2UiPjxzdG9wIG9mZnNldD0iLjEiIHN0b3AtY29sb3I9IiMwOGJkYmEiLz48c3RvcCBvZmZzZXQ9Ii45IiBzdG9wLWNvbG9yPSIjMGY2MmZlIi8+PC9saW5lYXJHcmFkaWVudD48bWFzayBpZD0iaWM0dnV6NWo3YyIgeD0iMiIgeT0iMCIgd2lkdGg9IjMxIiBoZWlnaHQ9IjMxIiBtYXNrVW5pdHM9InVzZXJTcGFjZU9uVXNlIj48Y2lyY2xlIGN4PSIxNyIgY3k9IjE2IiByPSIxMyIgc3R5bGU9ImZpbGw6bm9uZTtzdHJva2U6I2ZmZjtzdHJva2UtbWl0ZXJsaW1pdDoxMDtzdHJva2Utd2lkdGg6MnB4Ii8+PHBhdGggdHJhbnNmb3JtPSJyb3RhdGUoMTgwIDI1IDIzLjUpIiBzdHlsZT0iZmlsbDp1cmwoI216bW8zMXRyMmEpIiBkPSJNMTcgMTZoMTZ2MTVIMTd6Ii8+PHBhdGggdHJhbnNmb3JtPSJyb3RhdGUoOTAgMTQuNSA4KSIgc3R5bGU9ImZpbGw6dXJsKCNxNnppdmxxcWdiKSIgZD0iTTYuNS00LjVoMTZ2MjVoLTE2eiIvPjwvbWFzaz48L2RlZnM+PGcgc3R5bGU9Im1hc2s6dXJsKCNpYzR2dXo1ajdjKSI+PHBhdGggc3R5bGU9ImZpbGw6dXJsKCNiZGhiOGM5cW9kKSIgZD0iTTAgMGgzMnYzMkgweiIvPjwvZz48cGF0aCBkPSJNMjAgMThoLTZhMyAzIDAgMCAwLTMgM3YyaDJ2LTJhMSAxIDAgMCAxIDEtMWg2YTEgMSAwIDAgMSAxIDF2Mmgydi0yYTMgMyAwIDAgMC0zLTN6TTE3IDE3YTQgNCAwIDEgMCAwLTggNCA0IDAgMCAwIDAgOHptMC02YTIgMiAwIDEgMSAuMDAxIDMuOTk5QTIgMiAwIDAgMSAxNyAxMXpNNiAxNGwtMi4xMzktMS4wMTNBNS4wMjIgNS4wMjIgMCAwIDEgMSA4LjQ2N1YyaDEwdjYuNDY4YTUuMDIzIDUuMDIzIDAgMCAxLTIuODYxIDQuNTJMNiAxNC4wMDF6TTMgNHY0LjQ2OGMwIDEuMTUzLjY3NCAyLjIxOCAxLjcxNyAyLjcxMUw2IDExLjc4NmwxLjI4My0uNjA3QTMuMDEyIDMuMDEyIDAgMCAwIDkgOC40NjhWNEgzeiIgc3R5bGU9ImZpbGw6IzAwMWQ2YyIvPjwvc3ZnPg==;imageBorder=none;perimeterSpacing=0;imageBackground=none;sketch=0;connectable=1;allowArrows=0;movable=1;resizable=1;rotatable=1;deletable=1;locked=0;" parent="36aGQsGwIYLAXx43SORB-1" vertex="1">
          <mxGeometry x="470" y="583" width="62" height="62" as="geometry" />
        </mxCell>
        <mxCell id="jmKnwX7EA-S_3mg5XBJJ-7" value="Internet Services" style="editable=1;moveable=0;rounded=0;shape=image;verticalLabelPosition=bottom;labelBackgroundColor=default;verticalAlign=top;aspect=fixed;imageAspect=0;image=data:image/svg+xml,PD94bWwgdmVyc2lvbj0iMS4wIiBlbmNvZGluZz0idXRmLTgiPz4KPCEtLSBHZW5lcmF0b3I6IEFkb2JlIElsbHVzdHJhdG9yIDI0LjAuMCwgU1ZHIEV4cG9ydCBQbHVnLUluIC4gU1ZHIFZlcnNpb246IDYuMDAgQnVpbGQgMCkgIC0tPgo8c3ZnIHZlcnNpb249IjEuMSIgaWQ9IkNsb3VkLUludGVybmV0LVNlcnZpY2VzIiB4bWxucz0iaHR0cDovL3d3dy53My5vcmcvMjAwMC9zdmciIHhtbG5zOnhsaW5rPSJodHRwOi8vd3d3LnczLm9yZy8xOTk5L3hsaW5rIgoJIHg9IjBweCIgeT0iMHB4IiB2aWV3Qm94PSIwIDAgMzIgMzIiIHN0eWxlPSJlbmFibGUtYmFja2dyb3VuZDpuZXcgMCAwIDMyIDMyOyIgeG1sOnNwYWNlPSJwcmVzZXJ2ZSI+CjxzdHlsZSB0eXBlPSJ0ZXh0L2NzcyI+Cgkuc3Qwe2ZpbGw6dXJsKCNDbG91ZF8xXyk7fQoJLnN0MXtmaWxsOnVybCgjRmFkZV8xXyk7fQoJLnN0MntmaWxsOiMwMDFENkM7fQo8L3N0eWxlPgo8bGluZWFyR3JhZGllbnQgaWQ9IkNsb3VkXzFfIiBncmFkaWVudFVuaXRzPSJ1c2VyU3BhY2VPblVzZSIgeDE9IjUuNDA2NyIgeTE9IjI3LjAxOTMiIHgyPSIyNC43ODEiIHkyPSI3LjY0NDkiPgoJPHN0b3AgIG9mZnNldD0iMCIgc3R5bGU9InN0b3AtY29sb3I6IzA4QkRCQSIvPgoJPHN0b3AgIG9mZnNldD0iMSIgc3R5bGU9InN0b3AtY29sb3I6IzBGNjJGRSIvPgo8L2xpbmVhckdyYWRpZW50Pgo8cGF0aCBpZD0iQ2xvdWQiIGNsYXNzPSJzdDAiIGQ9Ik0yMSwyNUg4LjVjLTMsMC01LjUtMi41LTUuNS01LjVjMC0yLjcsMS45LTQuOSw0LjUtNS40bDEuMy0wLjJsMC4zLTEuM0M5LjksOC43LDEzLjIsNiwxNyw2CgljMC41LDAsMSwwLDEuNSwwLjFjMS42LDAuMywzLDEuMSw0LjIsMi4ybDEuNC0xLjRjLTEuNC0xLjQtMy4yLTIuNC01LjItMi43QzE4LjMsNC4xLDE3LjYsNCwxNyw0Yy00LjcsMC04LjksMy4zLTkuOCw4LjEKCUMzLjYsMTIuOCwxLDE1LjksMSwxOS41QzEsMjMuNiw0LjMsMjcsOC41LDI3SDIxVjI1eiIvPgo8bGluZWFyR3JhZGllbnQgaWQ9IkZhZGVfMV8iIGdyYWRpZW50VW5pdHM9InVzZXJTcGFjZU9uVXNlIiB4MT0iLTM1MCIgeTE9Ii0xMzgiIHgyPSItMzM2IiB5Mj0iLTEzOCIgZ3JhZGllbnRUcmFuc2Zvcm09Im1hdHJpeCgtMSAwIDAgLTEgLTMyOCAtMTEyKSI+Cgk8c3RvcCAgb2Zmc2V0PSIwLjEiIHN0eWxlPSJzdG9wLWNvbG9yOiNGRkZGRkYiLz4KCTxzdG9wICBvZmZzZXQ9IjEiIHN0eWxlPSJzdG9wLWNvbG9yOiNGRkZGRkY7c3RvcC1vcGFjaXR5OjAiLz4KPC9saW5lYXJHcmFkaWVudD4KPHBvbHlnb24gaWQ9IkZhZGUiIGNsYXNzPSJzdDEiIHBvaW50cz0iOCwyNCAyMiwyNCAyMiwyOCA4LDI4ICIvPgo8cGF0aCBpZD0iTm9kZXMiIGNsYXNzPSJzdDIiIGQ9Ik0yNywyMmMtMC43LDAtMS40LDAuMy0xLjksMC43bC01LjItMy4xYzAtMC4yLDAuMS0wLjQsMC4xLTAuNnMwLTAuNC0wLjEtMC42bDUuMi0zLjEKCWMwLjUsMC40LDEuMiwwLjcsMS45LDAuN2MxLjcsMCwzLTEuMywzLTNzLTEuMy0zLTMtM3MtMywxLjMtMywzYzAsMC4yLDAsMC40LDAuMSwwLjZsLTUuMiwzLjFDMTguNCwxNi4zLDE3LjcsMTYsMTcsMTYKCWMtMS43LDAtMywxLjMtMywzczEuMywzLDMsM2MwLjcsMCwxLjQtMC4zLDEuOS0wLjdsNS4yLDMuMWMwLDAuMi0wLjEsMC40LTAuMSwwLjZjMCwxLjcsMS4zLDMsMywzczMtMS4zLDMtM1MyOC43LDIyLDI3LDIyeiBNMjcsMTIKCWMwLjYsMCwxLDAuNCwxLDFzLTAuNCwxLTEsMXMtMS0wLjQtMS0xUzI2LjQsMTIsMjcsMTJ6IE0xNywyMGMtMC42LDAtMS0wLjQtMS0xczAuNC0xLDEtMXMxLDAuNCwxLDFTMTcuNiwyMCwxNywyMHogTTI3LDI2CgljLTAuNiwwLTEtMC40LTEtMXMwLjQtMSwxLTFzMSwwLjQsMSwxUzI3LjYsMjYsMjcsMjZ6Ii8+Cjwvc3ZnPgo=;imageBorder=none;perimeterSpacing=0;imageBackground=none;sketch=0;connectable=1;allowArrows=0;movable=1;resizable=1;rotatable=1;deletable=1;locked=0;" parent="36aGQsGwIYLAXx43SORB-1" vertex="1">
          <mxGeometry x="180" y="730" width="64" height="64" as="geometry" />
        </mxCell>
        <mxCell id="jmKnwX7EA-S_3mg5XBJJ-8" value="" style="endArrow=classic;html=1;rounded=0;entryX=0.687;entryY=0.661;entryDx=0;entryDy=0;entryPerimeter=0;exitX=0.01;exitY=0.427;exitDx=0;exitDy=0;exitPerimeter=0;" parent="36aGQsGwIYLAXx43SORB-1" source="36aGQsGwIYLAXx43SORB-31" target="36aGQsGwIYLAXx43SORB-2" edge="1">
          <mxGeometry width="50" height="50" relative="1" as="geometry">
            <mxPoint x="410" y="660" as="sourcePoint" />
            <mxPoint x="460" y="610" as="targetPoint" />
          </mxGeometry>
        </mxCell>
        <mxCell id="jmKnwX7EA-S_3mg5XBJJ-10" value="" style="endArrow=classic;html=1;rounded=0;exitX=1;exitY=0.5;exitDx=0;exitDy=0;entryX=-0.062;entryY=0.727;entryDx=0;entryDy=0;entryPerimeter=0;" parent="36aGQsGwIYLAXx43SORB-1" source="36aGQsGwIYLAXx43SORB-10" target="36aGQsGwIYLAXx43SORB-29" edge="1">
          <mxGeometry width="50" height="50" relative="1" as="geometry">
            <mxPoint x="630" y="440" as="sourcePoint" />
            <mxPoint x="680" y="390" as="targetPoint" />
          </mxGeometry>
        </mxCell>
      </root>
    </mxGraphModel>
  </diagram>
  <diagram name="Current with CBR 2023-12" id="8gNNIuj2HnOUyb8mPIaI">
    <mxGraphModel dx="1569" dy="1027" grid="1" gridSize="10" guides="1" tooltips="1" connect="1" arrows="1" fold="1" page="1" pageScale="1" pageWidth="827" pageHeight="1169" math="0" shadow="0">
      <root>
        <mxCell id="MeFkD9twAh1RjAJKcWin-0" />
        <mxCell id="MeFkD9twAh1RjAJKcWin-1" parent="MeFkD9twAh1RjAJKcWin-0" />
        <mxCell id="MeFkD9twAh1RjAJKcWin-2" value="Public Network" style="shape=mxgraph.ibm.box;prType=public;fontStyle=0;verticalAlign=top;align=left;spacingLeft=32;spacingTop=4;fillColor=none;rounded=0;whiteSpace=wrap;html=1;strokeColor=#4376BB;strokeWidth=3;dashed=0;container=0;spacing=-4;collapsible=0;" vertex="1" parent="MeFkD9twAh1RjAJKcWin-1">
          <mxGeometry x="12" y="200" width="128" height="620" as="geometry" />
        </mxCell>
        <mxCell id="MeFkD9twAh1RjAJKcWin-3" value="IBM Cloud" style="shape=mxgraph.ibm.box;prType=cloud;fontStyle=0;verticalAlign=top;align=left;spacingLeft=32;spacingTop=4;fillColor=none;rounded=0;whiteSpace=wrap;html=1;strokeColor=#4376BB;strokeWidth=3;dashed=0;container=0;spacing=-4;collapsible=0;" vertex="1" parent="MeFkD9twAh1RjAJKcWin-1">
          <mxGeometry x="140" y="200" width="738" height="620" as="geometry" />
        </mxCell>
        <mxCell id="MeFkD9twAh1RjAJKcWin-4" value="&amp;nbsp; &amp;nbsp; &amp;nbsp; &amp;nbsp; &amp;nbsp; &amp;nbsp;Kubernetes Cluster" style="rounded=1;whiteSpace=wrap;html=1;align=left;verticalAlign=top;fillColor=#f5f5f5;strokeColor=#666666;fontColor=#333333;" vertex="1" parent="MeFkD9twAh1RjAJKcWin-1">
          <mxGeometry x="318" y="327" width="241" height="201" as="geometry" />
        </mxCell>
        <mxCell id="MeFkD9twAh1RjAJKcWin-5" value="Region" style="shape=mxgraph.ibm.box;prType=region;fontStyle=0;verticalAlign=top;align=left;spacingLeft=32;spacingTop=4;fillColor=none;rounded=0;whiteSpace=wrap;html=1;strokeColor=#919191;strokeWidth=2;dashed=0;container=0;spacing=-4;collapsible=0;" vertex="1" parent="MeFkD9twAh1RjAJKcWin-1">
          <mxGeometry x="186" y="237" width="670" height="473" as="geometry" />
        </mxCell>
        <mxCell id="MeFkD9twAh1RjAJKcWin-6" style="edgeStyle=orthogonalEdgeStyle;rounded=0;orthogonalLoop=1;jettySize=auto;html=1;entryX=0;entryY=0.5;entryDx=0;entryDy=0;" edge="1" parent="MeFkD9twAh1RjAJKcWin-1" source="MeFkD9twAh1RjAJKcWin-12" target="MeFkD9twAh1RjAJKcWin-9">
          <mxGeometry relative="1" as="geometry" />
        </mxCell>
        <mxCell id="MeFkD9twAh1RjAJKcWin-7" value="&lt;font color=&quot;#000000&quot;&gt;User&lt;/font&gt;" style="aspect=fixed;perimeter=ellipsePerimeter;html=1;align=center;shadow=0;dashed=0;fontColor=#4277BB;labelBackgroundColor=#ffffff;fontSize=12;spacingTop=3;image;image=img/lib/ibm/users/user.svg;" vertex="1" parent="MeFkD9twAh1RjAJKcWin-1">
          <mxGeometry x="49" y="410.5" width="60" height="60" as="geometry" />
        </mxCell>
        <mxCell id="MeFkD9twAh1RjAJKcWin-8" style="edgeStyle=orthogonalEdgeStyle;rounded=0;orthogonalLoop=1;jettySize=auto;html=1;" edge="1" parent="MeFkD9twAh1RjAJKcWin-1" target="MeFkD9twAh1RjAJKcWin-9">
          <mxGeometry relative="1" as="geometry">
            <mxPoint x="501" y="300" as="sourcePoint" />
          </mxGeometry>
        </mxCell>
        <mxCell id="MeFkD9twAh1RjAJKcWin-9" value="&lt;span style=&quot;background-color: rgb(245 , 245 , 245)&quot;&gt;&lt;font color=&quot;#000000&quot;&gt;Application&lt;/font&gt;&lt;/span&gt;" style="aspect=fixed;perimeter=ellipsePerimeter;html=1;align=center;shadow=0;dashed=0;fontColor=#4277BB;labelBackgroundColor=#ffffff;fontSize=12;spacingTop=3;image;image=img/lib/ibm/applications/enterprise_applications.svg;" vertex="1" parent="MeFkD9twAh1RjAJKcWin-1">
          <mxGeometry x="471" y="410.5" width="60" height="60" as="geometry" />
        </mxCell>
        <mxCell id="MeFkD9twAh1RjAJKcWin-10" value="&lt;h5&gt;4&lt;/h5&gt;" style="ellipse;whiteSpace=wrap;html=1;aspect=fixed;" vertex="1" parent="MeFkD9twAh1RjAJKcWin-1">
          <mxGeometry x="511" y="351.5" width="20" height="20" as="geometry" />
        </mxCell>
        <mxCell id="MeFkD9twAh1RjAJKcWin-11" value="&lt;h5&gt;7&lt;/h5&gt;" style="ellipse;whiteSpace=wrap;html=1;aspect=fixed;" vertex="1" parent="MeFkD9twAh1RjAJKcWin-1">
          <mxGeometry x="728" y="277" width="20" height="20" as="geometry" />
        </mxCell>
        <mxCell id="MeFkD9twAh1RjAJKcWin-12" value="Ingress" style="rounded=1;whiteSpace=wrap;html=1;labelPosition=center;verticalLabelPosition=top;align=left;verticalAlign=bottom;spacing=-19;spacingLeft=25;fillColor=#dae8fc;strokeColor=#6c8ebf;" vertex="1" parent="MeFkD9twAh1RjAJKcWin-1">
          <mxGeometry x="280" y="390" width="138" height="101" as="geometry" />
        </mxCell>
        <mxCell id="MeFkD9twAh1RjAJKcWin-13" style="edgeStyle=orthogonalEdgeStyle;rounded=0;orthogonalLoop=1;jettySize=auto;html=1;strokeWidth=1;" edge="1" parent="MeFkD9twAh1RjAJKcWin-1" source="MeFkD9twAh1RjAJKcWin-7" target="MeFkD9twAh1RjAJKcWin-14">
          <mxGeometry relative="1" as="geometry" />
        </mxCell>
        <mxCell id="MeFkD9twAh1RjAJKcWin-14" value="TLS&lt;br&gt;Cert" style="rounded=1;whiteSpace=wrap;html=1;" vertex="1" parent="MeFkD9twAh1RjAJKcWin-1">
          <mxGeometry x="326.33" y="415.5" width="82" height="50" as="geometry" />
        </mxCell>
        <mxCell id="MeFkD9twAh1RjAJKcWin-15" value="&lt;h5&gt;1&lt;/h5&gt;" style="ellipse;whiteSpace=wrap;html=1;aspect=fixed;" vertex="1" parent="MeFkD9twAh1RjAJKcWin-1">
          <mxGeometry x="118" y="410.5" width="20" height="20" as="geometry" />
        </mxCell>
        <mxCell id="MeFkD9twAh1RjAJKcWin-16" style="edgeStyle=orthogonalEdgeStyle;rounded=0;orthogonalLoop=1;jettySize=auto;html=1;entryX=0.5;entryY=1;entryDx=0;entryDy=0;exitX=0.621;exitY=0.006;exitDx=0;exitDy=0;exitPerimeter=0;" edge="1" parent="MeFkD9twAh1RjAJKcWin-1" source="MeFkD9twAh1RjAJKcWin-26" target="MeFkD9twAh1RjAJKcWin-14">
          <mxGeometry relative="1" as="geometry">
            <mxPoint x="250" y="585" as="sourcePoint" />
          </mxGeometry>
        </mxCell>
        <UserObject label="&lt;font color=&quot;#000000&quot;&gt;Container&lt;br&gt;Registry&lt;/font&gt;" id="MeFkD9twAh1RjAJKcWin-17">
          <mxCell style="aspect=fixed;perimeter=ellipsePerimeter;html=1;align=left;shadow=0;dashed=0;fontColor=#4277BB;fontSize=12;spacingTop=3;image;image=data:image/svg+xml,PHN2ZyB4bWxucz0iaHR0cDovL3d3dy53My5vcmcvMjAwMC9zdmciIHhtbG5zOnhsaW5rPSJodHRwOi8vd3d3LnczLm9yZy8xOTk5L3hsaW5rIiB2aWV3Qm94PSIwIDAgMzIgMzIiPgogIDxkZWZzPgogICAgPGxpbmVhckdyYWRpZW50IGlkPSJiNGNjMzZmMy04N2FiLTQ4YjMtODg3ZS05YzFhYzg3NDI5ZTciIHgxPSI3NjYuMzY1IiB5MT0iLTc3MC41NCIgeDI9Ijc3NS41NTciIHkyPSItNzc5LjczMyIgZ3JhZGllbnRUcmFuc2Zvcm09InRyYW5zbGF0ZSgtMTA3Ny43NTYgMzEuNDUzKSByb3RhdGUoNDUpIiBncmFkaWVudFVuaXRzPSJ1c2VyU3BhY2VPblVzZSI+CiAgICAgIDxzdG9wIG9mZnNldD0iMC4wMjQiIHN0b3Atb3BhY2l0eT0iMCIvPgogICAgICA8c3RvcCBvZmZzZXQ9IjAuNjQiLz4KICAgIDwvbGluZWFyR3JhZGllbnQ+CiAgICA8bWFzayBpZD0iYWVmNGQzYjMtNjM5Ni00ODY2LWI2MjAtOGRmOGNiZTg4ZDUwIiB4PSIwIiB5PSIwIiB3aWR0aD0iMzIiIGhlaWdodD0iMzIiIG1hc2tVbml0cz0idXNlclNwYWNlT25Vc2UiPgogICAgICA8cGF0aCBkPSJNMjEsMzBINGEyLDIsMCwwLDEtMi0yVjRBMiwyLDAsMCwxLDQsMkgyOGEyLDIsMCwwLDEsMiwyVjE2SDI4VjRINFYyOEgyMVoiIGZpbGw9IiNmZmYiLz4KICAgICAgPHJlY3QgeD0iOSIgeT0iMjYiIHdpZHRoPSIxMyIgaGVpZ2h0PSI1IiBmaWxsPSJ1cmwoI2I0Y2MzNmYzLTg3YWItNDhiMy04ODdlLTljMWFjODc0MjllNykiLz4KICAgIDwvbWFzaz4KICAgIDxsaW5lYXJHcmFkaWVudCBpZD0iYTk5N2EwODAtNWY1OC00ZDA0LWFhYjktYmYxNTAzNTZlMzcxIiB5MT0iMzIiIHgyPSIzMiIgZ3JhZGllbnRVbml0cz0idXNlclNwYWNlT25Vc2UiPgogICAgICA8c3RvcCBvZmZzZXQ9IjAuMSIgc3RvcC1jb2xvcj0iIzA4YmRiYSIvPgogICAgICA8c3RvcCBvZmZzZXQ9IjAuOSIgc3RvcC1jb2xvcj0iIzBmNjJmZSIvPgogICAgPC9saW5lYXJHcmFkaWVudD4KICA8L2RlZnM+CiAgPGcgaWQ9ImFlZDBhM2Q1LWY1MzItNGJmYy1iZjU5LWE0ZDIwMGFkZGNjZSIgZGF0YS1uYW1lPSJMYXllciAyIj4KICAgIDxnIGlkPSJhMDk1MDkzMi1lYzAwLTQ2MTEtOWIyMC0xYzFiYTIxYjJjYTUiIGRhdGEtbmFtZT0iQnVpbGQgaWNvbiBoZXJlIj4KICAgICAgPGc+CiAgICAgICAgPGcgbWFzaz0idXJsKCNhZWY0ZDNiMy02Mzk2LTQ4NjYtYjYyMC04ZGY4Y2JlODhkNTApIj4KICAgICAgICAgIDxyZWN0IHdpZHRoPSIzMiIgaGVpZ2h0PSIzMiIgZmlsbD0idXJsKCNhOTk3YTA4MC01ZjU4LTRkMDQtYWFiOS1iZjE1MDM1NmUzNzEpIi8+CiAgICAgICAgPC9nPgogICAgICAgIDxwYXRoIGQ9Ik0yOCwzMEgyM2EyLDIsMCwwLDEtMi0yVjIzYTIsMiwwLDAsMSwyLTJoNWEyLDIsMCwwLDEsMiwydjVBMiwyLDAsMCwxLDI4LDMwWm0tNS03aDBsMCw1aDVWMjNaIiBmaWxsPSIjMDAxZDZjIi8+CiAgICAgICAgPHBhdGggZD0iTTE2LDIzSDExYTIsMiwwLDAsMS0yLTJWMTFhMiwyLDAsMCwxLDItMkgyMWEyLDIsMCwwLDEsMiwydjVIMjFWMTFIMTFWMjFoNVoiIGZpbGw9IiMwMDFkNmMiLz4KICAgICAgPC9nPgogICAgPC9nPgogIDwvZz4KPC9zdmc+Cg==;strokeColor=#4277BB;strokeWidth=2;labelBackgroundColor=none;rounded=0;fillColor=none;labelPosition=right;verticalLabelPosition=middle;verticalAlign=middle;" vertex="1" parent="MeFkD9twAh1RjAJKcWin-1">
            <mxGeometry x="470" y="240" width="60" height="60" as="geometry" />
          </mxCell>
        </UserObject>
        <mxCell id="MeFkD9twAh1RjAJKcWin-18" value="&lt;h5&gt;5&lt;/h5&gt;" style="ellipse;whiteSpace=wrap;html=1;aspect=fixed;" vertex="1" parent="MeFkD9twAh1RjAJKcWin-1">
          <mxGeometry x="595.742492698065" y="416.99862804878046" width="18.77588587206627" height="18.77588587206627" as="geometry" />
        </mxCell>
        <UserObject link="https://cloud.ibm.com/catalog/services/logdnaat" label="&lt;font color=&quot;#000000&quot;&gt;Cloud Activity&lt;br&gt;Tracker&lt;/font&gt;" id="MeFkD9twAh1RjAJKcWin-19">
          <mxCell style="aspect=fixed;perimeter=ellipsePerimeter;html=1;align=center;shadow=0;dashed=0;fontColor=#4277BB;fontSize=12;spacingTop=3;image;image=data:image/svg+xml,PHN2ZyBpZD0iQnVpbGRfaWNvbl9oZXJlIiBkYXRhLW5hbWU9IkJ1aWxkIGljb24gaGVyZSIgeG1sbnM9Imh0dHA6Ly93d3cudzMub3JnLzIwMDAvc3ZnIiB4bWxuczp4bGluaz0iaHR0cDovL3d3dy53My5vcmcvMTk5OS94bGluayIgdmlld0JveD0iMCAwIDMyIDMyIj4KICA8ZGVmcz4KICAgIDxsaW5lYXJHcmFkaWVudCBpZD0ibGluZWFyLWdyYWRpZW50IiB4MT0iOCIgeTE9IjUiIHgyPSIyMSIgeTI9IjUiIGdyYWRpZW50VW5pdHM9InVzZXJTcGFjZU9uVXNlIj4KICAgICAgPHN0b3Agb2Zmc2V0PSIwIiBzdG9wLW9wYWNpdHk9IjAiLz4KICAgICAgPHN0b3Agb2Zmc2V0PSIwLjciLz4KICAgIDwvbGluZWFyR3JhZGllbnQ+CiAgICA8bWFzayBpZD0ibWFzayIgeD0iMCIgeT0iMCIgd2lkdGg9IjMyIiBoZWlnaHQ9IjMyIiBtYXNrVW5pdHM9InVzZXJTcGFjZU9uVXNlIj4KICAgICAgPGc+CiAgICAgICAgPHBhdGggZD0iTTI4LDE2djZINFY2SDIwVjRINEEyLDIsMCwwLDAsMiw2VjIyYTIsMiwwLDAsMCwyLDJoOHY0SDh2MkgyNFYyOEgyMFYyNGg4YTIsMiwwLDAsMCwyLTJWMTZaTTE4LDI4SDE0VjI0aDRaIiBzdHlsZT0iZmlsbDogI2ZmZiIvPgogICAgICAgIDxyZWN0IHg9IjgiIHk9IjMiIHdpZHRoPSIxMyIgaGVpZ2h0PSI0IiBzdHlsZT0iZmlsbDogdXJsKCNsaW5lYXItZ3JhZGllbnQpIi8+CiAgICAgIDwvZz4KICAgIDwvbWFzaz4KICAgIDxsaW5lYXJHcmFkaWVudCBpZD0ibGluZWFyLWdyYWRpZW50LTIiIHgxPSItMzUwMy44MjQiIHkxPSIzMiIgeDI9Ii0zNTMzLjk0MSIgZ3JhZGllbnRUcmFuc2Zvcm09Im1hdHJpeCgxLjA2MywgMCwgMCwgLTEsIDM3NTQuODEzLCAzMikiIGdyYWRpZW50VW5pdHM9InVzZXJTcGFjZU9uVXNlIj4KICAgICAgPHN0b3Agb2Zmc2V0PSIwLjEiIHN0b3AtY29sb3I9IiM0MmJlNjUiLz4KICAgICAgPHN0b3Agb2Zmc2V0PSIwLjkiIHN0b3AtY29sb3I9IiMwMDdkNzkiLz4KICAgIDwvbGluZWFyR3JhZGllbnQ+CiAgPC9kZWZzPgogIDxnPgogICAgPGcgc3R5bGU9Im1hc2s6IHVybCgjbWFzaykiPgogICAgICA8cmVjdCB3aWR0aD0iMzIiIGhlaWdodD0iMzIiIHRyYW5zZm9ybT0idHJhbnNsYXRlKDMyIDMyKSByb3RhdGUoMTgwKSIgc3R5bGU9ImZpbGw6IHVybCgjbGluZWFyLWdyYWRpZW50LTIpIi8+CiAgICA8L2c+CiAgICA8cG9seWdvbiBwb2ludHM9IjIxIDE1IDE2IDEwLjA0IDE3LjU5IDguNDcgMjEgMTEuODUgMjguNDEgNC41IDMwIDYuMDggMjEgMTUiIHN0eWxlPSJmaWxsOiAjMDAxZDZjIi8+CiAgPC9nPgo8L3N2Zz4K;strokeColor=#4277BB;strokeWidth=2;labelBackgroundColor=none;rounded=0;fillColor=#E0E0E0;" vertex="1" parent="MeFkD9twAh1RjAJKcWin-1">
            <mxGeometry x="757.1818546914932" y="259.8048780487805" width="56.3276576161988" height="56.3276576161988" as="geometry" />
          </mxCell>
        </UserObject>
        <mxCell id="MeFkD9twAh1RjAJKcWin-20" style="edgeStyle=orthogonalEdgeStyle;rounded=0;orthogonalLoop=1;jettySize=auto;html=1;entryX=0.5;entryY=1;entryDx=0;entryDy=0;" edge="1" parent="MeFkD9twAh1RjAJKcWin-1">
          <mxGeometry relative="1" as="geometry">
            <Array as="points">
              <mxPoint x="360" y="670" />
              <mxPoint x="360" y="697" />
              <mxPoint x="684" y="697" />
            </Array>
            <mxPoint x="360" y="670" as="sourcePoint" />
            <mxPoint x="684.4460440326338" y="639.7443948458354" as="targetPoint" />
          </mxGeometry>
        </mxCell>
        <mxCell id="MeFkD9twAh1RjAJKcWin-21" value="&lt;h5&gt;6&lt;/h5&gt;" style="ellipse;whiteSpace=wrap;html=1;aspect=fixed;fontStyle=1" vertex="1" parent="MeFkD9twAh1RjAJKcWin-1">
          <mxGeometry x="648.0031325301204" y="572.7384215370456" width="18.77588587206627" height="18.77588587206627" as="geometry" />
        </mxCell>
        <mxCell id="MeFkD9twAh1RjAJKcWin-22" value="&lt;h5&gt;3&lt;/h5&gt;" style="ellipse;whiteSpace=wrap;html=1;aspect=fixed;" vertex="1" parent="MeFkD9twAh1RjAJKcWin-1">
          <mxGeometry x="469.99831325301204" y="544.9289875747813" width="18.77588587206627" height="18.77588587206627" as="geometry" />
        </mxCell>
        <mxCell id="MeFkD9twAh1RjAJKcWin-23" value="&lt;h5&gt;2&lt;/h5&gt;" style="ellipse;whiteSpace=wrap;html=1;aspect=fixed;" vertex="1" parent="MeFkD9twAh1RjAJKcWin-1">
          <mxGeometry x="337.9453012048193" y="544.9289875747813" width="18.77588587206627" height="18.77588587206627" as="geometry" />
        </mxCell>
        <UserObject link="https://cloud.ibm.com/catalog/services/cloud-object-storage" label="&lt;font color=&quot;#000000&quot;&gt;Cloud Object&lt;br&gt;Storage&lt;/font&gt;" id="MeFkD9twAh1RjAJKcWin-24">
          <mxCell style="aspect=fixed;perimeter=ellipsePerimeter;html=1;align=center;shadow=0;dashed=0;fontColor=#4277BB;fontSize=12;spacingTop=3;image;image=data:image/svg+xml,PHN2ZyB4bWxucz0iaHR0cDovL3d3dy53My5vcmcvMjAwMC9zdmciIHhtbG5zOnhsaW5rPSJodHRwOi8vd3d3LnczLm9yZy8xOTk5L3hsaW5rIiB3aWR0aD0iMzIiIGhlaWdodD0iMzIiIHZpZXdCb3g9IjAgMCAzMiAzMiI+PGRlZnM+PHN0eWxlPi5he2ZpbGw6I2ZmZjt9LmJ7ZmlsbDp1cmwoI2EpO30uY3ttYXNrOnVybCgjYik7fS5ke2ZpbGw6dXJsKCNjKTt9LmV7ZmlsbDojMDAxZDZjO308L3N0eWxlPjxsaW5lYXJHcmFkaWVudCBpZD0iYSIgeDE9Ii0zMzEuNSIgeTE9Ii0xMjcuNSIgeDI9Ii0zMjEuNSIgeTI9Ii0xMjcuNSIgZ3JhZGllbnRUcmFuc2Zvcm09InRyYW5zbGF0ZSgzMzUuNSAxNDguNSkiIGdyYWRpZW50VW5pdHM9InVzZXJTcGFjZU9uVXNlIj48c3RvcCBvZmZzZXQ9IjAuMTMiLz48c3RvcCBvZmZzZXQ9IjAuODkiIHN0b3Atb3BhY2l0eT0iMCIvPjwvbGluZWFyR3JhZGllbnQ+PG1hc2sgaWQ9ImIiIHg9IjAiIHk9IjAiIHdpZHRoPSIzMiIgaGVpZ2h0PSIzMiIgbWFza1VuaXRzPSJ1c2VyU3BhY2VPblVzZSI+PGNpcmNsZSBjbGFzcz0iYSIgY3g9IjciIGN5PSIyNSIgcj0iMSIvPjxwYXRoIGNsYXNzPSJhIiBkPSJNMjgsMjBIMjZ2MmgydjZINFYyMmg5Ljk0VjIwSDRhMiwyLDAsMCwwLTIsMnY2YTIsMiwwLDAsMCwyLDJIMjhhMiwyLDAsMCwwLDItMlYyMkEyLDIsMCwwLDAsMjgsMjBaIi8+PHJlY3QgY2xhc3M9ImIiIHg9IjQiIHk9IjE5IiB3aWR0aD0iMTAiIGhlaWdodD0iNCIgdHJhbnNmb3JtPSJ0cmFuc2xhdGUoMTggNDIpIHJvdGF0ZSgxODApIi8+PC9tYXNrPjxsaW5lYXJHcmFkaWVudCBpZD0iYyIgeTE9IjMyIiB4Mj0iMzIiIGdyYWRpZW50VW5pdHM9InVzZXJTcGFjZU9uVXNlIj48c3RvcCBvZmZzZXQ9IjAuMSIgc3RvcC1jb2xvcj0iI2E1NmVmZiIvPjxzdG9wIG9mZnNldD0iMC45IiBzdG9wLWNvbG9yPSIjMGY2MmZlIi8+PC9saW5lYXJHcmFkaWVudD48L2RlZnM+PGcgY2xhc3M9ImMiPjxyZWN0IGNsYXNzPSJkIiB3aWR0aD0iMzIiIGhlaWdodD0iMzIiLz48L2c+PHBhdGggY2xhc3M9ImUiIGQ9Ik0xOCwxMEgxMFYyaDhaTTEyLDhoNFY0SDEyWiIvPjxwYXRoIGNsYXNzPSJlIiBkPSJNMjIsMTRIMTZ2OGg4VjE2aDZWOEgyMlptMCw2SDE4VjE2aDRabTYtMTB2NEgyNFYxMFoiLz48L3N2Zz4=;strokeColor=#4277BB;strokeWidth=2;labelBackgroundColor=none;rounded=0;fillColor=#E0E0E0;" vertex="1" parent="MeFkD9twAh1RjAJKcWin-1">
            <mxGeometry x="656.2831325301204" y="398.85355729406353" width="56.3276576161988" height="56.3276576161988" as="geometry" />
          </mxCell>
        </UserObject>
        <mxCell id="MeFkD9twAh1RjAJKcWin-25" style="edgeStyle=orthogonalEdgeStyle;rounded=0;orthogonalLoop=1;jettySize=auto;html=1;" edge="1" parent="MeFkD9twAh1RjAJKcWin-1">
          <mxGeometry relative="1" as="geometry">
            <mxPoint x="685" y="500" as="sourcePoint" />
            <mxPoint x="684.4460440326338" y="583.4167372296365" as="targetPoint" />
            <Array as="points">
              <mxPoint x="684" y="500" />
            </Array>
          </mxGeometry>
        </mxCell>
        <UserObject label="&lt;font color=&quot;#000000&quot;&gt;Secrets&amp;nbsp;Manager&lt;/font&gt;" id="MeFkD9twAh1RjAJKcWin-26">
          <mxCell style="aspect=fixed;perimeter=ellipsePerimeter;html=1;align=center;shadow=0;dashed=0;fontColor=#4277BB;fontSize=12;spacingTop=3;image;image=data:image/svg+xml,PD94bWwgdmVyc2lvbj0iMS4wIiBlbmNvZGluZz0idXRmLTgiPz4KPCEtLSBHZW5lcmF0b3I6IEFkb2JlIElsbHVzdHJhdG9yIDI2LjMuMSwgU1ZHIEV4cG9ydCBQbHVnLUluIC4gU1ZHIFZlcnNpb246IDYuMDAgQnVpbGQgMCkgIC0tPgo8c3ZnIHZlcnNpb249IjEuMSIgaWQ9IkNsb3VkU2VjcmV0c01hbmFnZXIiIHhtbG5zPSJodHRwOi8vd3d3LnczLm9yZy8yMDAwL3N2ZyIgeG1sbnM6eGxpbms9Imh0dHA6Ly93d3cudzMub3JnLzE5OTkveGxpbmsiCgkgeD0iMHB4IiB5PSIwcHgiIHZpZXdCb3g9IjAgMCAzMiAzMiIgc3R5bGU9ImVuYWJsZS1iYWNrZ3JvdW5kOm5ldyAwIDAgMzIgMzI7IiB4bWw6c3BhY2U9InByZXNlcnZlIj4KPHN0eWxlIHR5cGU9InRleHQvY3NzIj4KCS5zdDB7ZmlsbDojRkZGRkZGO2ZpbHRlcjp1cmwoI0Fkb2JlX09wYWNpdHlNYXNrRmlsdGVyKTt9Cgkuc3Qxe2ZpbGw6dXJsKCNHcmFkaWVudHNfX2JsYWNrX18wMDAwMDAzNDc3MzExNTkxODQ5NTc2MzkxMDAwMDAxNTg5OTYwMjU3OTMzMTIwNTUxMV8pO30KCS5zdDJ7ZmlsbDojRkZGRkZGO30KCS5zdDN7bWFzazp1cmwoI21hc2tfMDAwMDAwMjU0MzM5NTYwODIzNTY0MjM4MzAwMDAwMDczNTI0OTE3MzQyOTYyNDgxOTJfKTt9Cgkuc3Q0e2ZpbGw6dXJsKCNTVkdJRF8xXyk7fQoJLnN0NXtmaWxsOiMwMDFENkM7fQo8L3N0eWxlPgo8ZGVmcz4KCTxmaWx0ZXIgaWQ9IkFkb2JlX09wYWNpdHlNYXNrRmlsdGVyIiBmaWx0ZXJVbml0cz0idXNlclNwYWNlT25Vc2UiIHg9IjAiIHk9IjAiIHdpZHRoPSIzMiIgaGVpZ2h0PSIzMiI+CgkJPGZlQ29sb3JNYXRyaXggIHR5cGU9Im1hdHJpeCIgdmFsdWVzPSIxIDAgMCAwIDAgIDAgMSAwIDAgMCAgMCAwIDEgMCAwICAwIDAgMCAxIDAiLz4KCTwvZmlsdGVyPgo8L2RlZnM+CjxtYXNrIG1hc2tVbml0cz0idXNlclNwYWNlT25Vc2UiIHg9IjAiIHk9IjAiIHdpZHRoPSIzMiIgaGVpZ2h0PSIzMiIgaWQ9Im1hc2tfMDAwMDAwMjU0MzM5NTYwODIzNTY0MjM4MzAwMDAwMDczNTI0OTE3MzQyOTYyNDgxOTJfIj4KCTxwYXRoIGNsYXNzPSJzdDAiIGQ9Ik0xNiwzMEM4LjMsMzAsMiwyMy43LDIsMTZTOC4zLDIsMTYsMnMxNCw2LjMsMTQsMTRTMjMuNywzMCwxNiwzMHogTTE2LDRDOS40LDQsNCw5LjQsNCwxNnM1LjQsMTIsMTIsMTIKCQlzMTItNS40LDEyLTEyUzIyLjYsNCwxNiw0eiIvPgoJCgkJPGxpbmVhckdyYWRpZW50IGlkPSJHcmFkaWVudHNfX2JsYWNrX18wMDAwMDEwOTAyMDI4NTEyNTg3NTg1NjEwMDAwMDAxNDIwNzg2ODc2NTY4Mzk4NjU5MF8iIGdyYWRpZW50VW5pdHM9InVzZXJTcGFjZU9uVXNlIiB4MT0iMTc4MC4zMzAxIiB5MT0iMzgwMS40NDM0IiB4Mj0iMTc5Mi42NzExIiB5Mj0iMzgwMS40NDM0IiBncmFkaWVudFRyYW5zZm9ybT0ibWF0cml4KC0wLjQ2MjIgMS4wNzcgMC42NDYgMC4yNzcyIC0xNjA2LjI1MzEgLTI5NTQuNDQ1OCkiPgoJCTxzdG9wICBvZmZzZXQ9IjAuMTc5IiBzdHlsZT0ic3RvcC1jb2xvcjojMDAwMDAwIi8+CgkJPHN0b3AgIG9mZnNldD0iMC45NjQiIHN0eWxlPSJzdG9wLWNvbG9yOiMwMDAwMDA7c3RvcC1vcGFjaXR5OjAiLz4KCTwvbGluZWFyR3JhZGllbnQ+CgkKCQk8cGF0aCBpZD0iR3JhZGllbnRzX19ibGFja19fMDAwMDAxNjMwNzE5ODIxNjk5MTIyNTk2ODAwMDAwMTAwNDkxODMzNjQzMTgwOTUyODlfIiBzdHlsZT0iZmlsbDp1cmwoI0dyYWRpZW50c19fYmxhY2tfXzAwMDAwMTA5MDIwMjg1MTI1ODc1ODU2MTAwMDAwMDE0MjA3ODY4NzY1NjgzOTg2NTkwXyk7IiBkPSIKCQlNMzEuOCwxNy41bC02LDE0bC05LTMuOWw2LTE0TDMxLjgsMTcuNXoiLz4KCTxwYXRoIGNsYXNzPSJzdDIiIGQ9Ik0yNiwxNWg2djJoLTZWMTV6Ii8+CjwvbWFzaz4KPGcgY2xhc3M9InN0MyI+CgkKCQk8bGluZWFyR3JhZGllbnQgaWQ9IlNWR0lEXzFfIiBncmFkaWVudFVuaXRzPSJ1c2VyU3BhY2VPblVzZSIgeDE9Ii05LjA5NDk0N2UtMTMiIHkxPSItNjIiIHgyPSIzMiIgeTI9Ii0zMCIgZ3JhZGllbnRUcmFuc2Zvcm09Im1hdHJpeCgxIDAgMCAtMSAwIC0zMCkiPgoJCTxzdG9wICBvZmZzZXQ9IjAuMSIgc3R5bGU9InN0b3AtY29sb3I6IzA4QkRCQSIvPgoJCTxzdG9wICBvZmZzZXQ9IjAuOSIgc3R5bGU9InN0b3AtY29sb3I6IzBGNjJGRSIvPgoJPC9saW5lYXJHcmFkaWVudD4KCTxwYXRoIGNsYXNzPSJzdDQiIGQ9Ik0wLDBoMzJ2MzJIMFYweiIvPgo8L2c+CjxwYXRoIGNsYXNzPSJzdDUiIGQ9Ik0yMCwxNmMwLTAuNy0wLjItMS40LTAuNi0ybDMuMy0zLjNsLTEuNC0xLjRMMTgsMTIuNmMtMC42LTAuNC0xLjMtMC42LTItMC42cy0xLjQsMC4yLTIsMC42bC0zLjMtMy4zbC0xLjQsMS40CglsMy4zLDMuM2MtMC40LDAuNi0wLjYsMS4zLTAuNiwyczAuMiwxLjQsMC42LDJsLTMuMywzLjNsMS40LDEuNGwzLjMtMy4zYzAuNiwwLjQsMS4zLDAuNiwyLDAuNmMwLjcsMCwxLjQtMC4yLDItMC42bDMuMywzLjMKCWwxLjQtMS40TDE5LjQsMThDMTkuOCwxNy40LDIwLDE2LjcsMjAsMTZ6IE0xNiwxOGMtMS4xLDAtMi0wLjktMi0yczAuOS0yLDItMnMyLDAuOSwyLDJTMTcuMSwxOCwxNiwxOHoiLz4KPC9zdmc+Cg==;strokeColor=#4277BB;strokeWidth=2;labelBackgroundColor=none;rounded=0" vertex="1" parent="MeFkD9twAh1RjAJKcWin-1">
            <mxGeometry x="330" y="583" width="60" height="60" as="geometry" />
          </mxCell>
        </UserObject>
        <UserObject link="https://cloud.ibm.com/catalog/services/containers-kubernetes" id="MeFkD9twAh1RjAJKcWin-27">
          <mxCell style="aspect=fixed;perimeter=ellipsePerimeter;html=1;align=center;shadow=0;dashed=0;fontColor=#4277BB;fontSize=12;spacingTop=3;image;image=data:image/svg+xml,PHN2ZyB4bWxucz0iaHR0cDovL3d3dy53My5vcmcvMjAwMC9zdmciIHhtbG5zOnhsaW5rPSJodHRwOi8vd3d3LnczLm9yZy8xOTk5L3hsaW5rIiB2aWV3Qm94PSIwIDAgMzIgMzIiPgogIDxkZWZzPgogICAgPHN0eWxlPi5jbHMtMXtmaWxsOiNmZmY7fS5jbHMtMntmaWxsOnVybCgjaWtzLWljb24tbGlnaHQtbGluZWFyLWdyYWRpZW50KTt9LmNscy0ze21hc2s6dXJsKCNpa3MtaWNvbi1saWdodC1tYXNrKTt9LmNscy00e2ZpbGw6dXJsKCNpa3MtaWNvbi1saWdodC1saW5lYXItZ3JhZGllbnQtMik7fS5jbHMtNXtmaWxsOiMwMDFkNmM7fTwvc3R5bGU+CiAgICA8bGluZWFyR3JhZGllbnQgaWQ9Imlrcy1pY29uLWxpZ2h0LWxpbmVhci1ncmFkaWVudCIgeDE9IjI4IiB5MT0iMjIiIHgyPSIyOCIgeTI9IjExIiBncmFkaWVudFVuaXRzPSJ1c2VyU3BhY2VPblVzZSI+CiAgICAgIDxzdG9wIG9mZnNldD0iMCIgc3RvcC1vcGFjaXR5PSIwIi8+CiAgICAgIDxzdG9wIG9mZnNldD0iMC45Ii8+CiAgICA8L2xpbmVhckdyYWRpZW50PgogICAgPG1hc2sgaWQ9Imlrcy1pY29uLWxpZ2h0LW1hc2siIHg9IjAiIHk9IjAiIHdpZHRoPSIzMiIgaGVpZ2h0PSIzMiIgbWFza1VuaXRzPSJ1c2VyU3BhY2VPblVzZSI+CiAgICAgIDxwYXRoIGNsYXNzPSJjbHMtMSIgZD0iTTE2LDMxYS45LjksMCwwLDEtLjUtLjE0bC0xMi03QTEsMSwwLDAsMSwzLDIzVjlhMSwxLDAsMCwxLC41LS44NmwxMi03YTEsMSwwLDAsMSwxLDBsMTIsNy0xLDEuNzJMMTYsMy4xNiw1LDkuNTdWMjIuNDNsMTEsNi40MSwxMS02LjQxVjEyaDJWMjNhMSwxLDAsMCwxLS41Ljg2bC0xMiw3QS45LjksMCwwLDEsMTYsMzFaIi8+CiAgICAgIDxyZWN0IGNsYXNzPSJjbHMtMiIgeD0iMjYiIHk9IjExIiB3aWR0aD0iNCIgaGVpZ2h0PSIxMSIvPgogICAgPC9tYXNrPgogICAgPGxpbmVhckdyYWRpZW50IGlkPSJpa3MtaWNvbi1saWdodC1saW5lYXItZ3JhZGllbnQtMiIgeDE9Ii01ODIzIiB5MT0iLTE5NzkiIHgyPSItNTc5MSIgeTI9Ii0yMDExIiBncmFkaWVudFRyYW5zZm9ybT0ibWF0cml4KDEsIDAsIDAsIC0xLCA1ODIzLCAtMTk3OSkiIGdyYWRpZW50VW5pdHM9InVzZXJTcGFjZU9uVXNlIj4KICAgICAgPHN0b3Agb2Zmc2V0PSIwLjEiIHN0b3AtY29sb3I9IiMzZGRiZDkiLz4KICAgICAgPHN0b3Agb2Zmc2V0PSIwLjkiIHN0b3AtY29sb3I9IiM0NTg5ZmYiLz4KICAgIDwvbGluZWFyR3JhZGllbnQ+CiAgPC9kZWZzPgogIDxnPgogICAgPGcgY2xhc3M9ImNscy0zIj4KICAgICAgPHJlY3QgY2xhc3M9ImNscy00IiB3aWR0aD0iMzIiIGhlaWdodD0iMzIiIHRyYW5zZm9ybT0idHJhbnNsYXRlKDAgMzIpIHJvdGF0ZSgtOTApIi8+CiAgICA8L2c+CiAgICA8Zz4KICAgICAgPHBhdGggY2xhc3M9ImNscy01IiBkPSJNMTYsMjNhMSwxLDAsMCwxLS41MS0uMTRsLTUtM0ExLDEsMCwwLDEsMTAsMTlWMTNhMSwxLDAsMCwxLC40OS0uODZsNS0zYTEsMSwwLDAsMSwxLDBsNSwzQTEsMSwwLDAsMSwyMiwxM3Y2YTEsMSwwLDAsMS0uNDkuODZsLTUsM0ExLDEsMCwwLDEsMTYsMjNabS00LTQuNTcsNCwyLjQsNC0yLjRWMTMuNTdsLTQtMi40LTQsMi40WiIvPgogICAgPC9nPgogIDwvZz4KPC9zdmc+Cg==;strokeColor=#4277BB;strokeWidth=2;labelBackgroundColor=none;rounded=0" vertex="1" parent="MeFkD9twAh1RjAJKcWin-1">
            <mxGeometry x="326.33" y="340" width="42" height="42" as="geometry" />
          </mxCell>
        </UserObject>
        <UserObject label="&lt;font color=&quot;#000000&quot;&gt;Cloudant&lt;/font&gt;" id="MeFkD9twAh1RjAJKcWin-28">
          <mxCell style="aspect=fixed;perimeter=ellipsePerimeter;html=1;align=center;shadow=0;dashed=0;fontColor=#4277BB;fontSize=12;spacingTop=3;image;image=data:image/svg+xml,PHN2ZyBpZD0iQ2xvdWRhbnQiIHhtbG5zPSJodHRwOi8vd3d3LnczLm9yZy8yMDAwL3N2ZyIgeG1sbnM6eGxpbms9Imh0dHA6Ly93d3cudzMub3JnLzE5OTkveGxpbmsiIHZpZXdCb3g9IjAgMCAzMiAzMiI+PGRlZnM+PGxpbmVhckdyYWRpZW50IGlkPSI4dHc2aTE5am9hIiB4MT0iMjAyIiB5MT0iMjQuNSIgeDI9IjIxMCIgeTI9IjI0LjUiIGdyYWRpZW50VHJhbnNmb3JtPSJtYXRyaXgoMSAwIDAgLTEgLTE4NiA0OSkiIGdyYWRpZW50VW5pdHM9InVzZXJTcGFjZU9uVXNlIj48c3RvcCBvZmZzZXQ9IjAiIHN0b3Atb3BhY2l0eT0iMCIvPjxzdG9wIG9mZnNldD0iLjgiLz48L2xpbmVhckdyYWRpZW50PjxsaW5lYXJHcmFkaWVudCBpZD0icGhla29ranJ2YiIgeDE9Ii0zNjgzIiB5MT0iLTcxMTEiIHgyPSItMzY3NSIgeTI9Ii03MTExIiBncmFkaWVudFRyYW5zZm9ybT0ibWF0cml4KDEgMCAwIC0xIDM2OTMgLTcxMDUpIiB4bGluazpocmVmPSIjOHR3NmkxOWpvYSIvPjxsaW5lYXJHcmFkaWVudCBpZD0iaTBocWR3anZnZCIgeDE9IjI3NDIuNTA0IiB5MT0iMzEuNTM4IiB4Mj0iMjcxMS4yODgiIHkyPSIuMzIyIiBncmFkaWVudFRyYW5zZm9ybT0ibWF0cml4KDEgMCAwIC0xIC0yNzEwLjk2NiAzMikiIGdyYWRpZW50VW5pdHM9InVzZXJTcGFjZU9uVXNlIj48c3RvcCBvZmZzZXQ9Ii4xIiBzdG9wLWNvbG9yPSIjMDhiZGJhIi8+PHN0b3Agb2Zmc2V0PSIuOSIgc3RvcC1jb2xvcj0iIzBmNjJmZSIvPjwvbGluZWFyR3JhZGllbnQ+PG1hc2sgaWQ9ImRweHJ6aXNya2MiIHg9IjAiIHk9IjAiIHdpZHRoPSIzMiIgaGVpZ2h0PSIzMiIgbWFza1VuaXRzPSJ1c2VyU3BhY2VPblVzZSI+PHBhdGggZD0iTTQgMTRoMnYtMmE1LjAwNiA1LjAwNiAwIDAgMSA1LTVoNlY1aC02YTcuMDA4IDcuMDA4IDAgMCAwLTcgN3pNMTcgMjZoNGE3LjAwOCA3LjAwOCAwIDAgMCA3LTd2LTJoLTJ2MmE1LjAwNiA1LjAwNiAwIDAgMS01IDVoLTR6IiBzdHlsZT0iZmlsbDojZmZmIi8+PHBhdGggdHJhbnNmb3JtPSJyb3RhdGUoLTE4MCAyMCAyNC41KSIgc3R5bGU9ImZpbGw6dXJsKCM4dHc2aTE5am9hKSIgZD0iTTE2IDIyaDh2NWgtOHoiLz48cGF0aCBzdHlsZT0iZmlsbDp1cmwoI3BoZWtva2pydmIpIiBkPSJNMTAgNGg4djRoLTh6Ii8+PC9tYXNrPjwvZGVmcz48ZyBzdHlsZT0ibWFzazp1cmwoI2RweHJ6aXNya2MpIj48cGF0aCB0cmFuc2Zvcm09InJvdGF0ZSgtMTgwIDE2IDE2KSIgc3R5bGU9ImZpbGw6dXJsKCNpMGhxZHdqdmdkKSIgZD0iTTAgMGgzMnYzMkgweiIvPjwvZz48cGF0aCBkPSJNMjMuOTY5IDJhNS41MjYgNS41MjYgMCAwIDAtNS4yMTcgMy43NjRBNC4yNDggNC4yNDggMCAwIDAgMjAuMjE5IDE0aDcuNjA3YTQuMjQ5IDQuMjQ5IDAgMCAwIDEuMzYtOC4yMzZBNS41MjUgNS41MjUgMCAwIDAgMjMuOTY5IDJ6bS0zLjc1IDEwYTIuMjQ5IDIuMjQ5IDAgMCAxLS40NDktNC40NTNsLjY0My0uMTMxLjEzNS0uNjQyYTMuNSAzLjUgMCAwIDEgNi44NDMgMGwuMTM1LjY0Mi42NDMuMTMxQTIuMjUgMi4yNSAwIDAgMSAyNy44IDEyek05Ljk2OSAxN2gtNmEyIDIgMCAwIDAtMiAydjEwYTIgMiAwIDAgMCAyIDJoNmEyIDIgMCAwIDAgMi0yVjE5YTIgMiAwIDAgMC0yLTJ6bS02IDR2LTJoNnYyem0wIDR2LTJoNnYyem0wIDR2LTJoNnYyeiIgc3R5bGU9ImZpbGw6IzAwMWQ2YyIvPjwvc3ZnPg==;strokeColor=#4277BB;strokeWidth=2;labelBackgroundColor=none;rounded=0" vertex="1" parent="MeFkD9twAh1RjAJKcWin-1">
            <mxGeometry x="754" y="399" width="60" height="60" as="geometry" />
          </mxCell>
        </UserObject>
        <UserObject link="https://cloud.ibm.com/catalog/services/kms" label="&lt;font color=&quot;#000000&quot;&gt;Key Protect&lt;/font&gt;" id="MeFkD9twAh1RjAJKcWin-29">
          <mxCell style="aspect=fixed;perimeter=ellipsePerimeter;html=1;align=left;shadow=0;dashed=0;fontColor=#4277BB;fontSize=12;spacingTop=3;image;image=data:image/svg+xml,PD94bWwgdmVyc2lvbj0iMS4wIiBlbmNvZGluZz0idXRmLTgiPz4KPCEtLSBHZW5lcmF0b3I6IEFkb2JlIElsbHVzdHJhdG9yIDI0LjIuMSwgU1ZHIEV4cG9ydCBQbHVnLUluIC4gU1ZHIFZlcnNpb246IDYuMDAgQnVpbGQgMCkgIC0tPgo8c3ZnIHZlcnNpb249IjEuMSIgaWQ9IkNsb3VkLUtleVByb3RlY3RfbGlnaHRfdGhlbWVfaWNvbiIKCSB4bWxucz0iaHR0cDovL3d3dy53My5vcmcvMjAwMC9zdmciIHhtbG5zOnhsaW5rPSJodHRwOi8vd3d3LnczLm9yZy8xOTk5L3hsaW5rIiB4PSIwcHgiIHk9IjBweCIgdmlld0JveD0iMCAwIDMyIDMyIgoJIHN0eWxlPSJlbmFibGUtYmFja2dyb3VuZDpuZXcgMCAwIDMyIDMyOyIgeG1sOnNwYWNlPSJwcmVzZXJ2ZSI+CjxzdHlsZSB0eXBlPSJ0ZXh0L2NzcyI+Cgkuc3Qwe2ZpbGw6I0ZGRkZGRjtmaWx0ZXI6dXJsKCNBZG9iZV9PcGFjaXR5TWFza0ZpbHRlcik7fQoJLnN0MXtmaWxsOnVybCgjU1ZHSURfMV8pO30KCS5zdDJ7bWFzazp1cmwoI2JfMV8pO30KCS5zdDN7ZmlsbDp1cmwoI1NWR0lEXzJfKTt9Cgkuc3Q0e2ZpbGw6IzAwMUQ2Qzt9Cjwvc3R5bGU+CjxkZWZzPgoJPGZpbHRlciBpZD0iQWRvYmVfT3BhY2l0eU1hc2tGaWx0ZXIiIGZpbHRlclVuaXRzPSJ1c2VyU3BhY2VPblVzZSIgeD0iMCIgeT0iMCIgd2lkdGg9IjMyIiBoZWlnaHQ9IjMyIj4KCQk8ZmVDb2xvck1hdHJpeCAgdHlwZT0ibWF0cml4IiB2YWx1ZXM9IjEgMCAwIDAgMCAgMCAxIDAgMCAwICAwIDAgMSAwIDAgIDAgMCAwIDEgMCIvPgoJPC9maWx0ZXI+CjwvZGVmcz4KPG1hc2sgbWFza1VuaXRzPSJ1c2VyU3BhY2VPblVzZSIgeD0iMCIgeT0iMCIgd2lkdGg9IjMyIiBoZWlnaHQ9IjMyIiBpZD0iYl8xXyI+Cgk8cGF0aCBjbGFzcz0ic3QwIiBkPSJNMjQsNHYxNC4zYzAsMy4yLTEuNyw2LjItNC41LDcuOEwxNSwyOC43bC00LjUtMi42QzcuNywyNC41LDYsMjEuNSw2LDE4LjNWNEgyNCBNMjQsMkg2QzQuOSwyLDQsMi45LDQsNHYxNC4zCgkJYzAsMy45LDIuMSw3LjYsNS41LDkuNUwxNSwzMWw1LjUtMy4yYzMuNC0yLDUuNS01LjYsNS41LTkuNVY0QzI2LDIuOSwyNS4xLDIsMjQsMnoiLz4KCQoJCTxsaW5lYXJHcmFkaWVudCBpZD0iU1ZHSURfMV8iIGdyYWRpZW50VW5pdHM9InVzZXJTcGFjZU9uVXNlIiB4MT0iMTEuNzUiIHkxPSI2LjI1IiB4Mj0iMzMuNzUiIHkyPSIyOC4yNSIgZ3JhZGllbnRUcmFuc2Zvcm09Im1hdHJpeCgxIDAgMCAtMSAwIDM0KSI+CgkJPHN0b3AgIG9mZnNldD0iMC4xMyIgc3R5bGU9InN0b3AtY29sb3I6IzAwMDAwMDtzdG9wLW9wYWNpdHk6MCIvPgoJCTxzdG9wICBvZmZzZXQ9IjAuMzgiIHN0eWxlPSJzdG9wLWNvbG9yOiMwMDAwMDAiLz4KCTwvbGluZWFyR3JhZGllbnQ+Cgk8cG9seWdvbiBjbGFzcz0ic3QxIiBwb2ludHM9IjE1LDMxIDI5LDMxIDI5LDEgMTgsMSAxOCw3IDE1LDcgCSIvPgo8L21hc2s+CjxnIGNsYXNzPSJzdDIiPgoJCgkJPGxpbmVhckdyYWRpZW50IGlkPSJTVkdJRF8yXyIgZ3JhZGllbnRVbml0cz0idXNlclNwYWNlT25Vc2UiIHgxPSItMS44MTg5ODllLTEyIiB5MT0iMiIgeDI9IjMyIiB5Mj0iMzQiIGdyYWRpZW50VHJhbnNmb3JtPSJtYXRyaXgoMSAwIDAgLTEgMCAzNCkiPgoJCTxzdG9wICBvZmZzZXQ9IjAuMSIgc3R5bGU9InN0b3AtY29sb3I6I0E1NkVGRiIvPgoJCTxzdG9wICBvZmZzZXQ9IjAuOSIgc3R5bGU9InN0b3AtY29sb3I6IzBGNjJGRSIvPgoJPC9saW5lYXJHcmFkaWVudD4KCTxyZWN0IGNsYXNzPSJzdDMiIHdpZHRoPSIzMiIgaGVpZ2h0PSIzMiIvPgo8L2c+CjxwYXRoIGNsYXNzPSJzdDQiIGQ9Ik0yNiwxNC4xVjJoLTV2MmgzdjJoLTN2MmgzdjYuMWMtMi4xLDAuNi0zLjQsMi43LTIuOSw0LjljMC42LDIuMSwyLjcsMy40LDQuOSwyLjljMi4xLTAuNiwzLjQtMi43LDIuOS00LjkKCUMyOC41LDE1LjYsMjcuNCwxNC41LDI2LDE0LjF6IE0yNSwyMGMtMS4xLDAtMi0wLjktMi0yczAuOS0yLDItMnMyLDAuOSwyLDJTMjYuMSwyMCwyNSwyMHoiLz4KPC9zdmc+Cg==;strokeColor=#4277BB;strokeWidth=2;labelBackgroundColor=none;rounded=0;labelPosition=right;verticalLabelPosition=middle;verticalAlign=middle;" vertex="1" parent="MeFkD9twAh1RjAJKcWin-1">
            <mxGeometry x="656.28" y="583" width="60" height="60" as="geometry" />
          </mxCell>
        </UserObject>
        <mxCell id="MeFkD9twAh1RjAJKcWin-30" style="edgeStyle=orthogonalEdgeStyle;rounded=0;orthogonalLoop=1;jettySize=auto;html=1;fontColor=#000000;startArrow=classic;startFill=1;endArrow=none;endFill=0;exitX=0.5;exitY=0;exitDx=0;exitDy=0;" edge="1" parent="MeFkD9twAh1RjAJKcWin-1" source="MeFkD9twAh1RjAJKcWin-36" target="MeFkD9twAh1RjAJKcWin-26">
          <mxGeometry relative="1" as="geometry">
            <Array as="points">
              <mxPoint x="212" y="630" />
            </Array>
            <mxPoint x="190.0999999999999" y="730" as="sourcePoint" />
            <mxPoint x="332" y="628" as="targetPoint" />
          </mxGeometry>
        </mxCell>
        <mxCell id="MeFkD9twAh1RjAJKcWin-31" value="" style="sketch=0;html=1;aspect=fixed;strokeColor=none;shadow=0;align=center;verticalAlign=top;fillColor=#3B8DF1;shape=mxgraph.gcp2.lock;fontColor=#000000;" vertex="1" parent="MeFkD9twAh1RjAJKcWin-1">
          <mxGeometry x="61.45" y="579" width="35.1" height="45" as="geometry" />
        </mxCell>
        <mxCell id="MeFkD9twAh1RjAJKcWin-32" value="Let&#39;s Encrypt" style="text;html=1;align=center;verticalAlign=middle;resizable=0;points=[];autosize=1;strokeColor=none;fillColor=none;fontColor=#000000;" vertex="1" parent="MeFkD9twAh1RjAJKcWin-1">
          <mxGeometry x="36.5" y="630" width="90" height="30" as="geometry" />
        </mxCell>
        <mxCell id="MeFkD9twAh1RjAJKcWin-33" value="" style="endArrow=classic;html=1;rounded=0;entryX=0.5;entryY=0;entryDx=0;entryDy=0;" edge="1" parent="MeFkD9twAh1RjAJKcWin-1" source="MeFkD9twAh1RjAJKcWin-9">
          <mxGeometry width="50" height="50" relative="1" as="geometry">
            <mxPoint x="630" y="590" as="sourcePoint" />
            <mxPoint x="501.8321420611114" y="573.6767372296365" as="targetPoint" />
          </mxGeometry>
        </mxCell>
        <mxCell id="MeFkD9twAh1RjAJKcWin-34" value="" style="endArrow=classic;html=1;rounded=0;exitX=0.994;exitY=0.387;exitDx=0;exitDy=0;entryX=0.049;entryY=0.4;entryDx=0;entryDy=0;entryPerimeter=0;exitPerimeter=0;" edge="1" parent="MeFkD9twAh1RjAJKcWin-1" source="MeFkD9twAh1RjAJKcWin-35" target="MeFkD9twAh1RjAJKcWin-29">
          <mxGeometry width="50" height="50" relative="1" as="geometry">
            <mxPoint x="529.9959708692127" y="601.8405660377359" as="sourcePoint" />
            <mxPoint x="640" y="540" as="targetPoint" />
          </mxGeometry>
        </mxCell>
        <mxCell id="MeFkD9twAh1RjAJKcWin-35" value="App ID" style="editable=1;moveable=0;rounded=0;shape=image;verticalLabelPosition=bottom;labelBackgroundColor=default;verticalAlign=top;aspect=fixed;imageAspect=0;image=data:image/svg+xml,PHN2ZyBpZD0iQ2xvdWRBcHBJRCIgeG1sbnM9Imh0dHA6Ly93d3cudzMub3JnLzIwMDAvc3ZnIiB2aWV3Qm94PSIwIDAgMzIgMzIiPjxkZWZzPjxsaW5lYXJHcmFkaWVudCBpZD0ibXptbzMxdHIyYSIgeDE9IjcyMi43NSIgeTE9Ii0yMy4yNSIgeDI9IjcwNy4yNSIgeTI9Ii03Ljc1IiBncmFkaWVudFRyYW5zZm9ybT0idHJhbnNsYXRlKC02OTAgMzkpIiBncmFkaWVudFVuaXRzPSJ1c2VyU3BhY2VPblVzZSI+PHN0b3Agb2Zmc2V0PSIuMjYzIiBzdG9wLW9wYWNpdHk9IjAiLz48c3RvcCBvZmZzZXQ9Ii44MiIvPjwvbGluZWFyR3JhZGllbnQ+PGxpbmVhckdyYWRpZW50IGlkPSJxNnppdmxxcWdiIiB4MT0iLTU1Ni41IiB5MT0iLTMzMS41IiB4Mj0iLTU1Ni41IiB5Mj0iLTMwNi41IiBncmFkaWVudFRyYW5zZm9ybT0idHJhbnNsYXRlKDU3MSAzMjcpIiBncmFkaWVudFVuaXRzPSJ1c2VyU3BhY2VPblVzZSI+PHN0b3Agb2Zmc2V0PSIuMTE5IiBzdG9wLW9wYWNpdHk9IjAiLz48c3RvcCBvZmZzZXQ9Ii41MjYiLz48L2xpbmVhckdyYWRpZW50PjxsaW5lYXJHcmFkaWVudCBpZD0iYmRoYjhjOXFvZCIgeDE9IjAiIHkxPSIzMiIgeDI9IjMyIiB5Mj0iMCIgZ3JhZGllbnRVbml0cz0idXNlclNwYWNlT25Vc2UiPjxzdG9wIG9mZnNldD0iLjEiIHN0b3AtY29sb3I9IiMwOGJkYmEiLz48c3RvcCBvZmZzZXQ9Ii45IiBzdG9wLWNvbG9yPSIjMGY2MmZlIi8+PC9saW5lYXJHcmFkaWVudD48bWFzayBpZD0iaWM0dnV6NWo3YyIgeD0iMiIgeT0iMCIgd2lkdGg9IjMxIiBoZWlnaHQ9IjMxIiBtYXNrVW5pdHM9InVzZXJTcGFjZU9uVXNlIj48Y2lyY2xlIGN4PSIxNyIgY3k9IjE2IiByPSIxMyIgc3R5bGU9ImZpbGw6bm9uZTtzdHJva2U6I2ZmZjtzdHJva2UtbWl0ZXJsaW1pdDoxMDtzdHJva2Utd2lkdGg6MnB4Ii8+PHBhdGggdHJhbnNmb3JtPSJyb3RhdGUoMTgwIDI1IDIzLjUpIiBzdHlsZT0iZmlsbDp1cmwoI216bW8zMXRyMmEpIiBkPSJNMTcgMTZoMTZ2MTVIMTd6Ii8+PHBhdGggdHJhbnNmb3JtPSJyb3RhdGUoOTAgMTQuNSA4KSIgc3R5bGU9ImZpbGw6dXJsKCNxNnppdmxxcWdiKSIgZD0iTTYuNS00LjVoMTZ2MjVoLTE2eiIvPjwvbWFzaz48L2RlZnM+PGcgc3R5bGU9Im1hc2s6dXJsKCNpYzR2dXo1ajdjKSI+PHBhdGggc3R5bGU9ImZpbGw6dXJsKCNiZGhiOGM5cW9kKSIgZD0iTTAgMGgzMnYzMkgweiIvPjwvZz48cGF0aCBkPSJNMjAgMThoLTZhMyAzIDAgMCAwLTMgM3YyaDJ2LTJhMSAxIDAgMCAxIDEtMWg2YTEgMSAwIDAgMSAxIDF2Mmgydi0yYTMgMyAwIDAgMC0zLTN6TTE3IDE3YTQgNCAwIDEgMCAwLTggNCA0IDAgMCAwIDAgOHptMC02YTIgMiAwIDEgMSAuMDAxIDMuOTk5QTIgMiAwIDAgMSAxNyAxMXpNNiAxNGwtMi4xMzktMS4wMTNBNS4wMjIgNS4wMjIgMCAwIDEgMSA4LjQ2N1YyaDEwdjYuNDY4YTUuMDIzIDUuMDIzIDAgMCAxLTIuODYxIDQuNTJMNiAxNC4wMDF6TTMgNHY0LjQ2OGMwIDEuMTUzLjY3NCAyLjIxOCAxLjcxNyAyLjcxMUw2IDExLjc4NmwxLjI4My0uNjA3QTMuMDEyIDMuMDEyIDAgMCAwIDkgOC40NjhWNEgzeiIgc3R5bGU9ImZpbGw6IzAwMWQ2YyIvPjwvc3ZnPg==;imageBorder=none;perimeterSpacing=0;imageBackground=none;sketch=0;connectable=1;allowArrows=0;movable=1;resizable=1;rotatable=1;deletable=1;locked=0;" vertex="1" parent="MeFkD9twAh1RjAJKcWin-1">
          <mxGeometry x="470" y="583" width="62" height="62" as="geometry" />
        </mxCell>
        <mxCell id="MeFkD9twAh1RjAJKcWin-36" value="Internet Services" style="editable=1;moveable=0;rounded=0;shape=image;verticalLabelPosition=bottom;labelBackgroundColor=default;verticalAlign=top;aspect=fixed;imageAspect=0;image=data:image/svg+xml,PD94bWwgdmVyc2lvbj0iMS4wIiBlbmNvZGluZz0idXRmLTgiPz4KPCEtLSBHZW5lcmF0b3I6IEFkb2JlIElsbHVzdHJhdG9yIDI0LjAuMCwgU1ZHIEV4cG9ydCBQbHVnLUluIC4gU1ZHIFZlcnNpb246IDYuMDAgQnVpbGQgMCkgIC0tPgo8c3ZnIHZlcnNpb249IjEuMSIgaWQ9IkNsb3VkLUludGVybmV0LVNlcnZpY2VzIiB4bWxucz0iaHR0cDovL3d3dy53My5vcmcvMjAwMC9zdmciIHhtbG5zOnhsaW5rPSJodHRwOi8vd3d3LnczLm9yZy8xOTk5L3hsaW5rIgoJIHg9IjBweCIgeT0iMHB4IiB2aWV3Qm94PSIwIDAgMzIgMzIiIHN0eWxlPSJlbmFibGUtYmFja2dyb3VuZDpuZXcgMCAwIDMyIDMyOyIgeG1sOnNwYWNlPSJwcmVzZXJ2ZSI+CjxzdHlsZSB0eXBlPSJ0ZXh0L2NzcyI+Cgkuc3Qwe2ZpbGw6dXJsKCNDbG91ZF8xXyk7fQoJLnN0MXtmaWxsOnVybCgjRmFkZV8xXyk7fQoJLnN0MntmaWxsOiMwMDFENkM7fQo8L3N0eWxlPgo8bGluZWFyR3JhZGllbnQgaWQ9IkNsb3VkXzFfIiBncmFkaWVudFVuaXRzPSJ1c2VyU3BhY2VPblVzZSIgeDE9IjUuNDA2NyIgeTE9IjI3LjAxOTMiIHgyPSIyNC43ODEiIHkyPSI3LjY0NDkiPgoJPHN0b3AgIG9mZnNldD0iMCIgc3R5bGU9InN0b3AtY29sb3I6IzA4QkRCQSIvPgoJPHN0b3AgIG9mZnNldD0iMSIgc3R5bGU9InN0b3AtY29sb3I6IzBGNjJGRSIvPgo8L2xpbmVhckdyYWRpZW50Pgo8cGF0aCBpZD0iQ2xvdWQiIGNsYXNzPSJzdDAiIGQ9Ik0yMSwyNUg4LjVjLTMsMC01LjUtMi41LTUuNS01LjVjMC0yLjcsMS45LTQuOSw0LjUtNS40bDEuMy0wLjJsMC4zLTEuM0M5LjksOC43LDEzLjIsNiwxNyw2CgljMC41LDAsMSwwLDEuNSwwLjFjMS42LDAuMywzLDEuMSw0LjIsMi4ybDEuNC0xLjRjLTEuNC0xLjQtMy4yLTIuNC01LjItMi43QzE4LjMsNC4xLDE3LjYsNCwxNyw0Yy00LjcsMC04LjksMy4zLTkuOCw4LjEKCUMzLjYsMTIuOCwxLDE1LjksMSwxOS41QzEsMjMuNiw0LjMsMjcsOC41LDI3SDIxVjI1eiIvPgo8bGluZWFyR3JhZGllbnQgaWQ9IkZhZGVfMV8iIGdyYWRpZW50VW5pdHM9InVzZXJTcGFjZU9uVXNlIiB4MT0iLTM1MCIgeTE9Ii0xMzgiIHgyPSItMzM2IiB5Mj0iLTEzOCIgZ3JhZGllbnRUcmFuc2Zvcm09Im1hdHJpeCgtMSAwIDAgLTEgLTMyOCAtMTEyKSI+Cgk8c3RvcCAgb2Zmc2V0PSIwLjEiIHN0eWxlPSJzdG9wLWNvbG9yOiNGRkZGRkYiLz4KCTxzdG9wICBvZmZzZXQ9IjEiIHN0eWxlPSJzdG9wLWNvbG9yOiNGRkZGRkY7c3RvcC1vcGFjaXR5OjAiLz4KPC9saW5lYXJHcmFkaWVudD4KPHBvbHlnb24gaWQ9IkZhZGUiIGNsYXNzPSJzdDEiIHBvaW50cz0iOCwyNCAyMiwyNCAyMiwyOCA4LDI4ICIvPgo8cGF0aCBpZD0iTm9kZXMiIGNsYXNzPSJzdDIiIGQ9Ik0yNywyMmMtMC43LDAtMS40LDAuMy0xLjksMC43bC01LjItMy4xYzAtMC4yLDAuMS0wLjQsMC4xLTAuNnMwLTAuNC0wLjEtMC42bDUuMi0zLjEKCWMwLjUsMC40LDEuMiwwLjcsMS45LDAuN2MxLjcsMCwzLTEuMywzLTNzLTEuMy0zLTMtM3MtMywxLjMtMywzYzAsMC4yLDAsMC40LDAuMSwwLjZsLTUuMiwzLjFDMTguNCwxNi4zLDE3LjcsMTYsMTcsMTYKCWMtMS43LDAtMywxLjMtMywzczEuMywzLDMsM2MwLjcsMCwxLjQtMC4zLDEuOS0wLjdsNS4yLDMuMWMwLDAuMi0wLjEsMC40LTAuMSwwLjZjMCwxLjcsMS4zLDMsMywzczMtMS4zLDMtM1MyOC43LDIyLDI3LDIyeiBNMjcsMTIKCWMwLjYsMCwxLDAuNCwxLDFzLTAuNCwxLTEsMXMtMS0wLjQtMS0xUzI2LjQsMTIsMjcsMTJ6IE0xNywyMGMtMC42LDAtMS0wLjQtMS0xczAuNC0xLDEtMXMxLDAuNCwxLDFTMTcuNiwyMCwxNywyMHogTTI3LDI2CgljLTAuNiwwLTEtMC40LTEtMXMwLjQtMSwxLTFzMSwwLjQsMSwxUzI3LjYsMjYsMjcsMjZ6Ii8+Cjwvc3ZnPgo=;imageBorder=none;perimeterSpacing=0;imageBackground=none;sketch=0;connectable=1;allowArrows=0;movable=1;resizable=1;rotatable=1;deletable=1;locked=0;" vertex="1" parent="MeFkD9twAh1RjAJKcWin-1">
          <mxGeometry x="180" y="730" width="64" height="64" as="geometry" />
        </mxCell>
        <mxCell id="MeFkD9twAh1RjAJKcWin-37" value="" style="endArrow=classic;html=1;rounded=0;entryX=0.687;entryY=0.661;entryDx=0;entryDy=0;entryPerimeter=0;exitX=0.01;exitY=0.427;exitDx=0;exitDy=0;exitPerimeter=0;" edge="1" parent="MeFkD9twAh1RjAJKcWin-1" source="MeFkD9twAh1RjAJKcWin-26" target="MeFkD9twAh1RjAJKcWin-2">
          <mxGeometry width="50" height="50" relative="1" as="geometry">
            <mxPoint x="410" y="660" as="sourcePoint" />
            <mxPoint x="460" y="610" as="targetPoint" />
          </mxGeometry>
        </mxCell>
        <mxCell id="MeFkD9twAh1RjAJKcWin-38" value="" style="endArrow=classic;html=1;rounded=0;exitX=1;exitY=0.5;exitDx=0;exitDy=0;entryX=-0.062;entryY=0.727;entryDx=0;entryDy=0;entryPerimeter=0;" edge="1" parent="MeFkD9twAh1RjAJKcWin-1" source="MeFkD9twAh1RjAJKcWin-9" target="MeFkD9twAh1RjAJKcWin-24">
          <mxGeometry width="50" height="50" relative="1" as="geometry">
            <mxPoint x="630" y="440" as="sourcePoint" />
            <mxPoint x="680" y="390" as="targetPoint" />
          </mxGeometry>
        </mxCell>
        <mxCell id="NZFbSiaEXF1EnLupLYpj-4" value="" style="rounded=0;whiteSpace=wrap;html=1;fillColor=none;strokeWidth=3;strokeColor=#3333FF;dashed=1;" vertex="1" parent="MeFkD9twAh1RjAJKcWin-1">
          <mxGeometry x="310" y="320" width="260" height="217" as="geometry" />
        </mxCell>
        <mxCell id="NZFbSiaEXF1EnLupLYpj-5" value="" style="rounded=0;whiteSpace=wrap;html=1;fillColor=none;strokeWidth=3;strokeColor=#3333FF;fontColor=#FF0000;dashed=1;" vertex="1" parent="MeFkD9twAh1RjAJKcWin-1">
          <mxGeometry x="462" y="240" width="130" height="80" as="geometry" />
        </mxCell>
        <mxCell id="NZFbSiaEXF1EnLupLYpj-6" value="" style="rounded=0;whiteSpace=wrap;html=1;fillColor=none;strokeWidth=3;strokeColor=#3333FF;dashed=1;" vertex="1" parent="MeFkD9twAh1RjAJKcWin-1">
          <mxGeometry x="642" y="390" width="90" height="110" as="geometry" />
        </mxCell>
        <mxCell id="NZFbSiaEXF1EnLupLYpj-7" value="" style="rounded=0;whiteSpace=wrap;html=1;fillColor=none;strokeWidth=3;strokeColor=#3333FF;dashed=1;" vertex="1" parent="MeFkD9twAh1RjAJKcWin-1">
          <mxGeometry x="642" y="560" width="150" height="110" as="geometry" />
        </mxCell>
      </root>
    </mxGraphModel>
  </diagram>
  <diagram id="Tp3NZj7WKYAujqtNAoIM" name="Diagram">
    <mxGraphModel dx="1569" dy="1027" grid="1" gridSize="10" guides="1" tooltips="1" connect="1" arrows="1" fold="1" page="1" pageScale="1" pageWidth="827" pageHeight="1169" math="0" shadow="0">
      <root>
        <mxCell id="btdG8k1_Mba0kDSIN3Nh-0" />
        <mxCell id="btdG8k1_Mba0kDSIN3Nh-1" parent="btdG8k1_Mba0kDSIN3Nh-0" />
        <mxCell id="btdG8k1_Mba0kDSIN3Nh-2" value="Public Network" style="shape=mxgraph.ibm.box;prType=public;fontStyle=0;verticalAlign=top;align=left;spacingLeft=32;spacingTop=4;fillColor=none;rounded=0;whiteSpace=wrap;html=1;strokeColor=#4376BB;strokeWidth=3;dashed=0;container=1;spacing=-4;collapsible=0;" parent="btdG8k1_Mba0kDSIN3Nh-1" vertex="1">
          <mxGeometry x="12" y="200" width="139" height="577" as="geometry" />
        </mxCell>
        <mxCell id="btdG8k1_Mba0kDSIN3Nh-3" value="IBM Cloud" style="shape=mxgraph.ibm.box;prType=cloud;fontStyle=0;verticalAlign=top;align=left;spacingLeft=32;spacingTop=4;fillColor=none;rounded=0;whiteSpace=wrap;html=1;strokeColor=#4376BB;strokeWidth=3;dashed=0;container=0;spacing=-4;collapsible=0;" parent="btdG8k1_Mba0kDSIN3Nh-1" vertex="1">
          <mxGeometry x="151" y="200" width="727" height="577" as="geometry" />
        </mxCell>
        <mxCell id="btdG8k1_Mba0kDSIN3Nh-4" value="Region" style="shape=mxgraph.ibm.box;prType=region;fontStyle=0;verticalAlign=top;align=left;spacingLeft=32;spacingTop=4;fillColor=none;rounded=0;whiteSpace=wrap;html=1;strokeColor=#919191;strokeWidth=2;dashed=0;container=1;spacing=-4;collapsible=0;" parent="btdG8k1_Mba0kDSIN3Nh-1" vertex="1">
          <mxGeometry x="178" y="237" width="670" height="510" as="geometry" />
        </mxCell>
        <mxCell id="btdG8k1_Mba0kDSIN3Nh-6" value="&lt;h5&gt;5&lt;/h5&gt;" style="ellipse;whiteSpace=wrap;html=1;aspect=fixed;" parent="btdG8k1_Mba0kDSIN3Nh-4" vertex="1">
          <mxGeometry x="417.74249269806495" y="179.9986280487805" width="18.77588587206627" height="18.77588587206627" as="geometry" />
        </mxCell>
        <mxCell id="btdG8k1_Mba0kDSIN3Nh-8" value="&lt;font color=&quot;#000000&quot;&gt;Key Protect&lt;/font&gt;" style="aspect=fixed;perimeter=ellipsePerimeter;html=1;align=left;shadow=0;dashed=0;fontColor=#4277BB;fontSize=12;spacingTop=3;image;image=data:image/png,iVBORw0KGgoAAAANSUhEUgAAAGgAAABoCAYAAAAdHLWhAAAOg0lEQVR4Ae3BD1BUh4HA4R9vH8LKug+BCBhkjQI2ycFyTZrbVDYxpFO8WaF3QWY8JZK2F7mZJXdnKzgjF4eOwoyY1Mwd2xnMtMkixmlW2jmBuTWTos1iw5l06i7XWEGasCHiGlzdhXX5qydzw4znuEAa2X3P4fuibt3GItkSWCRrAotkTWCRrIko3OjkMB8PvkPPtdNcCfQQo9KQLj3Jt1K3kq59AqUTUTBP4AK/uvBjfGODzBibGqHXe5pe72lMGTVkP1SIkgkoWHtfDb6xQUJpv1iD2/97lExAoXq8p7kS6GEuHw2+g5IJKNSVwAXmo9d7GiUTWCRrAg+4GJUGJRNQqMyEDcxHVsIGlExAoZLj1pH90CZmE6PSkLeqHCUTUbDnV+9iWveXbdxNiknlhXWvI8Ws5Kty+oLER6vQLV1CpIlEUP+Ncfad9+DyBXH5RjEmxfFskoaKjCTio1XMJVZchinjJ2SvKKLHe4orgR6kmFTSpSfJXL6BWHEZ83V9Yopdrku0DvrxTUwxTYpW8craJCoykoiPVhEJIhFyxH2NXa5L+CammOEYCuAYCtDkvobNoEMvqZmPdO0TpGuf4C91fWKK7zr6cPlGuZNvYor9f/JwYtDHe8a1xEerCDeBCOi/Mc4u1yV8E1Pci/vGOCVd/YRLSddnuHyjhOLyjbL/vIdIEIiAfec9+CammI37xjhH3NdYaP03xnEMBZjLEfc1IkEgAj4YCjAfJy75WGgfDAWYD9/EFB8MjRBuAhHgvjHOfFyfmGKhXR+fQs4EIiBHimU+dEuXsND08bHMV46kJtwEIqAoVWI+ilZKLLRnkjSkL13CXIxJccRHqwg3gQioyEhCilYxG2NSHEWpWsLhtZyVzEaKVvFazkoiQSAC4qNVvGdcQ/rSJdyLMSkOm2E14VKUquVdw2qkaBV3S1+6hPeMa9BLaiJBJEL0kpqz+Zkc6b/GB0MjXJ+YQrd0Cc8+pOHF9OWEW1GqlqJNj3Ni0I/repBpOfFqilK1RJJIBMVHq3glI4lXMpKQi6JULUWpWuRCYJGsCSySNZEHQOfAYbqvtOIbu0SsuIzM5RvIW1WOFJOK0oko2NjUCO/8cQeewAVmjE4O0/1lK73XTrP1scOsiMtCyQQU7P1PX8MTuMC9jE4O884nOxibGkHJBBTKNzZI95etzGZ0cpjuK60omYBC+cYuMR893lMomYCCBIJjfB2tnU76L19FSQQUotbazhM/2McMKWYl85EuPcmM7r4BDC/XUWttxzcSRAlEZK6100mVxYbb42Wa2+MlPTkBKSaVrIQN9HhPE0qsuIzshwqZ0XrGiT8QpM7aTrP9Q6rLNlG60YCcCchUIDhG8Z6fsWVvI26PlxnN9g+ZYcr4Cclx6wjl+dW7kGJSmeb2eHFdHGCG2+OlvL6J4j0/IxAcQ64EIswTuEDn5434xga5U5w6hreqv4+kUXOnhpYO3B4v02JUGrY+fpi8VeXEisuYkZWwgR/kHCP7oU3M2HGgibtJGjU1PywiTh3DnQITV+n8vBFP4AKRFnXrNiLAE7hAe18NVwI9zIgVl/Ho8u+x/uFyNOqlTHM4e9m48xB3yslIo+M/KlHHRDMf7/7mI75f+xZ3sx/aiVGfyYyOi7/Ada2J0clhZqyIy8K0tobkuHVEgqrmNsLMN3aJpu6X8I8NcqfJm+NcvuGif/h3ZGr/liXR0ehSEnF7ruK6OMA0oz6Tf9+5lbQVy5mvx9c8TOF6PT3uy7g9XqYZc7OoLjMx4y3XVnqu/xeTN8e5U2DiKueHTrIm/ttoliQRbqqa2wiz9r4artzoIZTAxFVuTalZk/BNpkURxdlP/kzj7u3s2/F3JCdo+aqSE7SUbnyanLVpnP3kU17ZnE9ORhrTfnPx5/RctxPK1K1xvMHPyF5RSLiJRECv9zRz6b52hOf5IdO+861HOX9sP/dDYZ6ewjw9vpEgM7qvHWEubv/vGZ0cJlZcRjgJhFnduw3Mx+jkMIPXv2Ba7JJo7jdJo2aad8TL6OQw8/HTX1kJN5Ewae10UmWxMS4M8HIF85KwLJ6FJsUtY76aT3Zx5NeXqTeXUJinJxxEFpjr4gBVFhsOZy//ZyljoypiYqeYjRSzkhhVHAtNFRWNFLMS39gl5tL/qRbwsmVvI0Z9Jo27t6NLSWQhqWpuYwH4RoL886Fj/Msbx3B7vNxJjL6J7pFhZvO9rDqWx64iHFI1j+O68p/M5uzvUujrjWeG2+PF0nIK38gNnnpsDbFLolkIqprbuM9qre1s3/dzPj7/GffiGYwjI+s6mmUT3Ms3kzfzZOpWwkUbk8LUrQkGhs9xL57BpZxoWcvkpMDdPjr/GW+ecBAbE81Tjz3C/aaquY37yHGuh/L6I4xNTBLK5KTAH11JiMISdOlj3IqaJFZcxpr4b/PCutfJXlFIuK2WnuLRpAJGxq8QmLjK5M1xVFFL+cN/r+bXtlWMjqoIZWxikvc/+oRn9JnoUhK5n0QiZHRUxXv2ZN6zJ7Px2SRqy/+eb6T8NZGUqF7NC+te50+X/4ClpYNftPQRaSIyYP/tEPbfvsmeMhMVxflIGjWRUmttp+F4B/5AEDkQCBOjPpO51FnbMbxcS2unk3BznOvh0X/4N+qs7fgDQWazrcBAuIiESXWZCUmzlCqLDYezl1DcHi9b9jZi1GfSuHs7upRE5tJ/Y5wj/deYkROvpihVy3z0X75KlcVG2xkXc8lem8ZB82aMuVkcPdlFOIiEUU5GGvZDO2m2d1FrbcPt8RKKw9nLY1tfZU+ZiYrifCSNmnvZ5bpEQ98Qd8uRYnnziVXoJTWh1FrbaTjegT8QZDbaODXVL5moKM4n3EQioHSjgcI8PQ0tHdRZ25lNnbWdZvuH1JtLKMzTc6ddrks09A1xLy7fKN91/JkLBd8gPlrFnRznethxoAm3x8tcthUYOGguQdKoiQSRCJE0aqrLTJQWGCg/0ITD2Usobo+XLXsbMeozady9HV1KIv03xmnoG2I2vokp9p/38FrOSqb1X75KlcVG2xkXczHqM6k3l5CTkUYkiUSYLiUR+6GdtHY6qbLYcHu8hOJw9vLY1lfZU2YimP1XzMeJQT+vrllOQ0sHDcc78AeCzEYbp+aguYTSjQbkQEQmCvP0PJObRUNLB3XWdmZTZ21Hm9BJ1NMGbq15hNl8/j8XMLzdjNvjZS7m4ueoLtuEpFEjFyIyImnUVJeZKC0wUH6gCYezl1D8Xh9C+0luPbySm995DrTL+H/8wwjvnyLqi0u4mZ1Rn0m9uYScjDTkRkSGdCmJ2A/tpLXTSZXFhtvjJZSoLy6hsh7llj6bm3/zJNOEc91Enf2YuWjj1Bw0l1C60YBcichYYZ6eZ3KzaGjpoM7azmyinN2ozl+AmBgYHmYu5uLnqC7bhKRRI2ciMidp1FSXmSgtMFB+oAmHs5eQxsdhfJzZGPWZ1JtLyMlIQwlEFEKXkoj90E5aO51UWWy4PV6+ivTkBOrNJRTm6VESEYUpzNPzTG4WDS0dNBzvwB8IMpc9ZSYqivORNGqURkSBJI2a6jITpQUGqiw22s64uBejPpPG3dvRpSSiVAIKpktJ5Jf7/gmjPpO7GfWZ2A/tRJeSiJIJLJI1gUWyJrBI1gQWyZrAIlkTWCRrAotkTWCRrAkskjWBRbImsEjWBBbJmsAiWRMJk+sjQR4EvpEglRYb4SISJlv2NrKtwMBBcwmSRo0SNbR0UPt2O/5AkHARCaOjJ7to7XRS/ZKJiuJ8lMJxrodKy3G6+wYIN5Ew8weC7LYcx3K8g8O7t2PMzUKufCNBKi02jp7sYi7Za9NIT0nkfhO5z4y5Wdh/+q/sONCE2+MlFLfHy8YfvcGm9TnUm0vQpSQiJw0tHdS+3Y4/EGQ22jg11S+ZqCjOZyGILABjbhbnj+2n1tpOw/EO/IEgobSdcfHBuV4qNudTUZyPpFETSY5zPVRajtPdN8BcthUYOGguQdKoWSgiC6i6zERFcT6VFhtHT3YRij8QpM7aTrP9Q+rNJRTm6Qk330iQWmsblpZTzCV7bRoHzZsx5max0EQWmKRRc3j3dl4sMFBpOU533wChuD1etuxtxKjPpN5cQk5GGuHQbO+i0mLDHwgyG22cmuqXTFQU5xMuImFizM2i6809NNu7qLTY8AeChOJw9vL0jjrMxc9RXbYJSaNmIbguDlBlseFw9jKXbQUGDppLkDRqwkkkzEo3GijM01NrbcPScorZWFpOccTexUFzCaUbDdwvvpEgtdY2LC2nmEv22jQOmjdjzM0iEkQiQNKoqTeXYC7Op/xAEw5nL6H4A0HK65toaOngoHkzxtwsvo5mexeVFhv+QJDZaOPUVGzOp7rMRCSJRJAuJRH7oZ20djqpsthwe7yE0t03wMYfvcG2AgPVZSZ0KYl8Fa6LA1RZbDicvcxl0/oc6s0l6FISiTQRGSjM0/NMbhYNLR00HO/AHwgSytGTXbR2OqnYnE91mYm5+EaC1FrbsLScYi7pyQkc3r0dY24WciEiE5JGTXWZidICA1UWG21nXITiDwSps7bTbP+Qw7u3E0qzvYtKiw1/IMhstHFqKjbnU11mQm6ibt2GDDnO9VBpOU533wALadP6HOrNJehSEpEjVc1tyJAuJZF/LDIiadSc/eRTxiYmuZ/SkxP45b5yfry1gHjNUuRKROYqivN5seBpKi02jp7s4uvSxqmp2JxPdZkJJRBRAEmj5vDu7VQU51NlseFw9vKX2LQ+h3pzCbqURJRCREFyMtKwH9pJs72LWmsbbo+X+UhPTqDeXEJhnh6lEVGg0o0GCvP0NLR0UGdtZzZ7ykxUFOcjadQokYhCSRo11WUmSgsMlB9owuHs5U5GfSaNu7ejS0lEyUQUTpeSiP3QThznethxoIlp9eYSCvP0PAhEHhDG3CzOH9vPg0ZgkawJLJI1gUWy9r+/qziOV1CZAgAAAABJRU5ErkJggg==;strokeColor=#4277BB;strokeWidth=2;labelBackgroundColor=none;labelPosition=right;verticalLabelPosition=middle;verticalAlign=middle;" parent="btdG8k1_Mba0kDSIN3Nh-4" vertex="1">
          <mxGeometry x="478.28221522453447" y="346.4167372296365" width="56.3276576161988" height="56.3276576161988" as="geometry" />
        </mxCell>
        <UserObject link="https://cloud.ibm.com/catalog/services/logdnaat" label="&lt;font color=&quot;#000000&quot;&gt;Cloud Activity&lt;br&gt;Tracker&lt;/font&gt;" id="btdG8k1_Mba0kDSIN3Nh-37">
          <mxCell style="aspect=fixed;perimeter=ellipsePerimeter;html=1;align=center;shadow=0;dashed=0;fontColor=#4277BB;fontSize=12;spacingTop=3;image;image=data:image/svg+xml,PHN2ZyBpZD0iQnVpbGRfaWNvbl9oZXJlIiBkYXRhLW5hbWU9IkJ1aWxkIGljb24gaGVyZSIgeG1sbnM9Imh0dHA6Ly93d3cudzMub3JnLzIwMDAvc3ZnIiB4bWxuczp4bGluaz0iaHR0cDovL3d3dy53My5vcmcvMTk5OS94bGluayIgdmlld0JveD0iMCAwIDMyIDMyIj4KICA8ZGVmcz4KICAgIDxsaW5lYXJHcmFkaWVudCBpZD0ibGluZWFyLWdyYWRpZW50IiB4MT0iOCIgeTE9IjUiIHgyPSIyMSIgeTI9IjUiIGdyYWRpZW50VW5pdHM9InVzZXJTcGFjZU9uVXNlIj4KICAgICAgPHN0b3Agb2Zmc2V0PSIwIiBzdG9wLW9wYWNpdHk9IjAiLz4KICAgICAgPHN0b3Agb2Zmc2V0PSIwLjciLz4KICAgIDwvbGluZWFyR3JhZGllbnQ+CiAgICA8bWFzayBpZD0ibWFzayIgeD0iMCIgeT0iMCIgd2lkdGg9IjMyIiBoZWlnaHQ9IjMyIiBtYXNrVW5pdHM9InVzZXJTcGFjZU9uVXNlIj4KICAgICAgPGc+CiAgICAgICAgPHBhdGggZD0iTTI4LDE2djZINFY2SDIwVjRINEEyLDIsMCwwLDAsMiw2VjIyYTIsMiwwLDAsMCwyLDJoOHY0SDh2MkgyNFYyOEgyMFYyNGg4YTIsMiwwLDAsMCwyLTJWMTZaTTE4LDI4SDE0VjI0aDRaIiBzdHlsZT0iZmlsbDogI2ZmZiIvPgogICAgICAgIDxyZWN0IHg9IjgiIHk9IjMiIHdpZHRoPSIxMyIgaGVpZ2h0PSI0IiBzdHlsZT0iZmlsbDogdXJsKCNsaW5lYXItZ3JhZGllbnQpIi8+CiAgICAgIDwvZz4KICAgIDwvbWFzaz4KICAgIDxsaW5lYXJHcmFkaWVudCBpZD0ibGluZWFyLWdyYWRpZW50LTIiIHgxPSItMzUwMy44MjQiIHkxPSIzMiIgeDI9Ii0zNTMzLjk0MSIgZ3JhZGllbnRUcmFuc2Zvcm09Im1hdHJpeCgxLjA2MywgMCwgMCwgLTEsIDM3NTQuODEzLCAzMikiIGdyYWRpZW50VW5pdHM9InVzZXJTcGFjZU9uVXNlIj4KICAgICAgPHN0b3Agb2Zmc2V0PSIwLjEiIHN0b3AtY29sb3I9IiM0MmJlNjUiLz4KICAgICAgPHN0b3Agb2Zmc2V0PSIwLjkiIHN0b3AtY29sb3I9IiMwMDdkNzkiLz4KICAgIDwvbGluZWFyR3JhZGllbnQ+CiAgPC9kZWZzPgogIDxnPgogICAgPGcgc3R5bGU9Im1hc2s6IHVybCgjbWFzaykiPgogICAgICA8cmVjdCB3aWR0aD0iMzIiIGhlaWdodD0iMzIiIHRyYW5zZm9ybT0idHJhbnNsYXRlKDMyIDMyKSByb3RhdGUoMTgwKSIgc3R5bGU9ImZpbGw6IHVybCgjbGluZWFyLWdyYWRpZW50LTIpIi8+CiAgICA8L2c+CiAgICA8cG9seWdvbiBwb2ludHM9IjIxIDE1IDE2IDEwLjA0IDE3LjU5IDguNDcgMjEgMTEuODUgMjguNDEgNC41IDMwIDYuMDggMjEgMTUiIHN0eWxlPSJmaWxsOiAjMDAxZDZjIi8+CiAgPC9nPgo8L3N2Zz4K;strokeColor=#4277BB;strokeWidth=2;labelBackgroundColor=none;rounded=0;fillColor=#E0E0E0;" parent="btdG8k1_Mba0kDSIN3Nh-4" vertex="1">
            <mxGeometry x="579.1818546914932" y="22.804878048780484" width="56.3276576161988" height="56.3276576161988" as="geometry" />
          </mxCell>
        </UserObject>
        <mxCell id="ehTqfr3IvkJxnnnsmbLX-3" style="edgeStyle=orthogonalEdgeStyle;rounded=0;orthogonalLoop=1;jettySize=auto;html=1;" parent="btdG8k1_Mba0kDSIN3Nh-4" edge="1">
          <mxGeometry relative="1" as="geometry">
            <mxPoint x="200" y="382.195283018868" as="sourcePoint" />
            <mxPoint x="490" y="382.195283018868" as="targetPoint" />
          </mxGeometry>
        </mxCell>
        <mxCell id="btdG8k1_Mba0kDSIN3Nh-15" value="&lt;font color=&quot;#000000&quot;&gt;App ID&lt;/font&gt;" style="aspect=fixed;perimeter=ellipsePerimeter;html=1;align=center;shadow=0;dashed=0;fontColor=#4277BB;fontSize=12;spacingTop=3;image;image=data:image/png,iVBORw0KGgoAAAANSUhEUgAAADIAAAAyCAYAAAAeP4ixAAACRklEQVR4Ae3BIW/jZgAA0JfvAgwmzR8LDAwYCCxb9geqwsI78PGNlU2DRUcneaDw4Ekdv8DATBoYOGAYZkOzTZNVRVWl2U7iLor6njdnZuKUimqGOWbIPVdjh1KKOyc2cayiynCFJXL91NhgK8XGCUwco6iusELmMA3WUtw40sQhiirDLeZeKlGitJdhhjnmXirxSYqNA00MVVQz3CK312CDjRQb/6WocixxhczeDg9SbBxgYoiiyvAjMnt/4bMUG0MUVYYbLOzt8CDFxkBTw7xHZu+zFLcOkWKDT4pqiRutGd7jVwO901dRrfCdVoPfpPjVsR7vd67vaiy0vnF9x+N9aYB3+iiqHLf2fpfiV6fyeL9zfVdjoTVzffenx/tGT0E/K3sbKW6dWopbbLQyrAwQdCmqDEutGmvjWaPRWiiqTE9Bt4W9tRQbY0mxwVorw0JPQbeFViPFrfFt7c31FHSbaZVeQ4oNSq2ZnoJuudbO6ym1ZnoK+iu9ntpAE12K6m//rx+kuNYhOH+5HoLzt9RDcP6+1UNw/pZ6CMazxRq148z1MDWOD1J88K+iyvEFS4eZ6yE4va0UHzxJscYvjlFUSx2C06u9VDtOrkNwektFlXtu5ThLHYLTy/HFk6K6wc+Ok+sQjKN2Wt/rEIyjtlc6Xq5DMI4/PElx63hLHYJxbD23NbKpccwV1coxUpwYYGocH72y4EIEFyK4EMF52hooOE8/GWjqvJT4IMW1gaZeU4oTIwkuRHAhggsRXIjgQgRv3oziHxt2josMfeTLAAAAAElFTkSuQmCC;strokeColor=#4277BB;strokeWidth=2;labelBackgroundColor=none;" parent="btdG8k1_Mba0kDSIN3Nh-4" vertex="1">
          <mxGeometry x="154.83831325301205" y="346.4167372296365" width="56.3276576161988" height="56.3276576161988" as="geometry" />
        </mxCell>
        <mxCell id="6D6f7f0n9SPwl_NTl9lL-3" style="edgeStyle=orthogonalEdgeStyle;rounded=0;orthogonalLoop=1;jettySize=auto;html=1;entryX=0.5;entryY=1;entryDx=0;entryDy=0;" parent="btdG8k1_Mba0kDSIN3Nh-4" target="btdG8k1_Mba0kDSIN3Nh-8" edge="1">
          <mxGeometry relative="1" as="geometry">
            <Array as="points">
              <mxPoint x="72" y="460" />
              <mxPoint x="506" y="460" />
            </Array>
            <mxPoint x="72" y="433" as="sourcePoint" />
          </mxGeometry>
        </mxCell>
        <mxCell id="btdG8k1_Mba0kDSIN3Nh-23" value="&lt;font color=&quot;#000000&quot;&gt;Cloudant&lt;/font&gt;" style="aspect=fixed;perimeter=ellipsePerimeter;html=1;align=center;shadow=0;dashed=0;fontColor=#4277BB;labelBackgroundColor=#ffffff;fontSize=12;spacingTop=3;image;image=img/lib/ibm/miscellaneous/cloudant.svg;" parent="btdG8k1_Mba0kDSIN3Nh-4" vertex="1">
          <mxGeometry x="579.1867469879518" y="170.00487804878054" width="56.3276576161988" height="56.3276576161988" as="geometry" />
        </mxCell>
        <mxCell id="btdG8k1_Mba0kDSIN3Nh-28" value="&lt;h5&gt;6&lt;/h5&gt;" style="ellipse;whiteSpace=wrap;html=1;aspect=fixed;fontStyle=1" parent="btdG8k1_Mba0kDSIN3Nh-4" vertex="1">
          <mxGeometry x="470.00313253012047" y="335.7384215370456" width="18.77588587206627" height="18.77588587206627" as="geometry" />
        </mxCell>
        <mxCell id="btdG8k1_Mba0kDSIN3Nh-26" value="&lt;h5&gt;3&lt;/h5&gt;" style="ellipse;whiteSpace=wrap;html=1;aspect=fixed;" parent="btdG8k1_Mba0kDSIN3Nh-4" vertex="1">
          <mxGeometry x="148.32831325301203" y="307.9289875747814" width="18.77588587206627" height="18.77588587206627" as="geometry" />
        </mxCell>
        <mxCell id="btdG8k1_Mba0kDSIN3Nh-25" value="&lt;h5&gt;2&lt;/h5&gt;" style="ellipse;whiteSpace=wrap;html=1;aspect=fixed;" parent="btdG8k1_Mba0kDSIN3Nh-4" vertex="1">
          <mxGeometry x="36.325301204819276" y="307.9289875747814" width="18.77588587206627" height="18.77588587206627" as="geometry" />
        </mxCell>
        <UserObject link="https://cloud.ibm.com/catalog/services/cloud-object-storage" label="&lt;font color=&quot;#000000&quot;&gt;Cloud Object&lt;br&gt;Storage&lt;/font&gt;" id="btdG8k1_Mba0kDSIN3Nh-38">
          <mxCell style="aspect=fixed;perimeter=ellipsePerimeter;html=1;align=center;shadow=0;dashed=0;fontColor=#4277BB;fontSize=12;spacingTop=3;image;image=data:image/svg+xml,PHN2ZyB4bWxucz0iaHR0cDovL3d3dy53My5vcmcvMjAwMC9zdmciIHhtbG5zOnhsaW5rPSJodHRwOi8vd3d3LnczLm9yZy8xOTk5L3hsaW5rIiB3aWR0aD0iMzIiIGhlaWdodD0iMzIiIHZpZXdCb3g9IjAgMCAzMiAzMiI+PGRlZnM+PHN0eWxlPi5he2ZpbGw6I2ZmZjt9LmJ7ZmlsbDp1cmwoI2EpO30uY3ttYXNrOnVybCgjYik7fS5ke2ZpbGw6dXJsKCNjKTt9LmV7ZmlsbDojMDAxZDZjO308L3N0eWxlPjxsaW5lYXJHcmFkaWVudCBpZD0iYSIgeDE9Ii0zMzEuNSIgeTE9Ii0xMjcuNSIgeDI9Ii0zMjEuNSIgeTI9Ii0xMjcuNSIgZ3JhZGllbnRUcmFuc2Zvcm09InRyYW5zbGF0ZSgzMzUuNSAxNDguNSkiIGdyYWRpZW50VW5pdHM9InVzZXJTcGFjZU9uVXNlIj48c3RvcCBvZmZzZXQ9IjAuMTMiLz48c3RvcCBvZmZzZXQ9IjAuODkiIHN0b3Atb3BhY2l0eT0iMCIvPjwvbGluZWFyR3JhZGllbnQ+PG1hc2sgaWQ9ImIiIHg9IjAiIHk9IjAiIHdpZHRoPSIzMiIgaGVpZ2h0PSIzMiIgbWFza1VuaXRzPSJ1c2VyU3BhY2VPblVzZSI+PGNpcmNsZSBjbGFzcz0iYSIgY3g9IjciIGN5PSIyNSIgcj0iMSIvPjxwYXRoIGNsYXNzPSJhIiBkPSJNMjgsMjBIMjZ2MmgydjZINFYyMmg5Ljk0VjIwSDRhMiwyLDAsMCwwLTIsMnY2YTIsMiwwLDAsMCwyLDJIMjhhMiwyLDAsMCwwLDItMlYyMkEyLDIsMCwwLDAsMjgsMjBaIi8+PHJlY3QgY2xhc3M9ImIiIHg9IjQiIHk9IjE5IiB3aWR0aD0iMTAiIGhlaWdodD0iNCIgdHJhbnNmb3JtPSJ0cmFuc2xhdGUoMTggNDIpIHJvdGF0ZSgxODApIi8+PC9tYXNrPjxsaW5lYXJHcmFkaWVudCBpZD0iYyIgeTE9IjMyIiB4Mj0iMzIiIGdyYWRpZW50VW5pdHM9InVzZXJTcGFjZU9uVXNlIj48c3RvcCBvZmZzZXQ9IjAuMSIgc3RvcC1jb2xvcj0iI2E1NmVmZiIvPjxzdG9wIG9mZnNldD0iMC45IiBzdG9wLWNvbG9yPSIjMGY2MmZlIi8+PC9saW5lYXJHcmFkaWVudD48L2RlZnM+PGcgY2xhc3M9ImMiPjxyZWN0IGNsYXNzPSJkIiB3aWR0aD0iMzIiIGhlaWdodD0iMzIiLz48L2c+PHBhdGggY2xhc3M9ImUiIGQ9Ik0xOCwxMEgxMFYyaDhaTTEyLDhoNFY0SDEyWiIvPjxwYXRoIGNsYXNzPSJlIiBkPSJNMjIsMTRIMTZ2OGg4VjE2aDZWOEgyMlptMCw2SDE4VjE2aDRabTYtMTB2NEgyNFYxMFoiLz48L3N2Zz4=;strokeColor=#4277BB;strokeWidth=2;labelBackgroundColor=none;rounded=0;fillColor=#E0E0E0;" parent="btdG8k1_Mba0kDSIN3Nh-4" vertex="1">
            <mxGeometry x="478.28313253012044" y="161.85355729406353" width="56.3276576161988" height="56.3276576161988" as="geometry" />
          </mxCell>
        </UserObject>
        <mxCell id="ehTqfr3IvkJxnnnsmbLX-6" style="edgeStyle=orthogonalEdgeStyle;rounded=0;orthogonalLoop=1;jettySize=auto;html=1;" parent="btdG8k1_Mba0kDSIN3Nh-4" target="btdG8k1_Mba0kDSIN3Nh-8" edge="1">
          <mxGeometry relative="1" as="geometry">
            <mxPoint x="507" y="263" as="sourcePoint" />
          </mxGeometry>
        </mxCell>
        <UserObject link="https://cloud.ibm.com/catalog/services/secrets-manager" label="&lt;font color=&quot;#000000&quot;&gt;Secrets Manager&lt;/font&gt;" id="902QZvOatPAjfdffUH-e-0">
          <mxCell style="aspect=fixed;perimeter=ellipsePerimeter;html=1;align=center;shadow=0;dashed=0;fontColor=#4277BB;fontSize=12;spacingTop=3;image;image=data:image/png,iVBORw0KGgoAAAANSUhEUgAAADIAAAAyCAYAAAAeP4ixAAAFnUlEQVR4Ad3BT2gc1wHA4d+8DMiBRbyaChaiwwNvIQjajC5KD8Y7ezDsLSOUSwy1Vi2FgqAanXTTrnzTSVLBpxC064N7MkzoZUGHHRkfEl08aUHksIZXUGBBRbwKQSSwd5olyIyHXe0fKUXW93FTWPzE3Xz9EnB4f0WCnzm83xzBDSG4IWx6aO094fRIc93cuq3IzjwkzaaL1t4Tvn/6R66z7MxDkgRdnB5prrPTI02a4IYQ3BA2vxDP88jn8ziOg1IKpRQdWmu01kRRxO7uLkEQcBVsrpCUEt/3WVpaQkpJN0oplFK4rovv+xhjqFarbG1tobVmVDYJi/cEuQk4LSxwulKgo1AoMAjf9ymXy0gpGYaUEt/3KZVKbG1tUalUGIVNQm4CnEkLJhWgGISUku3tbTzP4zKklJTLZfL5PLOzsxhjGIbgEqSUNBoNPM+jl5MziA5iooOY6CAmOog5OaMn13VpNBpIKRmGzSU0Gg0cx6Gb+n7MsyimeRjTTW7CYs6xKE5ZpDmOQ6PRoFAoYIxhEIIRbWxs4DgOac3DmC+237C+06Z5GNNL8zBmfafNF9tviA5i0hzHYWNjg0EJRuC6Lr7vk1bfj/nz0zatYwbWOoblZ23q+zFppVIJ13UZhGAE5XKZtBevYtZ32vSTGYPPpy1Kvxdkx3lrfadNfT8mbXt7m0EIhuS6Lq7rktQ6hvWdNv1kxmBjTrB4TzD/qcWXDz4gO85bj5+3aR3zDqUUnufRj03C4+cxmbGY1l6N1t4Tupmfnyet9m2bkzMuZJq75H7zK3IT05zLjEFxSlD9pk3HyRms77TZmBMkzc/PEwQBF7FJaB7GdOh/anQY0o3neSS1jqG+H9OLrj/iYPdvvP7RIF0X/tog6eQsJik6iGkdQ3act1zXpR/BEJRSSClJevEqppfvn/4JXX/E6x8NHWEYEkUR55qHMfX9mLQXr2KSpJQ4jsNFbIaglCLtux9iujHNXVp7NdKmp6dxXZeOpaUl/vEXj0G8fPmSc7VvY6rftEmyGYJSirSTM7r6z7++ppcwDOlQSuF5HldBMASlFIM6+eE7+tFac1UEQ9BaM6jMR5/Qj1KKqyIYgtaatMwYXf36t5/RTz6f56rYDEFrTdonH1m8eBWTJnN5sjPztPZqdJOdmaf23z9Q23pD2uI9wefTFknT09NEUUSHKq6iiqskCYagtcYYQ9LdOxa9fPzgK1RxFftDyTn7Q4kqrvLxg6/o5e4diyRjDFEUcRGbhNyERWYMsr9TqFOXjjAMSQqCgFKpxLnsOBSnLOr7Md2o4iqquIpp7tIhc3ku4kxaZMd5RxiG9GOTsHjPwpm0YG4BWKDDsiySarUapVKJpPlPBS9eveHkjJ5kLk8/mTFYuS9Iq9Vq9CMYUhiGhGFIUnYcVu4LLmvxniA7zju01gRBQD+CEaytrZF2947Fyn3BqFbuC4pTFmkLCwsMQjCCMAzZ3NwkrThl8eUDQXacgWXHYWNOUJyySKtWq4RhyCBsRrS8vIzrujiOQ1JuwuLvCx9Q3495FsU0D2O6yU1YzDkWxSmLbqIoYnl5mUHZXEKhUKDRaOA4DmnFKYvilMXJGTQPY5JyExaZMXqKoohCoYAxhkEJLsEYQ6FQIAgCesmMgTNp4UxaOJMWzqRFZoyewjCkUChgjGEYNgnNQ34Sc3r0b06PNIMwxjA7O4vv+5TLZaSUjMIYw9bWFpVKhVHYJDx+3qZD17fR9UcMY3Nzk2q1iu/7LC0tIaVkEMYYgiBgbW0NrTWjsrlCxhgqlQqVSgXP88jn8ziOg1IKpRQdWmu01kRRxO7uLkEQcBVsfiFBEBAEAf8vghtCcEMIurh1W3Gd3bqtSLPpIjvzkI7TI811c+u2IjvzkDSbHrIzD3mfCG4IwQ0h+FnE+y36H6qyCBNQD4tkAAAAAElFTkSuQmCC;strokeColor=#4277BB;strokeWidth=2;labelBackgroundColor=none;rounded=0" parent="btdG8k1_Mba0kDSIN3Nh-4" vertex="1">
            <mxGeometry x="42" y="348" width="60" height="60" as="geometry" />
          </mxCell>
        </UserObject>
        <mxCell id="btdG8k1_Mba0kDSIN3Nh-10" value="&amp;nbsp; &amp;nbsp; &amp;nbsp; &amp;nbsp; &amp;nbsp; &amp;nbsp;Kubernetes Cluster" style="rounded=1;whiteSpace=wrap;html=1;align=left;verticalAlign=top;fillColor=#f5f5f5;strokeColor=#666666;fontColor=#333333;" parent="btdG8k1_Mba0kDSIN3Nh-1" vertex="1">
          <mxGeometry x="318" y="327" width="241" height="201" as="geometry" />
        </mxCell>
        <mxCell id="btdG8k1_Mba0kDSIN3Nh-11" style="edgeStyle=orthogonalEdgeStyle;rounded=0;orthogonalLoop=1;jettySize=auto;html=1;entryX=0;entryY=0.5;entryDx=0;entryDy=0;" parent="btdG8k1_Mba0kDSIN3Nh-1" source="btdG8k1_Mba0kDSIN3Nh-30" target="btdG8k1_Mba0kDSIN3Nh-20" edge="1">
          <mxGeometry relative="1" as="geometry" />
        </mxCell>
        <mxCell id="btdG8k1_Mba0kDSIN3Nh-12" value="&lt;font color=&quot;#000000&quot;&gt;User&lt;/font&gt;" style="aspect=fixed;perimeter=ellipsePerimeter;html=1;align=center;shadow=0;dashed=0;fontColor=#4277BB;labelBackgroundColor=#ffffff;fontSize=12;spacingTop=3;image;image=img/lib/ibm/users/user.svg;" parent="btdG8k1_Mba0kDSIN3Nh-1" vertex="1">
          <mxGeometry x="49" y="410.5" width="60" height="60" as="geometry" />
        </mxCell>
        <mxCell id="btdG8k1_Mba0kDSIN3Nh-16" style="edgeStyle=orthogonalEdgeStyle;rounded=0;orthogonalLoop=1;jettySize=auto;html=1;exitX=0.5;exitY=1;exitDx=0;exitDy=0;startArrow=none;" parent="btdG8k1_Mba0kDSIN3Nh-1" source="YXqr6sMHjf5vaJmeqWwe-0" target="btdG8k1_Mba0kDSIN3Nh-20" edge="1">
          <mxGeometry relative="1" as="geometry">
            <mxPoint x="501" y="180" as="sourcePoint" />
          </mxGeometry>
        </mxCell>
        <mxCell id="btdG8k1_Mba0kDSIN3Nh-18" value="" style="aspect=fixed;perimeter=ellipsePerimeter;html=1;align=center;shadow=0;dashed=0;fontColor=#4277BB;fontSize=12;spacingTop=3;image;image=data:image/svg+xml,PHN2ZyBkYXRhLW5hbWU9IkxheWVyIDEiIHhtbG5zPSJodHRwOi8vd3d3LnczLm9yZy8yMDAwL3N2ZyIgdmlld0JveD0iMCAwIDE2OTMgMTk5Ni42NiI+PHBhdGggZD0iTTAgNTg0LjQ0YzAgMjYuODYgMTQuNzggNTMuNzMgNDQuMzEgNzQuMTFsNjk0LjcyIDQ3OS40MWM1OS4wOCA0MC43NyAxNTUuNzcgNDAuNzggMjE0Ljg2IDBsNjk0Ljc3LTQ3OS4zNGMyOS41NS0yMC4zOCA0NC4zMi00Ny4yNiA0NC4zMi03NC4xM3Y4MjguMTNjMCAyNi44Ny0xNC43NyA1My43NC00NC4zMiA3NC4xM2wtNjk0Ljc3IDQ3OS4zNGMtNTkuMDkgNDAuNzctMTU1Ljc4IDQwLjc2LTIxNC44NiAwTDQ0LjMxIDE0ODYuNjdDMTQuNzcgMTQ2Ni4yOSAwIDE0MzkuNDIgMCAxNDEyLjU0eiIvPjxwYXRoIGQ9Ik0wIDU4NC40NGMwIDI2Ljg2IDE0Ljc4IDUzLjczIDQ0LjMxIDc0LjExTDUzNyA5OTguNTFsMjAyLjEtMTM5LjQzYzU5LjA5LTQwLjc3IDE1NS43OC00MC43NiAyMTQuODYgMEwxMTU2IDk5OC41M2w0OTIuNjctMzM5LjljMjkuNTUtMjAuMzkgNDQuMzItNDcuMjYgNDQuMzItNzQuMTN2LS4zOGMwLTI2Ljg4LTE0Ljc3LTUzLjc1LTQ0LjMxLTc0LjEzTDk1NCAzMC41OGMtNTkuMTItNDAuNzUtMTU1LjgtNDAuNzUtMjE0Ljg5LS4wMUw0NC4zNCA1MDkuOTFDMTQuNzkgNTMwLjI5IDAgNTU3LjE3IDAgNTg0LjAzdjgxOC4yeiIgZmlsbD0iIzBmNmZmZiIvPjwvc3ZnPg==;strokeColor=#4277BB;strokeWidth=2;labelBackgroundColor=none;" parent="btdG8k1_Mba0kDSIN3Nh-1" vertex="1">
          <mxGeometry x="320" y="327" width="37" height="37" as="geometry" />
        </mxCell>
        <mxCell id="btdG8k1_Mba0kDSIN3Nh-19" style="edgeStyle=orthogonalEdgeStyle;rounded=0;orthogonalLoop=1;jettySize=auto;html=1;entryX=0;entryY=0.75;entryDx=0;entryDy=0;" parent="btdG8k1_Mba0kDSIN3Nh-1" source="btdG8k1_Mba0kDSIN3Nh-20" target="btdG8k1_Mba0kDSIN3Nh-38" edge="1">
          <mxGeometry relative="1" as="geometry">
            <mxPoint x="648" y="441" as="targetPoint" />
          </mxGeometry>
        </mxCell>
        <mxCell id="btdG8k1_Mba0kDSIN3Nh-20" value="&lt;span style=&quot;background-color: rgb(245 , 245 , 245)&quot;&gt;&lt;font color=&quot;#000000&quot;&gt;Application&lt;/font&gt;&lt;/span&gt;" style="aspect=fixed;perimeter=ellipsePerimeter;html=1;align=center;shadow=0;dashed=0;fontColor=#4277BB;labelBackgroundColor=#ffffff;fontSize=12;spacingTop=3;image;image=img/lib/ibm/applications/enterprise_applications.svg;" parent="btdG8k1_Mba0kDSIN3Nh-1" vertex="1">
          <mxGeometry x="471" y="410.5" width="60" height="60" as="geometry" />
        </mxCell>
        <mxCell id="btdG8k1_Mba0kDSIN3Nh-27" value="&lt;h5&gt;4&lt;/h5&gt;" style="ellipse;whiteSpace=wrap;html=1;aspect=fixed;" parent="btdG8k1_Mba0kDSIN3Nh-1" vertex="1">
          <mxGeometry x="511" y="351.5" width="20" height="20" as="geometry" />
        </mxCell>
        <mxCell id="btdG8k1_Mba0kDSIN3Nh-29" value="&lt;h5&gt;7&lt;/h5&gt;" style="ellipse;whiteSpace=wrap;html=1;aspect=fixed;" parent="btdG8k1_Mba0kDSIN3Nh-1" vertex="1">
          <mxGeometry x="728" y="277" width="20" height="20" as="geometry" />
        </mxCell>
        <mxCell id="btdG8k1_Mba0kDSIN3Nh-30" value="Ingress" style="rounded=1;whiteSpace=wrap;html=1;labelPosition=center;verticalLabelPosition=top;align=left;verticalAlign=bottom;spacing=-19;spacingLeft=25;fillColor=#dae8fc;strokeColor=#6c8ebf;" parent="btdG8k1_Mba0kDSIN3Nh-1" vertex="1">
          <mxGeometry x="190" y="390" width="228" height="101" as="geometry" />
        </mxCell>
        <mxCell id="btdG8k1_Mba0kDSIN3Nh-31" style="edgeStyle=orthogonalEdgeStyle;rounded=0;orthogonalLoop=1;jettySize=auto;html=1;strokeWidth=1;" parent="btdG8k1_Mba0kDSIN3Nh-1" source="btdG8k1_Mba0kDSIN3Nh-12" target="btdG8k1_Mba0kDSIN3Nh-32" edge="1">
          <mxGeometry relative="1" as="geometry" />
        </mxCell>
        <mxCell id="btdG8k1_Mba0kDSIN3Nh-32" value="TLS&lt;br&gt;Cert" style="rounded=1;whiteSpace=wrap;html=1;" parent="btdG8k1_Mba0kDSIN3Nh-1" vertex="1">
          <mxGeometry x="209" y="415.5" width="82" height="50" as="geometry" />
        </mxCell>
        <mxCell id="btdG8k1_Mba0kDSIN3Nh-33" value="Auth" style="rounded=1;whiteSpace=wrap;html=1;" parent="btdG8k1_Mba0kDSIN3Nh-1" vertex="1">
          <mxGeometry x="320" y="415.5" width="82" height="50" as="geometry" />
        </mxCell>
        <mxCell id="btdG8k1_Mba0kDSIN3Nh-34" value="&lt;h5&gt;1&lt;/h5&gt;" style="ellipse;whiteSpace=wrap;html=1;aspect=fixed;" parent="btdG8k1_Mba0kDSIN3Nh-1" vertex="1">
          <mxGeometry x="118" y="410.5" width="20" height="20" as="geometry" />
        </mxCell>
        <mxCell id="btdG8k1_Mba0kDSIN3Nh-13" style="edgeStyle=orthogonalEdgeStyle;rounded=0;orthogonalLoop=1;jettySize=auto;html=1;entryX=0.5;entryY=1;entryDx=0;entryDy=0;exitX=0.5;exitY=0;exitDx=0;exitDy=0;" parent="btdG8k1_Mba0kDSIN3Nh-1" source="902QZvOatPAjfdffUH-e-0" target="btdG8k1_Mba0kDSIN3Nh-32" edge="1">
          <mxGeometry relative="1" as="geometry">
            <mxPoint x="250" y="580" as="sourcePoint" />
          </mxGeometry>
        </mxCell>
        <mxCell id="btdG8k1_Mba0kDSIN3Nh-24" style="edgeStyle=orthogonalEdgeStyle;rounded=0;orthogonalLoop=1;jettySize=auto;html=1;entryX=0.5;entryY=0;entryDx=0;entryDy=0;" parent="btdG8k1_Mba0kDSIN3Nh-1" source="btdG8k1_Mba0kDSIN3Nh-33" target="btdG8k1_Mba0kDSIN3Nh-15" edge="1">
          <mxGeometry relative="1" as="geometry" />
        </mxCell>
        <UserObject label="&lt;font color=&quot;#000000&quot;&gt;Container&lt;br&gt;Registry&lt;/font&gt;" id="YXqr6sMHjf5vaJmeqWwe-0">
          <mxCell style="aspect=fixed;perimeter=ellipsePerimeter;html=1;align=left;shadow=0;dashed=0;fontColor=#4277BB;fontSize=12;spacingTop=3;image;image=data:image/svg+xml,PHN2ZyB4bWxucz0iaHR0cDovL3d3dy53My5vcmcvMjAwMC9zdmciIHhtbG5zOnhsaW5rPSJodHRwOi8vd3d3LnczLm9yZy8xOTk5L3hsaW5rIiB2aWV3Qm94PSIwIDAgMzIgMzIiPgogIDxkZWZzPgogICAgPGxpbmVhckdyYWRpZW50IGlkPSJiNGNjMzZmMy04N2FiLTQ4YjMtODg3ZS05YzFhYzg3NDI5ZTciIHgxPSI3NjYuMzY1IiB5MT0iLTc3MC41NCIgeDI9Ijc3NS41NTciIHkyPSItNzc5LjczMyIgZ3JhZGllbnRUcmFuc2Zvcm09InRyYW5zbGF0ZSgtMTA3Ny43NTYgMzEuNDUzKSByb3RhdGUoNDUpIiBncmFkaWVudFVuaXRzPSJ1c2VyU3BhY2VPblVzZSI+CiAgICAgIDxzdG9wIG9mZnNldD0iMC4wMjQiIHN0b3Atb3BhY2l0eT0iMCIvPgogICAgICA8c3RvcCBvZmZzZXQ9IjAuNjQiLz4KICAgIDwvbGluZWFyR3JhZGllbnQ+CiAgICA8bWFzayBpZD0iYWVmNGQzYjMtNjM5Ni00ODY2LWI2MjAtOGRmOGNiZTg4ZDUwIiB4PSIwIiB5PSIwIiB3aWR0aD0iMzIiIGhlaWdodD0iMzIiIG1hc2tVbml0cz0idXNlclNwYWNlT25Vc2UiPgogICAgICA8cGF0aCBkPSJNMjEsMzBINGEyLDIsMCwwLDEtMi0yVjRBMiwyLDAsMCwxLDQsMkgyOGEyLDIsMCwwLDEsMiwyVjE2SDI4VjRINFYyOEgyMVoiIGZpbGw9IiNmZmYiLz4KICAgICAgPHJlY3QgeD0iOSIgeT0iMjYiIHdpZHRoPSIxMyIgaGVpZ2h0PSI1IiBmaWxsPSJ1cmwoI2I0Y2MzNmYzLTg3YWItNDhiMy04ODdlLTljMWFjODc0MjllNykiLz4KICAgIDwvbWFzaz4KICAgIDxsaW5lYXJHcmFkaWVudCBpZD0iYTk5N2EwODAtNWY1OC00ZDA0LWFhYjktYmYxNTAzNTZlMzcxIiB5MT0iMzIiIHgyPSIzMiIgZ3JhZGllbnRVbml0cz0idXNlclNwYWNlT25Vc2UiPgogICAgICA8c3RvcCBvZmZzZXQ9IjAuMSIgc3RvcC1jb2xvcj0iIzA4YmRiYSIvPgogICAgICA8c3RvcCBvZmZzZXQ9IjAuOSIgc3RvcC1jb2xvcj0iIzBmNjJmZSIvPgogICAgPC9saW5lYXJHcmFkaWVudD4KICA8L2RlZnM+CiAgPGcgaWQ9ImFlZDBhM2Q1LWY1MzItNGJmYy1iZjU5LWE0ZDIwMGFkZGNjZSIgZGF0YS1uYW1lPSJMYXllciAyIj4KICAgIDxnIGlkPSJhMDk1MDkzMi1lYzAwLTQ2MTEtOWIyMC0xYzFiYTIxYjJjYTUiIGRhdGEtbmFtZT0iQnVpbGQgaWNvbiBoZXJlIj4KICAgICAgPGc+CiAgICAgICAgPGcgbWFzaz0idXJsKCNhZWY0ZDNiMy02Mzk2LTQ4NjYtYjYyMC04ZGY4Y2JlODhkNTApIj4KICAgICAgICAgIDxyZWN0IHdpZHRoPSIzMiIgaGVpZ2h0PSIzMiIgZmlsbD0idXJsKCNhOTk3YTA4MC01ZjU4LTRkMDQtYWFiOS1iZjE1MDM1NmUzNzEpIi8+CiAgICAgICAgPC9nPgogICAgICAgIDxwYXRoIGQ9Ik0yOCwzMEgyM2EyLDIsMCwwLDEtMi0yVjIzYTIsMiwwLDAsMSwyLTJoNWEyLDIsMCwwLDEsMiwydjVBMiwyLDAsMCwxLDI4LDMwWm0tNS03aDBsMCw1aDVWMjNaIiBmaWxsPSIjMDAxZDZjIi8+CiAgICAgICAgPHBhdGggZD0iTTE2LDIzSDExYTIsMiwwLDAsMS0yLTJWMTFhMiwyLDAsMCwxLDItMkgyMWEyLDIsMCwwLDEsMiwydjVIMjFWMTFIMTFWMjFoNVoiIGZpbGw9IiMwMDFkNmMiLz4KICAgICAgPC9nPgogICAgPC9nPgogIDwvZz4KPC9zdmc+Cg==;strokeColor=#4277BB;strokeWidth=2;labelBackgroundColor=none;rounded=0;fillColor=none;labelPosition=right;verticalLabelPosition=middle;verticalAlign=middle;" parent="btdG8k1_Mba0kDSIN3Nh-1" vertex="1">
            <mxGeometry x="471" y="250" width="60" height="60" as="geometry" />
          </mxCell>
        </UserObject>
        <mxCell id="YXqr6sMHjf5vaJmeqWwe-1" value="" style="edgeStyle=orthogonalEdgeStyle;rounded=0;orthogonalLoop=1;jettySize=auto;html=1;exitX=0.5;exitY=1;exitDx=0;exitDy=0;endArrow=none;" parent="btdG8k1_Mba0kDSIN3Nh-1" source="YXqr6sMHjf5vaJmeqWwe-0" target="YXqr6sMHjf5vaJmeqWwe-0" edge="1">
          <mxGeometry relative="1" as="geometry">
            <mxPoint x="501" y="180" as="sourcePoint" />
            <mxPoint x="501" y="410.5" as="targetPoint" />
          </mxGeometry>
        </mxCell>
      </root>
    </mxGraphModel>
  </diagram>
  <diagram name="Diagram 2022-11 Update" id="rrvRPBhAoLuWGQ99i_wy">
    <mxGraphModel dx="1569" dy="1027" grid="1" gridSize="10" guides="1" tooltips="1" connect="1" arrows="1" fold="1" page="1" pageScale="1" pageWidth="827" pageHeight="1169" math="0" shadow="0">
      <root>
        <mxCell id="_JqYhFXVi5TnirQp-jM5-0" />
        <mxCell id="_JqYhFXVi5TnirQp-jM5-1" parent="_JqYhFXVi5TnirQp-jM5-0" />
        <mxCell id="_JqYhFXVi5TnirQp-jM5-2" value="Public Network" style="shape=mxgraph.ibm.box;prType=public;fontStyle=0;verticalAlign=top;align=left;spacingLeft=32;spacingTop=4;fillColor=none;rounded=0;whiteSpace=wrap;html=1;strokeColor=#4376BB;strokeWidth=3;dashed=0;container=1;spacing=-4;collapsible=0;" parent="_JqYhFXVi5TnirQp-jM5-1" vertex="1">
          <mxGeometry x="12" y="200" width="139" height="577" as="geometry" />
        </mxCell>
        <mxCell id="_JqYhFXVi5TnirQp-jM5-3" value="IBM Cloud" style="shape=mxgraph.ibm.box;prType=cloud;fontStyle=0;verticalAlign=top;align=left;spacingLeft=32;spacingTop=4;fillColor=none;rounded=0;whiteSpace=wrap;html=1;strokeColor=#4376BB;strokeWidth=3;dashed=0;container=0;spacing=-4;collapsible=0;" parent="_JqYhFXVi5TnirQp-jM5-1" vertex="1">
          <mxGeometry x="151" y="200" width="727" height="577" as="geometry" />
        </mxCell>
        <mxCell id="_JqYhFXVi5TnirQp-jM5-18" value="&amp;nbsp; &amp;nbsp; &amp;nbsp; &amp;nbsp; &amp;nbsp; &amp;nbsp;Kubernetes Cluster" style="rounded=1;whiteSpace=wrap;html=1;align=left;verticalAlign=top;fillColor=#f5f5f5;strokeColor=#666666;fontColor=#333333;" parent="_JqYhFXVi5TnirQp-jM5-1" vertex="1">
          <mxGeometry x="318" y="327" width="241" height="201" as="geometry" />
        </mxCell>
        <mxCell id="_JqYhFXVi5TnirQp-jM5-4" value="Region" style="shape=mxgraph.ibm.box;prType=region;fontStyle=0;verticalAlign=top;align=left;spacingLeft=32;spacingTop=4;fillColor=none;rounded=0;whiteSpace=wrap;html=1;strokeColor=#919191;strokeWidth=2;dashed=0;container=1;spacing=-4;collapsible=0;" parent="_JqYhFXVi5TnirQp-jM5-1" vertex="1">
          <mxGeometry x="178" y="237" width="670" height="510" as="geometry" />
        </mxCell>
        <mxCell id="_JqYhFXVi5TnirQp-jM5-5" value="&lt;h5&gt;5&lt;/h5&gt;" style="ellipse;whiteSpace=wrap;html=1;aspect=fixed;" parent="_JqYhFXVi5TnirQp-jM5-4" vertex="1">
          <mxGeometry x="417.74249269806495" y="179.9986280487805" width="18.77588587206627" height="18.77588587206627" as="geometry" />
        </mxCell>
        <UserObject link="https://cloud.ibm.com/catalog/services/logdnaat" label="&lt;font color=&quot;#000000&quot;&gt;Cloud Activity&lt;br&gt;Tracker&lt;/font&gt;" id="_JqYhFXVi5TnirQp-jM5-7">
          <mxCell style="aspect=fixed;perimeter=ellipsePerimeter;html=1;align=center;shadow=0;dashed=0;fontColor=#4277BB;fontSize=12;spacingTop=3;image;image=data:image/svg+xml,PHN2ZyBpZD0iQnVpbGRfaWNvbl9oZXJlIiBkYXRhLW5hbWU9IkJ1aWxkIGljb24gaGVyZSIgeG1sbnM9Imh0dHA6Ly93d3cudzMub3JnLzIwMDAvc3ZnIiB4bWxuczp4bGluaz0iaHR0cDovL3d3dy53My5vcmcvMTk5OS94bGluayIgdmlld0JveD0iMCAwIDMyIDMyIj4KICA8ZGVmcz4KICAgIDxsaW5lYXJHcmFkaWVudCBpZD0ibGluZWFyLWdyYWRpZW50IiB4MT0iOCIgeTE9IjUiIHgyPSIyMSIgeTI9IjUiIGdyYWRpZW50VW5pdHM9InVzZXJTcGFjZU9uVXNlIj4KICAgICAgPHN0b3Agb2Zmc2V0PSIwIiBzdG9wLW9wYWNpdHk9IjAiLz4KICAgICAgPHN0b3Agb2Zmc2V0PSIwLjciLz4KICAgIDwvbGluZWFyR3JhZGllbnQ+CiAgICA8bWFzayBpZD0ibWFzayIgeD0iMCIgeT0iMCIgd2lkdGg9IjMyIiBoZWlnaHQ9IjMyIiBtYXNrVW5pdHM9InVzZXJTcGFjZU9uVXNlIj4KICAgICAgPGc+CiAgICAgICAgPHBhdGggZD0iTTI4LDE2djZINFY2SDIwVjRINEEyLDIsMCwwLDAsMiw2VjIyYTIsMiwwLDAsMCwyLDJoOHY0SDh2MkgyNFYyOEgyMFYyNGg4YTIsMiwwLDAsMCwyLTJWMTZaTTE4LDI4SDE0VjI0aDRaIiBzdHlsZT0iZmlsbDogI2ZmZiIvPgogICAgICAgIDxyZWN0IHg9IjgiIHk9IjMiIHdpZHRoPSIxMyIgaGVpZ2h0PSI0IiBzdHlsZT0iZmlsbDogdXJsKCNsaW5lYXItZ3JhZGllbnQpIi8+CiAgICAgIDwvZz4KICAgIDwvbWFzaz4KICAgIDxsaW5lYXJHcmFkaWVudCBpZD0ibGluZWFyLWdyYWRpZW50LTIiIHgxPSItMzUwMy44MjQiIHkxPSIzMiIgeDI9Ii0zNTMzLjk0MSIgZ3JhZGllbnRUcmFuc2Zvcm09Im1hdHJpeCgxLjA2MywgMCwgMCwgLTEsIDM3NTQuODEzLCAzMikiIGdyYWRpZW50VW5pdHM9InVzZXJTcGFjZU9uVXNlIj4KICAgICAgPHN0b3Agb2Zmc2V0PSIwLjEiIHN0b3AtY29sb3I9IiM0MmJlNjUiLz4KICAgICAgPHN0b3Agb2Zmc2V0PSIwLjkiIHN0b3AtY29sb3I9IiMwMDdkNzkiLz4KICAgIDwvbGluZWFyR3JhZGllbnQ+CiAgPC9kZWZzPgogIDxnPgogICAgPGcgc3R5bGU9Im1hc2s6IHVybCgjbWFzaykiPgogICAgICA8cmVjdCB3aWR0aD0iMzIiIGhlaWdodD0iMzIiIHRyYW5zZm9ybT0idHJhbnNsYXRlKDMyIDMyKSByb3RhdGUoMTgwKSIgc3R5bGU9ImZpbGw6IHVybCgjbGluZWFyLWdyYWRpZW50LTIpIi8+CiAgICA8L2c+CiAgICA8cG9seWdvbiBwb2ludHM9IjIxIDE1IDE2IDEwLjA0IDE3LjU5IDguNDcgMjEgMTEuODUgMjguNDEgNC41IDMwIDYuMDggMjEgMTUiIHN0eWxlPSJmaWxsOiAjMDAxZDZjIi8+CiAgPC9nPgo8L3N2Zz4K;strokeColor=#4277BB;strokeWidth=2;labelBackgroundColor=none;rounded=0;fillColor=#E0E0E0;" parent="_JqYhFXVi5TnirQp-jM5-4" vertex="1">
            <mxGeometry x="579.1818546914932" y="22.804878048780484" width="56.3276576161988" height="56.3276576161988" as="geometry" />
          </mxCell>
        </UserObject>
        <mxCell id="_JqYhFXVi5TnirQp-jM5-8" style="edgeStyle=orthogonalEdgeStyle;rounded=0;orthogonalLoop=1;jettySize=auto;html=1;" parent="_JqYhFXVi5TnirQp-jM5-4" edge="1">
          <mxGeometry relative="1" as="geometry">
            <mxPoint x="200" y="382.195283018868" as="sourcePoint" />
            <mxPoint x="490" y="382.195283018868" as="targetPoint" />
          </mxGeometry>
        </mxCell>
        <mxCell id="_JqYhFXVi5TnirQp-jM5-9" value="&lt;font color=&quot;#000000&quot;&gt;App ID&lt;/font&gt;" style="aspect=fixed;perimeter=ellipsePerimeter;html=1;align=center;shadow=0;dashed=0;fontColor=#4277BB;fontSize=12;spacingTop=3;image;image=data:image/png,iVBORw0KGgoAAAANSUhEUgAAADIAAAAyCAYAAAAeP4ixAAACRklEQVR4Ae3BIW/jZgAA0JfvAgwmzR8LDAwYCCxb9geqwsI78PGNlU2DRUcneaDw4Ekdv8DATBoYOGAYZkOzTZNVRVWl2U7iLor6njdnZuKUimqGOWbIPVdjh1KKOyc2cayiynCFJXL91NhgK8XGCUwco6iusELmMA3WUtw40sQhiirDLeZeKlGitJdhhjnmXirxSYqNA00MVVQz3CK312CDjRQb/6WocixxhczeDg9SbBxgYoiiyvAjMnt/4bMUG0MUVYYbLOzt8CDFxkBTw7xHZu+zFLcOkWKDT4pqiRutGd7jVwO901dRrfCdVoPfpPjVsR7vd67vaiy0vnF9x+N9aYB3+iiqHLf2fpfiV6fyeL9zfVdjoTVzffenx/tGT0E/K3sbKW6dWopbbLQyrAwQdCmqDEutGmvjWaPRWiiqTE9Bt4W9tRQbY0mxwVorw0JPQbeFViPFrfFt7c31FHSbaZVeQ4oNSq2ZnoJuudbO6ym1ZnoK+iu9ntpAE12K6m//rx+kuNYhOH+5HoLzt9RDcP6+1UNw/pZ6CMazxRq148z1MDWOD1J88K+iyvEFS4eZ6yE4va0UHzxJscYvjlFUSx2C06u9VDtOrkNwektFlXtu5ThLHYLTy/HFk6K6wc+Ok+sQjKN2Wt/rEIyjtlc6Xq5DMI4/PElx63hLHYJxbD23NbKpccwV1coxUpwYYGocH72y4EIEFyK4EMF52hooOE8/GWjqvJT4IMW1gaZeU4oTIwkuRHAhggsRXIjgQgRv3oziHxt2josMfeTLAAAAAElFTkSuQmCC;strokeColor=#4277BB;strokeWidth=2;labelBackgroundColor=none;" parent="_JqYhFXVi5TnirQp-jM5-4" vertex="1">
          <mxGeometry x="154.83831325301205" y="346.4167372296365" width="56.3276576161988" height="56.3276576161988" as="geometry" />
        </mxCell>
        <mxCell id="_JqYhFXVi5TnirQp-jM5-10" style="edgeStyle=orthogonalEdgeStyle;rounded=0;orthogonalLoop=1;jettySize=auto;html=1;entryX=0.5;entryY=1;entryDx=0;entryDy=0;" parent="_JqYhFXVi5TnirQp-jM5-4" edge="1">
          <mxGeometry relative="1" as="geometry">
            <Array as="points">
              <mxPoint x="72" y="460" />
              <mxPoint x="506" y="460" />
            </Array>
            <mxPoint x="72" y="433" as="sourcePoint" />
            <mxPoint x="506.44604403263384" y="402.74439484583536" as="targetPoint" />
          </mxGeometry>
        </mxCell>
        <mxCell id="_JqYhFXVi5TnirQp-jM5-12" value="&lt;h5&gt;6&lt;/h5&gt;" style="ellipse;whiteSpace=wrap;html=1;aspect=fixed;fontStyle=1" parent="_JqYhFXVi5TnirQp-jM5-4" vertex="1">
          <mxGeometry x="470.00313253012047" y="335.7384215370456" width="18.77588587206627" height="18.77588587206627" as="geometry" />
        </mxCell>
        <mxCell id="_JqYhFXVi5TnirQp-jM5-13" value="&lt;h5&gt;3&lt;/h5&gt;" style="ellipse;whiteSpace=wrap;html=1;aspect=fixed;" parent="_JqYhFXVi5TnirQp-jM5-4" vertex="1">
          <mxGeometry x="148.32831325301203" y="307.9289875747814" width="18.77588587206627" height="18.77588587206627" as="geometry" />
        </mxCell>
        <mxCell id="_JqYhFXVi5TnirQp-jM5-14" value="&lt;h5&gt;2&lt;/h5&gt;" style="ellipse;whiteSpace=wrap;html=1;aspect=fixed;" parent="_JqYhFXVi5TnirQp-jM5-4" vertex="1">
          <mxGeometry x="36.325301204819276" y="307.9289875747814" width="18.77588587206627" height="18.77588587206627" as="geometry" />
        </mxCell>
        <UserObject link="https://cloud.ibm.com/catalog/services/cloud-object-storage" label="&lt;font color=&quot;#000000&quot;&gt;Cloud Object&lt;br&gt;Storage&lt;/font&gt;" id="_JqYhFXVi5TnirQp-jM5-15">
          <mxCell style="aspect=fixed;perimeter=ellipsePerimeter;html=1;align=center;shadow=0;dashed=0;fontColor=#4277BB;fontSize=12;spacingTop=3;image;image=data:image/svg+xml,PHN2ZyB4bWxucz0iaHR0cDovL3d3dy53My5vcmcvMjAwMC9zdmciIHhtbG5zOnhsaW5rPSJodHRwOi8vd3d3LnczLm9yZy8xOTk5L3hsaW5rIiB3aWR0aD0iMzIiIGhlaWdodD0iMzIiIHZpZXdCb3g9IjAgMCAzMiAzMiI+PGRlZnM+PHN0eWxlPi5he2ZpbGw6I2ZmZjt9LmJ7ZmlsbDp1cmwoI2EpO30uY3ttYXNrOnVybCgjYik7fS5ke2ZpbGw6dXJsKCNjKTt9LmV7ZmlsbDojMDAxZDZjO308L3N0eWxlPjxsaW5lYXJHcmFkaWVudCBpZD0iYSIgeDE9Ii0zMzEuNSIgeTE9Ii0xMjcuNSIgeDI9Ii0zMjEuNSIgeTI9Ii0xMjcuNSIgZ3JhZGllbnRUcmFuc2Zvcm09InRyYW5zbGF0ZSgzMzUuNSAxNDguNSkiIGdyYWRpZW50VW5pdHM9InVzZXJTcGFjZU9uVXNlIj48c3RvcCBvZmZzZXQ9IjAuMTMiLz48c3RvcCBvZmZzZXQ9IjAuODkiIHN0b3Atb3BhY2l0eT0iMCIvPjwvbGluZWFyR3JhZGllbnQ+PG1hc2sgaWQ9ImIiIHg9IjAiIHk9IjAiIHdpZHRoPSIzMiIgaGVpZ2h0PSIzMiIgbWFza1VuaXRzPSJ1c2VyU3BhY2VPblVzZSI+PGNpcmNsZSBjbGFzcz0iYSIgY3g9IjciIGN5PSIyNSIgcj0iMSIvPjxwYXRoIGNsYXNzPSJhIiBkPSJNMjgsMjBIMjZ2MmgydjZINFYyMmg5Ljk0VjIwSDRhMiwyLDAsMCwwLTIsMnY2YTIsMiwwLDAsMCwyLDJIMjhhMiwyLDAsMCwwLDItMlYyMkEyLDIsMCwwLDAsMjgsMjBaIi8+PHJlY3QgY2xhc3M9ImIiIHg9IjQiIHk9IjE5IiB3aWR0aD0iMTAiIGhlaWdodD0iNCIgdHJhbnNmb3JtPSJ0cmFuc2xhdGUoMTggNDIpIHJvdGF0ZSgxODApIi8+PC9tYXNrPjxsaW5lYXJHcmFkaWVudCBpZD0iYyIgeTE9IjMyIiB4Mj0iMzIiIGdyYWRpZW50VW5pdHM9InVzZXJTcGFjZU9uVXNlIj48c3RvcCBvZmZzZXQ9IjAuMSIgc3RvcC1jb2xvcj0iI2E1NmVmZiIvPjxzdG9wIG9mZnNldD0iMC45IiBzdG9wLWNvbG9yPSIjMGY2MmZlIi8+PC9saW5lYXJHcmFkaWVudD48L2RlZnM+PGcgY2xhc3M9ImMiPjxyZWN0IGNsYXNzPSJkIiB3aWR0aD0iMzIiIGhlaWdodD0iMzIiLz48L2c+PHBhdGggY2xhc3M9ImUiIGQ9Ik0xOCwxMEgxMFYyaDhaTTEyLDhoNFY0SDEyWiIvPjxwYXRoIGNsYXNzPSJlIiBkPSJNMjIsMTRIMTZ2OGg4VjE2aDZWOEgyMlptMCw2SDE4VjE2aDRabTYtMTB2NEgyNFYxMFoiLz48L3N2Zz4=;strokeColor=#4277BB;strokeWidth=2;labelBackgroundColor=none;rounded=0;fillColor=#E0E0E0;" parent="_JqYhFXVi5TnirQp-jM5-4" vertex="1">
            <mxGeometry x="478.28313253012044" y="161.85355729406353" width="56.3276576161988" height="56.3276576161988" as="geometry" />
          </mxCell>
        </UserObject>
        <mxCell id="_JqYhFXVi5TnirQp-jM5-16" style="edgeStyle=orthogonalEdgeStyle;rounded=0;orthogonalLoop=1;jettySize=auto;html=1;" parent="_JqYhFXVi5TnirQp-jM5-4" edge="1">
          <mxGeometry relative="1" as="geometry">
            <mxPoint x="507" y="263" as="sourcePoint" />
            <mxPoint x="506.44604403263384" y="346.4167372296365" as="targetPoint" />
            <Array as="points">
              <mxPoint x="506" y="263" />
            </Array>
          </mxGeometry>
        </mxCell>
        <UserObject label="&lt;font color=&quot;#000000&quot;&gt;Secrets&amp;nbsp;Manager&lt;/font&gt;" id="W_2-qwxDB3a7D-Z7PIjR-0">
          <mxCell style="aspect=fixed;perimeter=ellipsePerimeter;html=1;align=center;shadow=0;dashed=0;fontColor=#4277BB;fontSize=12;spacingTop=3;image;image=data:image/svg+xml,PD94bWwgdmVyc2lvbj0iMS4wIiBlbmNvZGluZz0idXRmLTgiPz4KPCEtLSBHZW5lcmF0b3I6IEFkb2JlIElsbHVzdHJhdG9yIDI2LjMuMSwgU1ZHIEV4cG9ydCBQbHVnLUluIC4gU1ZHIFZlcnNpb246IDYuMDAgQnVpbGQgMCkgIC0tPgo8c3ZnIHZlcnNpb249IjEuMSIgaWQ9IkNsb3VkU2VjcmV0c01hbmFnZXIiIHhtbG5zPSJodHRwOi8vd3d3LnczLm9yZy8yMDAwL3N2ZyIgeG1sbnM6eGxpbms9Imh0dHA6Ly93d3cudzMub3JnLzE5OTkveGxpbmsiCgkgeD0iMHB4IiB5PSIwcHgiIHZpZXdCb3g9IjAgMCAzMiAzMiIgc3R5bGU9ImVuYWJsZS1iYWNrZ3JvdW5kOm5ldyAwIDAgMzIgMzI7IiB4bWw6c3BhY2U9InByZXNlcnZlIj4KPHN0eWxlIHR5cGU9InRleHQvY3NzIj4KCS5zdDB7ZmlsbDojRkZGRkZGO2ZpbHRlcjp1cmwoI0Fkb2JlX09wYWNpdHlNYXNrRmlsdGVyKTt9Cgkuc3Qxe2ZpbGw6dXJsKCNHcmFkaWVudHNfX2JsYWNrX18wMDAwMDAzNDc3MzExNTkxODQ5NTc2MzkxMDAwMDAxNTg5OTYwMjU3OTMzMTIwNTUxMV8pO30KCS5zdDJ7ZmlsbDojRkZGRkZGO30KCS5zdDN7bWFzazp1cmwoI21hc2tfMDAwMDAwMjU0MzM5NTYwODIzNTY0MjM4MzAwMDAwMDczNTI0OTE3MzQyOTYyNDgxOTJfKTt9Cgkuc3Q0e2ZpbGw6dXJsKCNTVkdJRF8xXyk7fQoJLnN0NXtmaWxsOiMwMDFENkM7fQo8L3N0eWxlPgo8ZGVmcz4KCTxmaWx0ZXIgaWQ9IkFkb2JlX09wYWNpdHlNYXNrRmlsdGVyIiBmaWx0ZXJVbml0cz0idXNlclNwYWNlT25Vc2UiIHg9IjAiIHk9IjAiIHdpZHRoPSIzMiIgaGVpZ2h0PSIzMiI+CgkJPGZlQ29sb3JNYXRyaXggIHR5cGU9Im1hdHJpeCIgdmFsdWVzPSIxIDAgMCAwIDAgIDAgMSAwIDAgMCAgMCAwIDEgMCAwICAwIDAgMCAxIDAiLz4KCTwvZmlsdGVyPgo8L2RlZnM+CjxtYXNrIG1hc2tVbml0cz0idXNlclNwYWNlT25Vc2UiIHg9IjAiIHk9IjAiIHdpZHRoPSIzMiIgaGVpZ2h0PSIzMiIgaWQ9Im1hc2tfMDAwMDAwMjU0MzM5NTYwODIzNTY0MjM4MzAwMDAwMDczNTI0OTE3MzQyOTYyNDgxOTJfIj4KCTxwYXRoIGNsYXNzPSJzdDAiIGQ9Ik0xNiwzMEM4LjMsMzAsMiwyMy43LDIsMTZTOC4zLDIsMTYsMnMxNCw2LjMsMTQsMTRTMjMuNywzMCwxNiwzMHogTTE2LDRDOS40LDQsNCw5LjQsNCwxNnM1LjQsMTIsMTIsMTIKCQlzMTItNS40LDEyLTEyUzIyLjYsNCwxNiw0eiIvPgoJCgkJPGxpbmVhckdyYWRpZW50IGlkPSJHcmFkaWVudHNfX2JsYWNrX18wMDAwMDEwOTAyMDI4NTEyNTg3NTg1NjEwMDAwMDAxNDIwNzg2ODc2NTY4Mzk4NjU5MF8iIGdyYWRpZW50VW5pdHM9InVzZXJTcGFjZU9uVXNlIiB4MT0iMTc4MC4zMzAxIiB5MT0iMzgwMS40NDM0IiB4Mj0iMTc5Mi42NzExIiB5Mj0iMzgwMS40NDM0IiBncmFkaWVudFRyYW5zZm9ybT0ibWF0cml4KC0wLjQ2MjIgMS4wNzcgMC42NDYgMC4yNzcyIC0xNjA2LjI1MzEgLTI5NTQuNDQ1OCkiPgoJCTxzdG9wICBvZmZzZXQ9IjAuMTc5IiBzdHlsZT0ic3RvcC1jb2xvcjojMDAwMDAwIi8+CgkJPHN0b3AgIG9mZnNldD0iMC45NjQiIHN0eWxlPSJzdG9wLWNvbG9yOiMwMDAwMDA7c3RvcC1vcGFjaXR5OjAiLz4KCTwvbGluZWFyR3JhZGllbnQ+CgkKCQk8cGF0aCBpZD0iR3JhZGllbnRzX19ibGFja19fMDAwMDAxNjMwNzE5ODIxNjk5MTIyNTk2ODAwMDAwMTAwNDkxODMzNjQzMTgwOTUyODlfIiBzdHlsZT0iZmlsbDp1cmwoI0dyYWRpZW50c19fYmxhY2tfXzAwMDAwMTA5MDIwMjg1MTI1ODc1ODU2MTAwMDAwMDE0MjA3ODY4NzY1NjgzOTg2NTkwXyk7IiBkPSIKCQlNMzEuOCwxNy41bC02LDE0bC05LTMuOWw2LTE0TDMxLjgsMTcuNXoiLz4KCTxwYXRoIGNsYXNzPSJzdDIiIGQ9Ik0yNiwxNWg2djJoLTZWMTV6Ii8+CjwvbWFzaz4KPGcgY2xhc3M9InN0MyI+CgkKCQk8bGluZWFyR3JhZGllbnQgaWQ9IlNWR0lEXzFfIiBncmFkaWVudFVuaXRzPSJ1c2VyU3BhY2VPblVzZSIgeDE9Ii05LjA5NDk0N2UtMTMiIHkxPSItNjIiIHgyPSIzMiIgeTI9Ii0zMCIgZ3JhZGllbnRUcmFuc2Zvcm09Im1hdHJpeCgxIDAgMCAtMSAwIC0zMCkiPgoJCTxzdG9wICBvZmZzZXQ9IjAuMSIgc3R5bGU9InN0b3AtY29sb3I6IzA4QkRCQSIvPgoJCTxzdG9wICBvZmZzZXQ9IjAuOSIgc3R5bGU9InN0b3AtY29sb3I6IzBGNjJGRSIvPgoJPC9saW5lYXJHcmFkaWVudD4KCTxwYXRoIGNsYXNzPSJzdDQiIGQ9Ik0wLDBoMzJ2MzJIMFYweiIvPgo8L2c+CjxwYXRoIGNsYXNzPSJzdDUiIGQ9Ik0yMCwxNmMwLTAuNy0wLjItMS40LTAuNi0ybDMuMy0zLjNsLTEuNC0xLjRMMTgsMTIuNmMtMC42LTAuNC0xLjMtMC42LTItMC42cy0xLjQsMC4yLTIsMC42bC0zLjMtMy4zbC0xLjQsMS40CglsMy4zLDMuM2MtMC40LDAuNi0wLjYsMS4zLTAuNiwyczAuMiwxLjQsMC42LDJsLTMuMywzLjNsMS40LDEuNGwzLjMtMy4zYzAuNiwwLjQsMS4zLDAuNiwyLDAuNmMwLjcsMCwxLjQtMC4yLDItMC42bDMuMywzLjMKCWwxLjQtMS40TDE5LjQsMThDMTkuOCwxNy40LDIwLDE2LjcsMjAsMTZ6IE0xNiwxOGMtMS4xLDAtMi0wLjktMi0yczAuOS0yLDItMnMyLDAuOSwyLDJTMTcuMSwxOCwxNiwxOHoiLz4KPC9zdmc+Cg==;strokeColor=#4277BB;strokeWidth=2;labelBackgroundColor=none;rounded=0" parent="_JqYhFXVi5TnirQp-jM5-4" vertex="1">
            <mxGeometry x="42" y="348" width="60" height="60" as="geometry" />
          </mxCell>
        </UserObject>
        <UserObject link="https://cloud.ibm.com/catalog/services/containers-kubernetes" id="knUMPzsPDelGlE0WH4FW-0">
          <mxCell style="aspect=fixed;perimeter=ellipsePerimeter;html=1;align=center;shadow=0;dashed=0;fontColor=#4277BB;fontSize=12;spacingTop=3;image;image=data:image/svg+xml,PHN2ZyB4bWxucz0iaHR0cDovL3d3dy53My5vcmcvMjAwMC9zdmciIHhtbG5zOnhsaW5rPSJodHRwOi8vd3d3LnczLm9yZy8xOTk5L3hsaW5rIiB2aWV3Qm94PSIwIDAgMzIgMzIiPgogIDxkZWZzPgogICAgPHN0eWxlPi5jbHMtMXtmaWxsOiNmZmY7fS5jbHMtMntmaWxsOnVybCgjaWtzLWljb24tbGlnaHQtbGluZWFyLWdyYWRpZW50KTt9LmNscy0ze21hc2s6dXJsKCNpa3MtaWNvbi1saWdodC1tYXNrKTt9LmNscy00e2ZpbGw6dXJsKCNpa3MtaWNvbi1saWdodC1saW5lYXItZ3JhZGllbnQtMik7fS5jbHMtNXtmaWxsOiMwMDFkNmM7fTwvc3R5bGU+CiAgICA8bGluZWFyR3JhZGllbnQgaWQ9Imlrcy1pY29uLWxpZ2h0LWxpbmVhci1ncmFkaWVudCIgeDE9IjI4IiB5MT0iMjIiIHgyPSIyOCIgeTI9IjExIiBncmFkaWVudFVuaXRzPSJ1c2VyU3BhY2VPblVzZSI+CiAgICAgIDxzdG9wIG9mZnNldD0iMCIgc3RvcC1vcGFjaXR5PSIwIi8+CiAgICAgIDxzdG9wIG9mZnNldD0iMC45Ii8+CiAgICA8L2xpbmVhckdyYWRpZW50PgogICAgPG1hc2sgaWQ9Imlrcy1pY29uLWxpZ2h0LW1hc2siIHg9IjAiIHk9IjAiIHdpZHRoPSIzMiIgaGVpZ2h0PSIzMiIgbWFza1VuaXRzPSJ1c2VyU3BhY2VPblVzZSI+CiAgICAgIDxwYXRoIGNsYXNzPSJjbHMtMSIgZD0iTTE2LDMxYS45LjksMCwwLDEtLjUtLjE0bC0xMi03QTEsMSwwLDAsMSwzLDIzVjlhMSwxLDAsMCwxLC41LS44NmwxMi03YTEsMSwwLDAsMSwxLDBsMTIsNy0xLDEuNzJMMTYsMy4xNiw1LDkuNTdWMjIuNDNsMTEsNi40MSwxMS02LjQxVjEyaDJWMjNhMSwxLDAsMCwxLS41Ljg2bC0xMiw3QS45LjksMCwwLDEsMTYsMzFaIi8+CiAgICAgIDxyZWN0IGNsYXNzPSJjbHMtMiIgeD0iMjYiIHk9IjExIiB3aWR0aD0iNCIgaGVpZ2h0PSIxMSIvPgogICAgPC9tYXNrPgogICAgPGxpbmVhckdyYWRpZW50IGlkPSJpa3MtaWNvbi1saWdodC1saW5lYXItZ3JhZGllbnQtMiIgeDE9Ii01ODIzIiB5MT0iLTE5NzkiIHgyPSItNTc5MSIgeTI9Ii0yMDExIiBncmFkaWVudFRyYW5zZm9ybT0ibWF0cml4KDEsIDAsIDAsIC0xLCA1ODIzLCAtMTk3OSkiIGdyYWRpZW50VW5pdHM9InVzZXJTcGFjZU9uVXNlIj4KICAgICAgPHN0b3Agb2Zmc2V0PSIwLjEiIHN0b3AtY29sb3I9IiMzZGRiZDkiLz4KICAgICAgPHN0b3Agb2Zmc2V0PSIwLjkiIHN0b3AtY29sb3I9IiM0NTg5ZmYiLz4KICAgIDwvbGluZWFyR3JhZGllbnQ+CiAgPC9kZWZzPgogIDxnPgogICAgPGcgY2xhc3M9ImNscy0zIj4KICAgICAgPHJlY3QgY2xhc3M9ImNscy00IiB3aWR0aD0iMzIiIGhlaWdodD0iMzIiIHRyYW5zZm9ybT0idHJhbnNsYXRlKDAgMzIpIHJvdGF0ZSgtOTApIi8+CiAgICA8L2c+CiAgICA8Zz4KICAgICAgPHBhdGggY2xhc3M9ImNscy01IiBkPSJNMTYsMjNhMSwxLDAsMCwxLS41MS0uMTRsLTUtM0ExLDEsMCwwLDEsMTAsMTlWMTNhMSwxLDAsMCwxLC40OS0uODZsNS0zYTEsMSwwLDAsMSwxLDBsNSwzQTEsMSwwLDAsMSwyMiwxM3Y2YTEsMSwwLDAsMS0uNDkuODZsLTUsM0ExLDEsMCwwLDEsMTYsMjNabS00LTQuNTcsNCwyLjQsNC0yLjRWMTMuNTdsLTQtMi40LTQsMi40WiIvPgogICAgPC9nPgogIDwvZz4KPC9zdmc+Cg==;strokeColor=#4277BB;strokeWidth=2;labelBackgroundColor=none;rounded=0" parent="_JqYhFXVi5TnirQp-jM5-4" vertex="1">
            <mxGeometry x="148.32999999999998" y="103" width="42" height="42" as="geometry" />
          </mxCell>
        </UserObject>
        <UserObject label="&lt;font color=&quot;#000000&quot;&gt;Cloudant&lt;/font&gt;" id="On1mgmKmofDgwx18le0B-0">
          <mxCell style="aspect=fixed;perimeter=ellipsePerimeter;html=1;align=center;shadow=0;dashed=0;fontColor=#4277BB;fontSize=12;spacingTop=3;image;image=data:image/svg+xml,PHN2ZyBpZD0iQ2xvdWRhbnQiIHhtbG5zPSJodHRwOi8vd3d3LnczLm9yZy8yMDAwL3N2ZyIgeG1sbnM6eGxpbms9Imh0dHA6Ly93d3cudzMub3JnLzE5OTkveGxpbmsiIHZpZXdCb3g9IjAgMCAzMiAzMiI+PGRlZnM+PGxpbmVhckdyYWRpZW50IGlkPSI4dHc2aTE5am9hIiB4MT0iMjAyIiB5MT0iMjQuNSIgeDI9IjIxMCIgeTI9IjI0LjUiIGdyYWRpZW50VHJhbnNmb3JtPSJtYXRyaXgoMSAwIDAgLTEgLTE4NiA0OSkiIGdyYWRpZW50VW5pdHM9InVzZXJTcGFjZU9uVXNlIj48c3RvcCBvZmZzZXQ9IjAiIHN0b3Atb3BhY2l0eT0iMCIvPjxzdG9wIG9mZnNldD0iLjgiLz48L2xpbmVhckdyYWRpZW50PjxsaW5lYXJHcmFkaWVudCBpZD0icGhla29ranJ2YiIgeDE9Ii0zNjgzIiB5MT0iLTcxMTEiIHgyPSItMzY3NSIgeTI9Ii03MTExIiBncmFkaWVudFRyYW5zZm9ybT0ibWF0cml4KDEgMCAwIC0xIDM2OTMgLTcxMDUpIiB4bGluazpocmVmPSIjOHR3NmkxOWpvYSIvPjxsaW5lYXJHcmFkaWVudCBpZD0iaTBocWR3anZnZCIgeDE9IjI3NDIuNTA0IiB5MT0iMzEuNTM4IiB4Mj0iMjcxMS4yODgiIHkyPSIuMzIyIiBncmFkaWVudFRyYW5zZm9ybT0ibWF0cml4KDEgMCAwIC0xIC0yNzEwLjk2NiAzMikiIGdyYWRpZW50VW5pdHM9InVzZXJTcGFjZU9uVXNlIj48c3RvcCBvZmZzZXQ9Ii4xIiBzdG9wLWNvbG9yPSIjMDhiZGJhIi8+PHN0b3Agb2Zmc2V0PSIuOSIgc3RvcC1jb2xvcj0iIzBmNjJmZSIvPjwvbGluZWFyR3JhZGllbnQ+PG1hc2sgaWQ9ImRweHJ6aXNya2MiIHg9IjAiIHk9IjAiIHdpZHRoPSIzMiIgaGVpZ2h0PSIzMiIgbWFza1VuaXRzPSJ1c2VyU3BhY2VPblVzZSI+PHBhdGggZD0iTTQgMTRoMnYtMmE1LjAwNiA1LjAwNiAwIDAgMSA1LTVoNlY1aC02YTcuMDA4IDcuMDA4IDAgMCAwLTcgN3pNMTcgMjZoNGE3LjAwOCA3LjAwOCAwIDAgMCA3LTd2LTJoLTJ2MmE1LjAwNiA1LjAwNiAwIDAgMS01IDVoLTR6IiBzdHlsZT0iZmlsbDojZmZmIi8+PHBhdGggdHJhbnNmb3JtPSJyb3RhdGUoLTE4MCAyMCAyNC41KSIgc3R5bGU9ImZpbGw6dXJsKCM4dHc2aTE5am9hKSIgZD0iTTE2IDIyaDh2NWgtOHoiLz48cGF0aCBzdHlsZT0iZmlsbDp1cmwoI3BoZWtva2pydmIpIiBkPSJNMTAgNGg4djRoLTh6Ii8+PC9tYXNrPjwvZGVmcz48ZyBzdHlsZT0ibWFzazp1cmwoI2RweHJ6aXNya2MpIj48cGF0aCB0cmFuc2Zvcm09InJvdGF0ZSgtMTgwIDE2IDE2KSIgc3R5bGU9ImZpbGw6dXJsKCNpMGhxZHdqdmdkKSIgZD0iTTAgMGgzMnYzMkgweiIvPjwvZz48cGF0aCBkPSJNMjMuOTY5IDJhNS41MjYgNS41MjYgMCAwIDAtNS4yMTcgMy43NjRBNC4yNDggNC4yNDggMCAwIDAgMjAuMjE5IDE0aDcuNjA3YTQuMjQ5IDQuMjQ5IDAgMCAwIDEuMzYtOC4yMzZBNS41MjUgNS41MjUgMCAwIDAgMjMuOTY5IDJ6bS0zLjc1IDEwYTIuMjQ5IDIuMjQ5IDAgMCAxLS40NDktNC40NTNsLjY0My0uMTMxLjEzNS0uNjQyYTMuNSAzLjUgMCAwIDEgNi44NDMgMGwuMTM1LjY0Mi42NDMuMTMxQTIuMjUgMi4yNSAwIDAgMSAyNy44IDEyek05Ljk2OSAxN2gtNmEyIDIgMCAwIDAtMiAydjEwYTIgMiAwIDAgMCAyIDJoNmEyIDIgMCAwIDAgMi0yVjE5YTIgMiAwIDAgMC0yLTJ6bS02IDR2LTJoNnYyem0wIDR2LTJoNnYyem0wIDR2LTJoNnYyeiIgc3R5bGU9ImZpbGw6IzAwMWQ2YyIvPjwvc3ZnPg==;strokeColor=#4277BB;strokeWidth=2;labelBackgroundColor=none;rounded=0" parent="_JqYhFXVi5TnirQp-jM5-4" vertex="1">
            <mxGeometry x="576" y="162" width="60" height="60" as="geometry" />
          </mxCell>
        </UserObject>
        <UserObject link="https://cloud.ibm.com/catalog/services/kms" label="&lt;font color=&quot;#000000&quot;&gt;Key Protect&lt;/font&gt;" id="On1mgmKmofDgwx18le0B-1">
          <mxCell style="aspect=fixed;perimeter=ellipsePerimeter;html=1;align=left;shadow=0;dashed=0;fontColor=#4277BB;fontSize=12;spacingTop=3;image;image=data:image/svg+xml,PD94bWwgdmVyc2lvbj0iMS4wIiBlbmNvZGluZz0idXRmLTgiPz4KPCEtLSBHZW5lcmF0b3I6IEFkb2JlIElsbHVzdHJhdG9yIDI0LjIuMSwgU1ZHIEV4cG9ydCBQbHVnLUluIC4gU1ZHIFZlcnNpb246IDYuMDAgQnVpbGQgMCkgIC0tPgo8c3ZnIHZlcnNpb249IjEuMSIgaWQ9IkNsb3VkLUtleVByb3RlY3RfbGlnaHRfdGhlbWVfaWNvbiIKCSB4bWxucz0iaHR0cDovL3d3dy53My5vcmcvMjAwMC9zdmciIHhtbG5zOnhsaW5rPSJodHRwOi8vd3d3LnczLm9yZy8xOTk5L3hsaW5rIiB4PSIwcHgiIHk9IjBweCIgdmlld0JveD0iMCAwIDMyIDMyIgoJIHN0eWxlPSJlbmFibGUtYmFja2dyb3VuZDpuZXcgMCAwIDMyIDMyOyIgeG1sOnNwYWNlPSJwcmVzZXJ2ZSI+CjxzdHlsZSB0eXBlPSJ0ZXh0L2NzcyI+Cgkuc3Qwe2ZpbGw6I0ZGRkZGRjtmaWx0ZXI6dXJsKCNBZG9iZV9PcGFjaXR5TWFza0ZpbHRlcik7fQoJLnN0MXtmaWxsOnVybCgjU1ZHSURfMV8pO30KCS5zdDJ7bWFzazp1cmwoI2JfMV8pO30KCS5zdDN7ZmlsbDp1cmwoI1NWR0lEXzJfKTt9Cgkuc3Q0e2ZpbGw6IzAwMUQ2Qzt9Cjwvc3R5bGU+CjxkZWZzPgoJPGZpbHRlciBpZD0iQWRvYmVfT3BhY2l0eU1hc2tGaWx0ZXIiIGZpbHRlclVuaXRzPSJ1c2VyU3BhY2VPblVzZSIgeD0iMCIgeT0iMCIgd2lkdGg9IjMyIiBoZWlnaHQ9IjMyIj4KCQk8ZmVDb2xvck1hdHJpeCAgdHlwZT0ibWF0cml4IiB2YWx1ZXM9IjEgMCAwIDAgMCAgMCAxIDAgMCAwICAwIDAgMSAwIDAgIDAgMCAwIDEgMCIvPgoJPC9maWx0ZXI+CjwvZGVmcz4KPG1hc2sgbWFza1VuaXRzPSJ1c2VyU3BhY2VPblVzZSIgeD0iMCIgeT0iMCIgd2lkdGg9IjMyIiBoZWlnaHQ9IjMyIiBpZD0iYl8xXyI+Cgk8cGF0aCBjbGFzcz0ic3QwIiBkPSJNMjQsNHYxNC4zYzAsMy4yLTEuNyw2LjItNC41LDcuOEwxNSwyOC43bC00LjUtMi42QzcuNywyNC41LDYsMjEuNSw2LDE4LjNWNEgyNCBNMjQsMkg2QzQuOSwyLDQsMi45LDQsNHYxNC4zCgkJYzAsMy45LDIuMSw3LjYsNS41LDkuNUwxNSwzMWw1LjUtMy4yYzMuNC0yLDUuNS01LjYsNS41LTkuNVY0QzI2LDIuOSwyNS4xLDIsMjQsMnoiLz4KCQoJCTxsaW5lYXJHcmFkaWVudCBpZD0iU1ZHSURfMV8iIGdyYWRpZW50VW5pdHM9InVzZXJTcGFjZU9uVXNlIiB4MT0iMTEuNzUiIHkxPSI2LjI1IiB4Mj0iMzMuNzUiIHkyPSIyOC4yNSIgZ3JhZGllbnRUcmFuc2Zvcm09Im1hdHJpeCgxIDAgMCAtMSAwIDM0KSI+CgkJPHN0b3AgIG9mZnNldD0iMC4xMyIgc3R5bGU9InN0b3AtY29sb3I6IzAwMDAwMDtzdG9wLW9wYWNpdHk6MCIvPgoJCTxzdG9wICBvZmZzZXQ9IjAuMzgiIHN0eWxlPSJzdG9wLWNvbG9yOiMwMDAwMDAiLz4KCTwvbGluZWFyR3JhZGllbnQ+Cgk8cG9seWdvbiBjbGFzcz0ic3QxIiBwb2ludHM9IjE1LDMxIDI5LDMxIDI5LDEgMTgsMSAxOCw3IDE1LDcgCSIvPgo8L21hc2s+CjxnIGNsYXNzPSJzdDIiPgoJCgkJPGxpbmVhckdyYWRpZW50IGlkPSJTVkdJRF8yXyIgZ3JhZGllbnRVbml0cz0idXNlclNwYWNlT25Vc2UiIHgxPSItMS44MTg5ODllLTEyIiB5MT0iMiIgeDI9IjMyIiB5Mj0iMzQiIGdyYWRpZW50VHJhbnNmb3JtPSJtYXRyaXgoMSAwIDAgLTEgMCAzNCkiPgoJCTxzdG9wICBvZmZzZXQ9IjAuMSIgc3R5bGU9InN0b3AtY29sb3I6I0E1NkVGRiIvPgoJCTxzdG9wICBvZmZzZXQ9IjAuOSIgc3R5bGU9InN0b3AtY29sb3I6IzBGNjJGRSIvPgoJPC9saW5lYXJHcmFkaWVudD4KCTxyZWN0IGNsYXNzPSJzdDMiIHdpZHRoPSIzMiIgaGVpZ2h0PSIzMiIvPgo8L2c+CjxwYXRoIGNsYXNzPSJzdDQiIGQ9Ik0yNiwxNC4xVjJoLTV2MmgzdjJoLTN2MmgzdjYuMWMtMi4xLDAuNi0zLjQsMi43LTIuOSw0LjljMC42LDIuMSwyLjcsMy40LDQuOSwyLjljMi4xLTAuNiwzLjQtMi43LDIuOS00LjkKCUMyOC41LDE1LjYsMjcuNCwxNC41LDI2LDE0LjF6IE0yNSwyMGMtMS4xLDAtMi0wLjktMi0yczAuOS0yLDItMnMyLDAuOSwyLDJTMjYuMSwyMCwyNSwyMHoiLz4KPC9zdmc+Cg==;strokeColor=#4277BB;strokeWidth=2;labelBackgroundColor=none;rounded=0;labelPosition=right;verticalLabelPosition=middle;verticalAlign=middle;" parent="_JqYhFXVi5TnirQp-jM5-4" vertex="1">
            <mxGeometry x="478.28" y="348" width="60" height="60" as="geometry" />
          </mxCell>
        </UserObject>
        <mxCell id="_JqYhFXVi5TnirQp-jM5-19" style="edgeStyle=orthogonalEdgeStyle;rounded=0;orthogonalLoop=1;jettySize=auto;html=1;entryX=0;entryY=0.5;entryDx=0;entryDy=0;" parent="_JqYhFXVi5TnirQp-jM5-1" source="_JqYhFXVi5TnirQp-jM5-27" target="_JqYhFXVi5TnirQp-jM5-24" edge="1">
          <mxGeometry relative="1" as="geometry" />
        </mxCell>
        <mxCell id="_JqYhFXVi5TnirQp-jM5-20" value="&lt;font color=&quot;#000000&quot;&gt;User&lt;/font&gt;" style="aspect=fixed;perimeter=ellipsePerimeter;html=1;align=center;shadow=0;dashed=0;fontColor=#4277BB;labelBackgroundColor=#ffffff;fontSize=12;spacingTop=3;image;image=img/lib/ibm/users/user.svg;" parent="_JqYhFXVi5TnirQp-jM5-1" vertex="1">
          <mxGeometry x="49" y="410.5" width="60" height="60" as="geometry" />
        </mxCell>
        <mxCell id="_JqYhFXVi5TnirQp-jM5-21" style="edgeStyle=orthogonalEdgeStyle;rounded=0;orthogonalLoop=1;jettySize=auto;html=1;" parent="_JqYhFXVi5TnirQp-jM5-1" target="_JqYhFXVi5TnirQp-jM5-24" edge="1">
          <mxGeometry relative="1" as="geometry">
            <mxPoint x="501" y="300" as="sourcePoint" />
          </mxGeometry>
        </mxCell>
        <mxCell id="_JqYhFXVi5TnirQp-jM5-23" style="edgeStyle=orthogonalEdgeStyle;rounded=0;orthogonalLoop=1;jettySize=auto;html=1;entryX=0;entryY=0.75;entryDx=0;entryDy=0;" parent="_JqYhFXVi5TnirQp-jM5-1" source="_JqYhFXVi5TnirQp-jM5-24" target="_JqYhFXVi5TnirQp-jM5-15" edge="1">
          <mxGeometry relative="1" as="geometry">
            <mxPoint x="648" y="441" as="targetPoint" />
          </mxGeometry>
        </mxCell>
        <mxCell id="_JqYhFXVi5TnirQp-jM5-24" value="&lt;span style=&quot;background-color: rgb(245 , 245 , 245)&quot;&gt;&lt;font color=&quot;#000000&quot;&gt;Application&lt;/font&gt;&lt;/span&gt;" style="aspect=fixed;perimeter=ellipsePerimeter;html=1;align=center;shadow=0;dashed=0;fontColor=#4277BB;labelBackgroundColor=#ffffff;fontSize=12;spacingTop=3;image;image=img/lib/ibm/applications/enterprise_applications.svg;" parent="_JqYhFXVi5TnirQp-jM5-1" vertex="1">
          <mxGeometry x="471" y="410.5" width="60" height="60" as="geometry" />
        </mxCell>
        <mxCell id="_JqYhFXVi5TnirQp-jM5-25" value="&lt;h5&gt;4&lt;/h5&gt;" style="ellipse;whiteSpace=wrap;html=1;aspect=fixed;" parent="_JqYhFXVi5TnirQp-jM5-1" vertex="1">
          <mxGeometry x="511" y="351.5" width="20" height="20" as="geometry" />
        </mxCell>
        <mxCell id="_JqYhFXVi5TnirQp-jM5-26" value="&lt;h5&gt;7&lt;/h5&gt;" style="ellipse;whiteSpace=wrap;html=1;aspect=fixed;" parent="_JqYhFXVi5TnirQp-jM5-1" vertex="1">
          <mxGeometry x="728" y="277" width="20" height="20" as="geometry" />
        </mxCell>
        <mxCell id="_JqYhFXVi5TnirQp-jM5-27" value="Ingress" style="rounded=1;whiteSpace=wrap;html=1;labelPosition=center;verticalLabelPosition=top;align=left;verticalAlign=bottom;spacing=-19;spacingLeft=25;fillColor=#dae8fc;strokeColor=#6c8ebf;" parent="_JqYhFXVi5TnirQp-jM5-1" vertex="1">
          <mxGeometry x="190" y="390" width="228" height="101" as="geometry" />
        </mxCell>
        <mxCell id="_JqYhFXVi5TnirQp-jM5-28" style="edgeStyle=orthogonalEdgeStyle;rounded=0;orthogonalLoop=1;jettySize=auto;html=1;strokeWidth=1;" parent="_JqYhFXVi5TnirQp-jM5-1" source="_JqYhFXVi5TnirQp-jM5-20" target="_JqYhFXVi5TnirQp-jM5-29" edge="1">
          <mxGeometry relative="1" as="geometry" />
        </mxCell>
        <mxCell id="_JqYhFXVi5TnirQp-jM5-29" value="TLS&lt;br&gt;Cert" style="rounded=1;whiteSpace=wrap;html=1;" parent="_JqYhFXVi5TnirQp-jM5-1" vertex="1">
          <mxGeometry x="209" y="415.5" width="82" height="50" as="geometry" />
        </mxCell>
        <mxCell id="_JqYhFXVi5TnirQp-jM5-30" value="Auth" style="rounded=1;whiteSpace=wrap;html=1;" parent="_JqYhFXVi5TnirQp-jM5-1" vertex="1">
          <mxGeometry x="320" y="415.5" width="82" height="50" as="geometry" />
        </mxCell>
        <mxCell id="_JqYhFXVi5TnirQp-jM5-31" value="&lt;h5&gt;1&lt;/h5&gt;" style="ellipse;whiteSpace=wrap;html=1;aspect=fixed;" parent="_JqYhFXVi5TnirQp-jM5-1" vertex="1">
          <mxGeometry x="118" y="410.5" width="20" height="20" as="geometry" />
        </mxCell>
        <mxCell id="_JqYhFXVi5TnirQp-jM5-32" style="edgeStyle=orthogonalEdgeStyle;rounded=0;orthogonalLoop=1;jettySize=auto;html=1;entryX=0.5;entryY=1;entryDx=0;entryDy=0;exitX=0.5;exitY=0;exitDx=0;exitDy=0;" parent="_JqYhFXVi5TnirQp-jM5-1" target="_JqYhFXVi5TnirQp-jM5-29" edge="1">
          <mxGeometry relative="1" as="geometry">
            <mxPoint x="250" y="585" as="sourcePoint" />
          </mxGeometry>
        </mxCell>
        <mxCell id="_JqYhFXVi5TnirQp-jM5-33" style="edgeStyle=orthogonalEdgeStyle;rounded=0;orthogonalLoop=1;jettySize=auto;html=1;entryX=0.5;entryY=0;entryDx=0;entryDy=0;" parent="_JqYhFXVi5TnirQp-jM5-1" source="_JqYhFXVi5TnirQp-jM5-30" target="_JqYhFXVi5TnirQp-jM5-9" edge="1">
          <mxGeometry relative="1" as="geometry" />
        </mxCell>
        <UserObject label="&lt;font color=&quot;#000000&quot;&gt;Container&lt;br&gt;Registry&lt;/font&gt;" id="GMaopgSoOFi8x1nVH5ua-0">
          <mxCell style="aspect=fixed;perimeter=ellipsePerimeter;html=1;align=left;shadow=0;dashed=0;fontColor=#4277BB;fontSize=12;spacingTop=3;image;image=data:image/svg+xml,PHN2ZyB4bWxucz0iaHR0cDovL3d3dy53My5vcmcvMjAwMC9zdmciIHhtbG5zOnhsaW5rPSJodHRwOi8vd3d3LnczLm9yZy8xOTk5L3hsaW5rIiB2aWV3Qm94PSIwIDAgMzIgMzIiPgogIDxkZWZzPgogICAgPGxpbmVhckdyYWRpZW50IGlkPSJiNGNjMzZmMy04N2FiLTQ4YjMtODg3ZS05YzFhYzg3NDI5ZTciIHgxPSI3NjYuMzY1IiB5MT0iLTc3MC41NCIgeDI9Ijc3NS41NTciIHkyPSItNzc5LjczMyIgZ3JhZGllbnRUcmFuc2Zvcm09InRyYW5zbGF0ZSgtMTA3Ny43NTYgMzEuNDUzKSByb3RhdGUoNDUpIiBncmFkaWVudFVuaXRzPSJ1c2VyU3BhY2VPblVzZSI+CiAgICAgIDxzdG9wIG9mZnNldD0iMC4wMjQiIHN0b3Atb3BhY2l0eT0iMCIvPgogICAgICA8c3RvcCBvZmZzZXQ9IjAuNjQiLz4KICAgIDwvbGluZWFyR3JhZGllbnQ+CiAgICA8bWFzayBpZD0iYWVmNGQzYjMtNjM5Ni00ODY2LWI2MjAtOGRmOGNiZTg4ZDUwIiB4PSIwIiB5PSIwIiB3aWR0aD0iMzIiIGhlaWdodD0iMzIiIG1hc2tVbml0cz0idXNlclNwYWNlT25Vc2UiPgogICAgICA8cGF0aCBkPSJNMjEsMzBINGEyLDIsMCwwLDEtMi0yVjRBMiwyLDAsMCwxLDQsMkgyOGEyLDIsMCwwLDEsMiwyVjE2SDI4VjRINFYyOEgyMVoiIGZpbGw9IiNmZmYiLz4KICAgICAgPHJlY3QgeD0iOSIgeT0iMjYiIHdpZHRoPSIxMyIgaGVpZ2h0PSI1IiBmaWxsPSJ1cmwoI2I0Y2MzNmYzLTg3YWItNDhiMy04ODdlLTljMWFjODc0MjllNykiLz4KICAgIDwvbWFzaz4KICAgIDxsaW5lYXJHcmFkaWVudCBpZD0iYTk5N2EwODAtNWY1OC00ZDA0LWFhYjktYmYxNTAzNTZlMzcxIiB5MT0iMzIiIHgyPSIzMiIgZ3JhZGllbnRVbml0cz0idXNlclNwYWNlT25Vc2UiPgogICAgICA8c3RvcCBvZmZzZXQ9IjAuMSIgc3RvcC1jb2xvcj0iIzA4YmRiYSIvPgogICAgICA8c3RvcCBvZmZzZXQ9IjAuOSIgc3RvcC1jb2xvcj0iIzBmNjJmZSIvPgogICAgPC9saW5lYXJHcmFkaWVudD4KICA8L2RlZnM+CiAgPGcgaWQ9ImFlZDBhM2Q1LWY1MzItNGJmYy1iZjU5LWE0ZDIwMGFkZGNjZSIgZGF0YS1uYW1lPSJMYXllciAyIj4KICAgIDxnIGlkPSJhMDk1MDkzMi1lYzAwLTQ2MTEtOWIyMC0xYzFiYTIxYjJjYTUiIGRhdGEtbmFtZT0iQnVpbGQgaWNvbiBoZXJlIj4KICAgICAgPGc+CiAgICAgICAgPGcgbWFzaz0idXJsKCNhZWY0ZDNiMy02Mzk2LTQ4NjYtYjYyMC04ZGY4Y2JlODhkNTApIj4KICAgICAgICAgIDxyZWN0IHdpZHRoPSIzMiIgaGVpZ2h0PSIzMiIgZmlsbD0idXJsKCNhOTk3YTA4MC01ZjU4LTRkMDQtYWFiOS1iZjE1MDM1NmUzNzEpIi8+CiAgICAgICAgPC9nPgogICAgICAgIDxwYXRoIGQ9Ik0yOCwzMEgyM2EyLDIsMCwwLDEtMi0yVjIzYTIsMiwwLDAsMSwyLTJoNWEyLDIsMCwwLDEsMiwydjVBMiwyLDAsMCwxLDI4LDMwWm0tNS03aDBsMCw1aDVWMjNaIiBmaWxsPSIjMDAxZDZjIi8+CiAgICAgICAgPHBhdGggZD0iTTE2LDIzSDExYTIsMiwwLDAsMS0yLTJWMTFhMiwyLDAsMCwxLDItMkgyMWEyLDIsMCwwLDEsMiwydjVIMjFWMTFIMTFWMjFoNVoiIGZpbGw9IiMwMDFkNmMiLz4KICAgICAgPC9nPgogICAgPC9nPgogIDwvZz4KPC9zdmc+Cg==;strokeColor=#4277BB;strokeWidth=2;labelBackgroundColor=none;rounded=0;fillColor=none;labelPosition=right;verticalLabelPosition=middle;verticalAlign=middle;" parent="_JqYhFXVi5TnirQp-jM5-1" vertex="1">
            <mxGeometry x="470" y="240" width="60" height="60" as="geometry" />
          </mxCell>
        </UserObject>
      </root>
    </mxGraphModel>
  </diagram>
  <diagram name="Diagram 2023-01 Update" id="8L4p_G9NsdRdebVqErJp">
    <mxGraphModel dx="1569" dy="1027" grid="1" gridSize="10" guides="1" tooltips="1" connect="1" arrows="1" fold="1" page="1" pageScale="1" pageWidth="827" pageHeight="1169" math="0" shadow="0">
      <root>
        <mxCell id="aGzLBYTYVUwFU0cL0Yie-0" />
        <mxCell id="aGzLBYTYVUwFU0cL0Yie-1" parent="aGzLBYTYVUwFU0cL0Yie-0" />
        <mxCell id="aGzLBYTYVUwFU0cL0Yie-2" value="Public Network" style="shape=mxgraph.ibm.box;prType=public;fontStyle=0;verticalAlign=top;align=left;spacingLeft=32;spacingTop=4;fillColor=none;rounded=0;whiteSpace=wrap;html=1;strokeColor=#4376BB;strokeWidth=3;dashed=0;container=0;spacing=-4;collapsible=0;" parent="aGzLBYTYVUwFU0cL0Yie-1" vertex="1">
          <mxGeometry x="12" y="200" width="128" height="620" as="geometry" />
        </mxCell>
        <mxCell id="aGzLBYTYVUwFU0cL0Yie-3" value="IBM Cloud" style="shape=mxgraph.ibm.box;prType=cloud;fontStyle=0;verticalAlign=top;align=left;spacingLeft=32;spacingTop=4;fillColor=none;rounded=0;whiteSpace=wrap;html=1;strokeColor=#4376BB;strokeWidth=3;dashed=0;container=0;spacing=-4;collapsible=0;" parent="aGzLBYTYVUwFU0cL0Yie-1" vertex="1">
          <mxGeometry x="140" y="200" width="738" height="620" as="geometry" />
        </mxCell>
        <mxCell id="aGzLBYTYVUwFU0cL0Yie-4" value="&amp;nbsp; &amp;nbsp; &amp;nbsp; &amp;nbsp; &amp;nbsp; &amp;nbsp;Kubernetes Cluster" style="rounded=1;whiteSpace=wrap;html=1;align=left;verticalAlign=top;fillColor=#f5f5f5;strokeColor=#666666;fontColor=#333333;" parent="aGzLBYTYVUwFU0cL0Yie-1" vertex="1">
          <mxGeometry x="318" y="327" width="241" height="201" as="geometry" />
        </mxCell>
        <mxCell id="aGzLBYTYVUwFU0cL0Yie-5" value="Region" style="shape=mxgraph.ibm.box;prType=region;fontStyle=0;verticalAlign=top;align=left;spacingLeft=32;spacingTop=4;fillColor=none;rounded=0;whiteSpace=wrap;html=1;strokeColor=#919191;strokeWidth=2;dashed=0;container=0;spacing=-4;collapsible=0;" parent="aGzLBYTYVUwFU0cL0Yie-1" vertex="1">
          <mxGeometry x="178" y="237" width="670" height="473" as="geometry" />
        </mxCell>
        <mxCell id="aGzLBYTYVUwFU0cL0Yie-20" style="edgeStyle=orthogonalEdgeStyle;rounded=0;orthogonalLoop=1;jettySize=auto;html=1;entryX=0;entryY=0.5;entryDx=0;entryDy=0;" parent="aGzLBYTYVUwFU0cL0Yie-1" source="aGzLBYTYVUwFU0cL0Yie-27" target="aGzLBYTYVUwFU0cL0Yie-24" edge="1">
          <mxGeometry relative="1" as="geometry" />
        </mxCell>
        <mxCell id="aGzLBYTYVUwFU0cL0Yie-21" value="&lt;font color=&quot;#000000&quot;&gt;User&lt;/font&gt;" style="aspect=fixed;perimeter=ellipsePerimeter;html=1;align=center;shadow=0;dashed=0;fontColor=#4277BB;labelBackgroundColor=#ffffff;fontSize=12;spacingTop=3;image;image=img/lib/ibm/users/user.svg;" parent="aGzLBYTYVUwFU0cL0Yie-1" vertex="1">
          <mxGeometry x="49" y="410.5" width="60" height="60" as="geometry" />
        </mxCell>
        <mxCell id="aGzLBYTYVUwFU0cL0Yie-22" style="edgeStyle=orthogonalEdgeStyle;rounded=0;orthogonalLoop=1;jettySize=auto;html=1;" parent="aGzLBYTYVUwFU0cL0Yie-1" target="aGzLBYTYVUwFU0cL0Yie-24" edge="1">
          <mxGeometry relative="1" as="geometry">
            <mxPoint x="501" y="300" as="sourcePoint" />
          </mxGeometry>
        </mxCell>
        <mxCell id="aGzLBYTYVUwFU0cL0Yie-23" style="edgeStyle=orthogonalEdgeStyle;rounded=0;orthogonalLoop=1;jettySize=auto;html=1;entryX=0;entryY=0.75;entryDx=0;entryDy=0;" parent="aGzLBYTYVUwFU0cL0Yie-1" source="aGzLBYTYVUwFU0cL0Yie-24" target="aGzLBYTYVUwFU0cL0Yie-14" edge="1">
          <mxGeometry relative="1" as="geometry">
            <mxPoint x="648" y="441" as="targetPoint" />
          </mxGeometry>
        </mxCell>
        <mxCell id="aGzLBYTYVUwFU0cL0Yie-24" value="&lt;span style=&quot;background-color: rgb(245 , 245 , 245)&quot;&gt;&lt;font color=&quot;#000000&quot;&gt;Application&lt;/font&gt;&lt;/span&gt;" style="aspect=fixed;perimeter=ellipsePerimeter;html=1;align=center;shadow=0;dashed=0;fontColor=#4277BB;labelBackgroundColor=#ffffff;fontSize=12;spacingTop=3;image;image=img/lib/ibm/applications/enterprise_applications.svg;" parent="aGzLBYTYVUwFU0cL0Yie-1" vertex="1">
          <mxGeometry x="471" y="410.5" width="60" height="60" as="geometry" />
        </mxCell>
        <mxCell id="aGzLBYTYVUwFU0cL0Yie-25" value="&lt;h5&gt;4&lt;/h5&gt;" style="ellipse;whiteSpace=wrap;html=1;aspect=fixed;" parent="aGzLBYTYVUwFU0cL0Yie-1" vertex="1">
          <mxGeometry x="511" y="351.5" width="20" height="20" as="geometry" />
        </mxCell>
        <mxCell id="aGzLBYTYVUwFU0cL0Yie-26" value="&lt;h5&gt;7&lt;/h5&gt;" style="ellipse;whiteSpace=wrap;html=1;aspect=fixed;" parent="aGzLBYTYVUwFU0cL0Yie-1" vertex="1">
          <mxGeometry x="728" y="277" width="20" height="20" as="geometry" />
        </mxCell>
        <mxCell id="aGzLBYTYVUwFU0cL0Yie-27" value="Ingress" style="rounded=1;whiteSpace=wrap;html=1;labelPosition=center;verticalLabelPosition=top;align=left;verticalAlign=bottom;spacing=-19;spacingLeft=25;fillColor=#dae8fc;strokeColor=#6c8ebf;" parent="aGzLBYTYVUwFU0cL0Yie-1" vertex="1">
          <mxGeometry x="190" y="390" width="228" height="101" as="geometry" />
        </mxCell>
        <mxCell id="aGzLBYTYVUwFU0cL0Yie-28" style="edgeStyle=orthogonalEdgeStyle;rounded=0;orthogonalLoop=1;jettySize=auto;html=1;strokeWidth=1;" parent="aGzLBYTYVUwFU0cL0Yie-1" source="aGzLBYTYVUwFU0cL0Yie-21" target="aGzLBYTYVUwFU0cL0Yie-29" edge="1">
          <mxGeometry relative="1" as="geometry" />
        </mxCell>
        <mxCell id="aGzLBYTYVUwFU0cL0Yie-29" value="TLS&lt;br&gt;Cert" style="rounded=1;whiteSpace=wrap;html=1;" parent="aGzLBYTYVUwFU0cL0Yie-1" vertex="1">
          <mxGeometry x="209" y="415.5" width="82" height="50" as="geometry" />
        </mxCell>
        <mxCell id="aGzLBYTYVUwFU0cL0Yie-30" value="Auth" style="rounded=1;whiteSpace=wrap;html=1;" parent="aGzLBYTYVUwFU0cL0Yie-1" vertex="1">
          <mxGeometry x="320" y="415.5" width="82" height="50" as="geometry" />
        </mxCell>
        <mxCell id="aGzLBYTYVUwFU0cL0Yie-31" value="&lt;h5&gt;1&lt;/h5&gt;" style="ellipse;whiteSpace=wrap;html=1;aspect=fixed;" parent="aGzLBYTYVUwFU0cL0Yie-1" vertex="1">
          <mxGeometry x="118" y="410.5" width="20" height="20" as="geometry" />
        </mxCell>
        <mxCell id="aGzLBYTYVUwFU0cL0Yie-32" style="edgeStyle=orthogonalEdgeStyle;rounded=0;orthogonalLoop=1;jettySize=auto;html=1;entryX=0.5;entryY=1;entryDx=0;entryDy=0;exitX=0.5;exitY=0;exitDx=0;exitDy=0;" parent="aGzLBYTYVUwFU0cL0Yie-1" target="aGzLBYTYVUwFU0cL0Yie-29" edge="1">
          <mxGeometry relative="1" as="geometry">
            <mxPoint x="250" y="585" as="sourcePoint" />
          </mxGeometry>
        </mxCell>
        <mxCell id="aGzLBYTYVUwFU0cL0Yie-33" style="edgeStyle=orthogonalEdgeStyle;rounded=0;orthogonalLoop=1;jettySize=auto;html=1;entryX=0.5;entryY=0;entryDx=0;entryDy=0;" parent="aGzLBYTYVUwFU0cL0Yie-1" source="aGzLBYTYVUwFU0cL0Yie-30" target="aGzLBYTYVUwFU0cL0Yie-9" edge="1">
          <mxGeometry relative="1" as="geometry" />
        </mxCell>
        <UserObject label="&lt;font color=&quot;#000000&quot;&gt;Container&lt;br&gt;Registry&lt;/font&gt;" id="aGzLBYTYVUwFU0cL0Yie-34">
          <mxCell style="aspect=fixed;perimeter=ellipsePerimeter;html=1;align=left;shadow=0;dashed=0;fontColor=#4277BB;fontSize=12;spacingTop=3;image;image=data:image/svg+xml,PHN2ZyB4bWxucz0iaHR0cDovL3d3dy53My5vcmcvMjAwMC9zdmciIHhtbG5zOnhsaW5rPSJodHRwOi8vd3d3LnczLm9yZy8xOTk5L3hsaW5rIiB2aWV3Qm94PSIwIDAgMzIgMzIiPgogIDxkZWZzPgogICAgPGxpbmVhckdyYWRpZW50IGlkPSJiNGNjMzZmMy04N2FiLTQ4YjMtODg3ZS05YzFhYzg3NDI5ZTciIHgxPSI3NjYuMzY1IiB5MT0iLTc3MC41NCIgeDI9Ijc3NS41NTciIHkyPSItNzc5LjczMyIgZ3JhZGllbnRUcmFuc2Zvcm09InRyYW5zbGF0ZSgtMTA3Ny43NTYgMzEuNDUzKSByb3RhdGUoNDUpIiBncmFkaWVudFVuaXRzPSJ1c2VyU3BhY2VPblVzZSI+CiAgICAgIDxzdG9wIG9mZnNldD0iMC4wMjQiIHN0b3Atb3BhY2l0eT0iMCIvPgogICAgICA8c3RvcCBvZmZzZXQ9IjAuNjQiLz4KICAgIDwvbGluZWFyR3JhZGllbnQ+CiAgICA8bWFzayBpZD0iYWVmNGQzYjMtNjM5Ni00ODY2LWI2MjAtOGRmOGNiZTg4ZDUwIiB4PSIwIiB5PSIwIiB3aWR0aD0iMzIiIGhlaWdodD0iMzIiIG1hc2tVbml0cz0idXNlclNwYWNlT25Vc2UiPgogICAgICA8cGF0aCBkPSJNMjEsMzBINGEyLDIsMCwwLDEtMi0yVjRBMiwyLDAsMCwxLDQsMkgyOGEyLDIsMCwwLDEsMiwyVjE2SDI4VjRINFYyOEgyMVoiIGZpbGw9IiNmZmYiLz4KICAgICAgPHJlY3QgeD0iOSIgeT0iMjYiIHdpZHRoPSIxMyIgaGVpZ2h0PSI1IiBmaWxsPSJ1cmwoI2I0Y2MzNmYzLTg3YWItNDhiMy04ODdlLTljMWFjODc0MjllNykiLz4KICAgIDwvbWFzaz4KICAgIDxsaW5lYXJHcmFkaWVudCBpZD0iYTk5N2EwODAtNWY1OC00ZDA0LWFhYjktYmYxNTAzNTZlMzcxIiB5MT0iMzIiIHgyPSIzMiIgZ3JhZGllbnRVbml0cz0idXNlclNwYWNlT25Vc2UiPgogICAgICA8c3RvcCBvZmZzZXQ9IjAuMSIgc3RvcC1jb2xvcj0iIzA4YmRiYSIvPgogICAgICA8c3RvcCBvZmZzZXQ9IjAuOSIgc3RvcC1jb2xvcj0iIzBmNjJmZSIvPgogICAgPC9saW5lYXJHcmFkaWVudD4KICA8L2RlZnM+CiAgPGcgaWQ9ImFlZDBhM2Q1LWY1MzItNGJmYy1iZjU5LWE0ZDIwMGFkZGNjZSIgZGF0YS1uYW1lPSJMYXllciAyIj4KICAgIDxnIGlkPSJhMDk1MDkzMi1lYzAwLTQ2MTEtOWIyMC0xYzFiYTIxYjJjYTUiIGRhdGEtbmFtZT0iQnVpbGQgaWNvbiBoZXJlIj4KICAgICAgPGc+CiAgICAgICAgPGcgbWFzaz0idXJsKCNhZWY0ZDNiMy02Mzk2LTQ4NjYtYjYyMC04ZGY4Y2JlODhkNTApIj4KICAgICAgICAgIDxyZWN0IHdpZHRoPSIzMiIgaGVpZ2h0PSIzMiIgZmlsbD0idXJsKCNhOTk3YTA4MC01ZjU4LTRkMDQtYWFiOS1iZjE1MDM1NmUzNzEpIi8+CiAgICAgICAgPC9nPgogICAgICAgIDxwYXRoIGQ9Ik0yOCwzMEgyM2EyLDIsMCwwLDEtMi0yVjIzYTIsMiwwLDAsMSwyLTJoNWEyLDIsMCwwLDEsMiwydjVBMiwyLDAsMCwxLDI4LDMwWm0tNS03aDBsMCw1aDVWMjNaIiBmaWxsPSIjMDAxZDZjIi8+CiAgICAgICAgPHBhdGggZD0iTTE2LDIzSDExYTIsMiwwLDAsMS0yLTJWMTFhMiwyLDAsMCwxLDItMkgyMWEyLDIsMCwwLDEsMiwydjVIMjFWMTFIMTFWMjFoNVoiIGZpbGw9IiMwMDFkNmMiLz4KICAgICAgPC9nPgogICAgPC9nPgogIDwvZz4KPC9zdmc+Cg==;strokeColor=#4277BB;strokeWidth=2;labelBackgroundColor=none;rounded=0;fillColor=none;labelPosition=right;verticalLabelPosition=middle;verticalAlign=middle;" parent="aGzLBYTYVUwFU0cL0Yie-1" vertex="1">
            <mxGeometry x="470" y="240" width="60" height="60" as="geometry" />
          </mxCell>
        </UserObject>
        <mxCell id="aGzLBYTYVUwFU0cL0Yie-6" value="&lt;h5&gt;5&lt;/h5&gt;" style="ellipse;whiteSpace=wrap;html=1;aspect=fixed;" parent="aGzLBYTYVUwFU0cL0Yie-1" vertex="1">
          <mxGeometry x="595.742492698065" y="416.99862804878046" width="18.77588587206627" height="18.77588587206627" as="geometry" />
        </mxCell>
        <UserObject link="https://cloud.ibm.com/catalog/services/logdnaat" label="&lt;font color=&quot;#000000&quot;&gt;Cloud Activity&lt;br&gt;Tracker&lt;/font&gt;" id="aGzLBYTYVUwFU0cL0Yie-7">
          <mxCell style="aspect=fixed;perimeter=ellipsePerimeter;html=1;align=center;shadow=0;dashed=0;fontColor=#4277BB;fontSize=12;spacingTop=3;image;image=data:image/svg+xml,PHN2ZyBpZD0iQnVpbGRfaWNvbl9oZXJlIiBkYXRhLW5hbWU9IkJ1aWxkIGljb24gaGVyZSIgeG1sbnM9Imh0dHA6Ly93d3cudzMub3JnLzIwMDAvc3ZnIiB4bWxuczp4bGluaz0iaHR0cDovL3d3dy53My5vcmcvMTk5OS94bGluayIgdmlld0JveD0iMCAwIDMyIDMyIj4KICA8ZGVmcz4KICAgIDxsaW5lYXJHcmFkaWVudCBpZD0ibGluZWFyLWdyYWRpZW50IiB4MT0iOCIgeTE9IjUiIHgyPSIyMSIgeTI9IjUiIGdyYWRpZW50VW5pdHM9InVzZXJTcGFjZU9uVXNlIj4KICAgICAgPHN0b3Agb2Zmc2V0PSIwIiBzdG9wLW9wYWNpdHk9IjAiLz4KICAgICAgPHN0b3Agb2Zmc2V0PSIwLjciLz4KICAgIDwvbGluZWFyR3JhZGllbnQ+CiAgICA8bWFzayBpZD0ibWFzayIgeD0iMCIgeT0iMCIgd2lkdGg9IjMyIiBoZWlnaHQ9IjMyIiBtYXNrVW5pdHM9InVzZXJTcGFjZU9uVXNlIj4KICAgICAgPGc+CiAgICAgICAgPHBhdGggZD0iTTI4LDE2djZINFY2SDIwVjRINEEyLDIsMCwwLDAsMiw2VjIyYTIsMiwwLDAsMCwyLDJoOHY0SDh2MkgyNFYyOEgyMFYyNGg4YTIsMiwwLDAsMCwyLTJWMTZaTTE4LDI4SDE0VjI0aDRaIiBzdHlsZT0iZmlsbDogI2ZmZiIvPgogICAgICAgIDxyZWN0IHg9IjgiIHk9IjMiIHdpZHRoPSIxMyIgaGVpZ2h0PSI0IiBzdHlsZT0iZmlsbDogdXJsKCNsaW5lYXItZ3JhZGllbnQpIi8+CiAgICAgIDwvZz4KICAgIDwvbWFzaz4KICAgIDxsaW5lYXJHcmFkaWVudCBpZD0ibGluZWFyLWdyYWRpZW50LTIiIHgxPSItMzUwMy44MjQiIHkxPSIzMiIgeDI9Ii0zNTMzLjk0MSIgZ3JhZGllbnRUcmFuc2Zvcm09Im1hdHJpeCgxLjA2MywgMCwgMCwgLTEsIDM3NTQuODEzLCAzMikiIGdyYWRpZW50VW5pdHM9InVzZXJTcGFjZU9uVXNlIj4KICAgICAgPHN0b3Agb2Zmc2V0PSIwLjEiIHN0b3AtY29sb3I9IiM0MmJlNjUiLz4KICAgICAgPHN0b3Agb2Zmc2V0PSIwLjkiIHN0b3AtY29sb3I9IiMwMDdkNzkiLz4KICAgIDwvbGluZWFyR3JhZGllbnQ+CiAgPC9kZWZzPgogIDxnPgogICAgPGcgc3R5bGU9Im1hc2s6IHVybCgjbWFzaykiPgogICAgICA8cmVjdCB3aWR0aD0iMzIiIGhlaWdodD0iMzIiIHRyYW5zZm9ybT0idHJhbnNsYXRlKDMyIDMyKSByb3RhdGUoMTgwKSIgc3R5bGU9ImZpbGw6IHVybCgjbGluZWFyLWdyYWRpZW50LTIpIi8+CiAgICA8L2c+CiAgICA8cG9seWdvbiBwb2ludHM9IjIxIDE1IDE2IDEwLjA0IDE3LjU5IDguNDcgMjEgMTEuODUgMjguNDEgNC41IDMwIDYuMDggMjEgMTUiIHN0eWxlPSJmaWxsOiAjMDAxZDZjIi8+CiAgPC9nPgo8L3N2Zz4K;strokeColor=#4277BB;strokeWidth=2;labelBackgroundColor=none;rounded=0;fillColor=#E0E0E0;" parent="aGzLBYTYVUwFU0cL0Yie-1" vertex="1">
            <mxGeometry x="757.1818546914932" y="259.8048780487805" width="56.3276576161988" height="56.3276576161988" as="geometry" />
          </mxCell>
        </UserObject>
        <mxCell id="aGzLBYTYVUwFU0cL0Yie-8" style="edgeStyle=orthogonalEdgeStyle;rounded=0;orthogonalLoop=1;jettySize=auto;html=1;" parent="aGzLBYTYVUwFU0cL0Yie-1" edge="1">
          <mxGeometry relative="1" as="geometry">
            <mxPoint x="378" y="619.1952830188679" as="sourcePoint" />
            <mxPoint x="668" y="619.1952830188679" as="targetPoint" />
          </mxGeometry>
        </mxCell>
        <mxCell id="aGzLBYTYVUwFU0cL0Yie-9" value="&lt;font color=&quot;#000000&quot;&gt;App ID&lt;/font&gt;" style="aspect=fixed;perimeter=ellipsePerimeter;html=1;align=center;shadow=0;dashed=0;fontColor=#4277BB;fontSize=12;spacingTop=3;image;image=data:image/png,iVBORw0KGgoAAAANSUhEUgAAADIAAAAyCAYAAAAeP4ixAAACRklEQVR4Ae3BIW/jZgAA0JfvAgwmzR8LDAwYCCxb9geqwsI78PGNlU2DRUcneaDw4Ekdv8DATBoYOGAYZkOzTZNVRVWl2U7iLor6njdnZuKUimqGOWbIPVdjh1KKOyc2cayiynCFJXL91NhgK8XGCUwco6iusELmMA3WUtw40sQhiirDLeZeKlGitJdhhjnmXirxSYqNA00MVVQz3CK312CDjRQb/6WocixxhczeDg9SbBxgYoiiyvAjMnt/4bMUG0MUVYYbLOzt8CDFxkBTw7xHZu+zFLcOkWKDT4pqiRutGd7jVwO901dRrfCdVoPfpPjVsR7vd67vaiy0vnF9x+N9aYB3+iiqHLf2fpfiV6fyeL9zfVdjoTVzffenx/tGT0E/K3sbKW6dWopbbLQyrAwQdCmqDEutGmvjWaPRWiiqTE9Bt4W9tRQbY0mxwVorw0JPQbeFViPFrfFt7c31FHSbaZVeQ4oNSq2ZnoJuudbO6ym1ZnoK+iu9ntpAE12K6m//rx+kuNYhOH+5HoLzt9RDcP6+1UNw/pZ6CMazxRq148z1MDWOD1J88K+iyvEFS4eZ6yE4va0UHzxJscYvjlFUSx2C06u9VDtOrkNwektFlXtu5ThLHYLTy/HFk6K6wc+Ok+sQjKN2Wt/rEIyjtlc6Xq5DMI4/PElx63hLHYJxbD23NbKpccwV1coxUpwYYGocH72y4EIEFyK4EMF52hooOE8/GWjqvJT4IMW1gaZeU4oTIwkuRHAhggsRXIjgQgRv3oziHxt2josMfeTLAAAAAElFTkSuQmCC;strokeColor=#4277BB;strokeWidth=2;labelBackgroundColor=none;" parent="aGzLBYTYVUwFU0cL0Yie-1" vertex="1">
          <mxGeometry x="332.8383132530121" y="583.4167372296365" width="56.3276576161988" height="56.3276576161988" as="geometry" />
        </mxCell>
        <mxCell id="aGzLBYTYVUwFU0cL0Yie-10" style="edgeStyle=orthogonalEdgeStyle;rounded=0;orthogonalLoop=1;jettySize=auto;html=1;entryX=0.5;entryY=1;entryDx=0;entryDy=0;" parent="aGzLBYTYVUwFU0cL0Yie-1" edge="1">
          <mxGeometry relative="1" as="geometry">
            <Array as="points">
              <mxPoint x="250" y="697" />
              <mxPoint x="684" y="697" />
            </Array>
            <mxPoint x="250" y="670" as="sourcePoint" />
            <mxPoint x="684.4460440326338" y="639.7443948458354" as="targetPoint" />
          </mxGeometry>
        </mxCell>
        <mxCell id="aGzLBYTYVUwFU0cL0Yie-11" value="&lt;h5&gt;6&lt;/h5&gt;" style="ellipse;whiteSpace=wrap;html=1;aspect=fixed;fontStyle=1" parent="aGzLBYTYVUwFU0cL0Yie-1" vertex="1">
          <mxGeometry x="648.0031325301204" y="572.7384215370456" width="18.77588587206627" height="18.77588587206627" as="geometry" />
        </mxCell>
        <mxCell id="aGzLBYTYVUwFU0cL0Yie-12" value="&lt;h5&gt;3&lt;/h5&gt;" style="ellipse;whiteSpace=wrap;html=1;aspect=fixed;" parent="aGzLBYTYVUwFU0cL0Yie-1" vertex="1">
          <mxGeometry x="326.328313253012" y="544.9289875747813" width="18.77588587206627" height="18.77588587206627" as="geometry" />
        </mxCell>
        <mxCell id="aGzLBYTYVUwFU0cL0Yie-13" value="&lt;h5&gt;2&lt;/h5&gt;" style="ellipse;whiteSpace=wrap;html=1;aspect=fixed;" parent="aGzLBYTYVUwFU0cL0Yie-1" vertex="1">
          <mxGeometry x="214.32530120481928" y="544.9289875747813" width="18.77588587206627" height="18.77588587206627" as="geometry" />
        </mxCell>
        <UserObject link="https://cloud.ibm.com/catalog/services/cloud-object-storage" label="&lt;font color=&quot;#000000&quot;&gt;Cloud Object&lt;br&gt;Storage&lt;/font&gt;" id="aGzLBYTYVUwFU0cL0Yie-14">
          <mxCell style="aspect=fixed;perimeter=ellipsePerimeter;html=1;align=center;shadow=0;dashed=0;fontColor=#4277BB;fontSize=12;spacingTop=3;image;image=data:image/svg+xml,PHN2ZyB4bWxucz0iaHR0cDovL3d3dy53My5vcmcvMjAwMC9zdmciIHhtbG5zOnhsaW5rPSJodHRwOi8vd3d3LnczLm9yZy8xOTk5L3hsaW5rIiB3aWR0aD0iMzIiIGhlaWdodD0iMzIiIHZpZXdCb3g9IjAgMCAzMiAzMiI+PGRlZnM+PHN0eWxlPi5he2ZpbGw6I2ZmZjt9LmJ7ZmlsbDp1cmwoI2EpO30uY3ttYXNrOnVybCgjYik7fS5ke2ZpbGw6dXJsKCNjKTt9LmV7ZmlsbDojMDAxZDZjO308L3N0eWxlPjxsaW5lYXJHcmFkaWVudCBpZD0iYSIgeDE9Ii0zMzEuNSIgeTE9Ii0xMjcuNSIgeDI9Ii0zMjEuNSIgeTI9Ii0xMjcuNSIgZ3JhZGllbnRUcmFuc2Zvcm09InRyYW5zbGF0ZSgzMzUuNSAxNDguNSkiIGdyYWRpZW50VW5pdHM9InVzZXJTcGFjZU9uVXNlIj48c3RvcCBvZmZzZXQ9IjAuMTMiLz48c3RvcCBvZmZzZXQ9IjAuODkiIHN0b3Atb3BhY2l0eT0iMCIvPjwvbGluZWFyR3JhZGllbnQ+PG1hc2sgaWQ9ImIiIHg9IjAiIHk9IjAiIHdpZHRoPSIzMiIgaGVpZ2h0PSIzMiIgbWFza1VuaXRzPSJ1c2VyU3BhY2VPblVzZSI+PGNpcmNsZSBjbGFzcz0iYSIgY3g9IjciIGN5PSIyNSIgcj0iMSIvPjxwYXRoIGNsYXNzPSJhIiBkPSJNMjgsMjBIMjZ2MmgydjZINFYyMmg5Ljk0VjIwSDRhMiwyLDAsMCwwLTIsMnY2YTIsMiwwLDAsMCwyLDJIMjhhMiwyLDAsMCwwLDItMlYyMkEyLDIsMCwwLDAsMjgsMjBaIi8+PHJlY3QgY2xhc3M9ImIiIHg9IjQiIHk9IjE5IiB3aWR0aD0iMTAiIGhlaWdodD0iNCIgdHJhbnNmb3JtPSJ0cmFuc2xhdGUoMTggNDIpIHJvdGF0ZSgxODApIi8+PC9tYXNrPjxsaW5lYXJHcmFkaWVudCBpZD0iYyIgeTE9IjMyIiB4Mj0iMzIiIGdyYWRpZW50VW5pdHM9InVzZXJTcGFjZU9uVXNlIj48c3RvcCBvZmZzZXQ9IjAuMSIgc3RvcC1jb2xvcj0iI2E1NmVmZiIvPjxzdG9wIG9mZnNldD0iMC45IiBzdG9wLWNvbG9yPSIjMGY2MmZlIi8+PC9saW5lYXJHcmFkaWVudD48L2RlZnM+PGcgY2xhc3M9ImMiPjxyZWN0IGNsYXNzPSJkIiB3aWR0aD0iMzIiIGhlaWdodD0iMzIiLz48L2c+PHBhdGggY2xhc3M9ImUiIGQ9Ik0xOCwxMEgxMFYyaDhaTTEyLDhoNFY0SDEyWiIvPjxwYXRoIGNsYXNzPSJlIiBkPSJNMjIsMTRIMTZ2OGg4VjE2aDZWOEgyMlptMCw2SDE4VjE2aDRabTYtMTB2NEgyNFYxMFoiLz48L3N2Zz4=;strokeColor=#4277BB;strokeWidth=2;labelBackgroundColor=none;rounded=0;fillColor=#E0E0E0;" parent="aGzLBYTYVUwFU0cL0Yie-1" vertex="1">
            <mxGeometry x="656.2831325301204" y="398.85355729406353" width="56.3276576161988" height="56.3276576161988" as="geometry" />
          </mxCell>
        </UserObject>
        <mxCell id="aGzLBYTYVUwFU0cL0Yie-15" style="edgeStyle=orthogonalEdgeStyle;rounded=0;orthogonalLoop=1;jettySize=auto;html=1;" parent="aGzLBYTYVUwFU0cL0Yie-1" edge="1">
          <mxGeometry relative="1" as="geometry">
            <mxPoint x="685" y="500" as="sourcePoint" />
            <mxPoint x="684.4460440326338" y="583.4167372296365" as="targetPoint" />
            <Array as="points">
              <mxPoint x="684" y="500" />
            </Array>
          </mxGeometry>
        </mxCell>
        <UserObject label="&lt;font color=&quot;#000000&quot;&gt;Secrets&amp;nbsp;Manager&lt;/font&gt;" id="aGzLBYTYVUwFU0cL0Yie-16">
          <mxCell style="aspect=fixed;perimeter=ellipsePerimeter;html=1;align=center;shadow=0;dashed=0;fontColor=#4277BB;fontSize=12;spacingTop=3;image;image=data:image/svg+xml,PD94bWwgdmVyc2lvbj0iMS4wIiBlbmNvZGluZz0idXRmLTgiPz4KPCEtLSBHZW5lcmF0b3I6IEFkb2JlIElsbHVzdHJhdG9yIDI2LjMuMSwgU1ZHIEV4cG9ydCBQbHVnLUluIC4gU1ZHIFZlcnNpb246IDYuMDAgQnVpbGQgMCkgIC0tPgo8c3ZnIHZlcnNpb249IjEuMSIgaWQ9IkNsb3VkU2VjcmV0c01hbmFnZXIiIHhtbG5zPSJodHRwOi8vd3d3LnczLm9yZy8yMDAwL3N2ZyIgeG1sbnM6eGxpbms9Imh0dHA6Ly93d3cudzMub3JnLzE5OTkveGxpbmsiCgkgeD0iMHB4IiB5PSIwcHgiIHZpZXdCb3g9IjAgMCAzMiAzMiIgc3R5bGU9ImVuYWJsZS1iYWNrZ3JvdW5kOm5ldyAwIDAgMzIgMzI7IiB4bWw6c3BhY2U9InByZXNlcnZlIj4KPHN0eWxlIHR5cGU9InRleHQvY3NzIj4KCS5zdDB7ZmlsbDojRkZGRkZGO2ZpbHRlcjp1cmwoI0Fkb2JlX09wYWNpdHlNYXNrRmlsdGVyKTt9Cgkuc3Qxe2ZpbGw6dXJsKCNHcmFkaWVudHNfX2JsYWNrX18wMDAwMDAzNDc3MzExNTkxODQ5NTc2MzkxMDAwMDAxNTg5OTYwMjU3OTMzMTIwNTUxMV8pO30KCS5zdDJ7ZmlsbDojRkZGRkZGO30KCS5zdDN7bWFzazp1cmwoI21hc2tfMDAwMDAwMjU0MzM5NTYwODIzNTY0MjM4MzAwMDAwMDczNTI0OTE3MzQyOTYyNDgxOTJfKTt9Cgkuc3Q0e2ZpbGw6dXJsKCNTVkdJRF8xXyk7fQoJLnN0NXtmaWxsOiMwMDFENkM7fQo8L3N0eWxlPgo8ZGVmcz4KCTxmaWx0ZXIgaWQ9IkFkb2JlX09wYWNpdHlNYXNrRmlsdGVyIiBmaWx0ZXJVbml0cz0idXNlclNwYWNlT25Vc2UiIHg9IjAiIHk9IjAiIHdpZHRoPSIzMiIgaGVpZ2h0PSIzMiI+CgkJPGZlQ29sb3JNYXRyaXggIHR5cGU9Im1hdHJpeCIgdmFsdWVzPSIxIDAgMCAwIDAgIDAgMSAwIDAgMCAgMCAwIDEgMCAwICAwIDAgMCAxIDAiLz4KCTwvZmlsdGVyPgo8L2RlZnM+CjxtYXNrIG1hc2tVbml0cz0idXNlclNwYWNlT25Vc2UiIHg9IjAiIHk9IjAiIHdpZHRoPSIzMiIgaGVpZ2h0PSIzMiIgaWQ9Im1hc2tfMDAwMDAwMjU0MzM5NTYwODIzNTY0MjM4MzAwMDAwMDczNTI0OTE3MzQyOTYyNDgxOTJfIj4KCTxwYXRoIGNsYXNzPSJzdDAiIGQ9Ik0xNiwzMEM4LjMsMzAsMiwyMy43LDIsMTZTOC4zLDIsMTYsMnMxNCw2LjMsMTQsMTRTMjMuNywzMCwxNiwzMHogTTE2LDRDOS40LDQsNCw5LjQsNCwxNnM1LjQsMTIsMTIsMTIKCQlzMTItNS40LDEyLTEyUzIyLjYsNCwxNiw0eiIvPgoJCgkJPGxpbmVhckdyYWRpZW50IGlkPSJHcmFkaWVudHNfX2JsYWNrX18wMDAwMDEwOTAyMDI4NTEyNTg3NTg1NjEwMDAwMDAxNDIwNzg2ODc2NTY4Mzk4NjU5MF8iIGdyYWRpZW50VW5pdHM9InVzZXJTcGFjZU9uVXNlIiB4MT0iMTc4MC4zMzAxIiB5MT0iMzgwMS40NDM0IiB4Mj0iMTc5Mi42NzExIiB5Mj0iMzgwMS40NDM0IiBncmFkaWVudFRyYW5zZm9ybT0ibWF0cml4KC0wLjQ2MjIgMS4wNzcgMC42NDYgMC4yNzcyIC0xNjA2LjI1MzEgLTI5NTQuNDQ1OCkiPgoJCTxzdG9wICBvZmZzZXQ9IjAuMTc5IiBzdHlsZT0ic3RvcC1jb2xvcjojMDAwMDAwIi8+CgkJPHN0b3AgIG9mZnNldD0iMC45NjQiIHN0eWxlPSJzdG9wLWNvbG9yOiMwMDAwMDA7c3RvcC1vcGFjaXR5OjAiLz4KCTwvbGluZWFyR3JhZGllbnQ+CgkKCQk8cGF0aCBpZD0iR3JhZGllbnRzX19ibGFja19fMDAwMDAxNjMwNzE5ODIxNjk5MTIyNTk2ODAwMDAwMTAwNDkxODMzNjQzMTgwOTUyODlfIiBzdHlsZT0iZmlsbDp1cmwoI0dyYWRpZW50c19fYmxhY2tfXzAwMDAwMTA5MDIwMjg1MTI1ODc1ODU2MTAwMDAwMDE0MjA3ODY4NzY1NjgzOTg2NTkwXyk7IiBkPSIKCQlNMzEuOCwxNy41bC02LDE0bC05LTMuOWw2LTE0TDMxLjgsMTcuNXoiLz4KCTxwYXRoIGNsYXNzPSJzdDIiIGQ9Ik0yNiwxNWg2djJoLTZWMTV6Ii8+CjwvbWFzaz4KPGcgY2xhc3M9InN0MyI+CgkKCQk8bGluZWFyR3JhZGllbnQgaWQ9IlNWR0lEXzFfIiBncmFkaWVudFVuaXRzPSJ1c2VyU3BhY2VPblVzZSIgeDE9Ii05LjA5NDk0N2UtMTMiIHkxPSItNjIiIHgyPSIzMiIgeTI9Ii0zMCIgZ3JhZGllbnRUcmFuc2Zvcm09Im1hdHJpeCgxIDAgMCAtMSAwIC0zMCkiPgoJCTxzdG9wICBvZmZzZXQ9IjAuMSIgc3R5bGU9InN0b3AtY29sb3I6IzA4QkRCQSIvPgoJCTxzdG9wICBvZmZzZXQ9IjAuOSIgc3R5bGU9InN0b3AtY29sb3I6IzBGNjJGRSIvPgoJPC9saW5lYXJHcmFkaWVudD4KCTxwYXRoIGNsYXNzPSJzdDQiIGQ9Ik0wLDBoMzJ2MzJIMFYweiIvPgo8L2c+CjxwYXRoIGNsYXNzPSJzdDUiIGQ9Ik0yMCwxNmMwLTAuNy0wLjItMS40LTAuNi0ybDMuMy0zLjNsLTEuNC0xLjRMMTgsMTIuNmMtMC42LTAuNC0xLjMtMC42LTItMC42cy0xLjQsMC4yLTIsMC42bC0zLjMtMy4zbC0xLjQsMS40CglsMy4zLDMuM2MtMC40LDAuNi0wLjYsMS4zLTAuNiwyczAuMiwxLjQsMC42LDJsLTMuMywzLjNsMS40LDEuNGwzLjMtMy4zYzAuNiwwLjQsMS4zLDAuNiwyLDAuNmMwLjcsMCwxLjQtMC4yLDItMC42bDMuMywzLjMKCWwxLjQtMS40TDE5LjQsMThDMTkuOCwxNy40LDIwLDE2LjcsMjAsMTZ6IE0xNiwxOGMtMS4xLDAtMi0wLjktMi0yczAuOS0yLDItMnMyLDAuOSwyLDJTMTcuMSwxOCwxNiwxOHoiLz4KPC9zdmc+Cg==;strokeColor=#4277BB;strokeWidth=2;labelBackgroundColor=none;rounded=0" parent="aGzLBYTYVUwFU0cL0Yie-1" vertex="1">
            <mxGeometry x="220" y="585" width="60" height="60" as="geometry" />
          </mxCell>
        </UserObject>
        <UserObject link="https://cloud.ibm.com/catalog/services/containers-kubernetes" id="aGzLBYTYVUwFU0cL0Yie-17">
          <mxCell style="aspect=fixed;perimeter=ellipsePerimeter;html=1;align=center;shadow=0;dashed=0;fontColor=#4277BB;fontSize=12;spacingTop=3;image;image=data:image/svg+xml,PHN2ZyB4bWxucz0iaHR0cDovL3d3dy53My5vcmcvMjAwMC9zdmciIHhtbG5zOnhsaW5rPSJodHRwOi8vd3d3LnczLm9yZy8xOTk5L3hsaW5rIiB2aWV3Qm94PSIwIDAgMzIgMzIiPgogIDxkZWZzPgogICAgPHN0eWxlPi5jbHMtMXtmaWxsOiNmZmY7fS5jbHMtMntmaWxsOnVybCgjaWtzLWljb24tbGlnaHQtbGluZWFyLWdyYWRpZW50KTt9LmNscy0ze21hc2s6dXJsKCNpa3MtaWNvbi1saWdodC1tYXNrKTt9LmNscy00e2ZpbGw6dXJsKCNpa3MtaWNvbi1saWdodC1saW5lYXItZ3JhZGllbnQtMik7fS5jbHMtNXtmaWxsOiMwMDFkNmM7fTwvc3R5bGU+CiAgICA8bGluZWFyR3JhZGllbnQgaWQ9Imlrcy1pY29uLWxpZ2h0LWxpbmVhci1ncmFkaWVudCIgeDE9IjI4IiB5MT0iMjIiIHgyPSIyOCIgeTI9IjExIiBncmFkaWVudFVuaXRzPSJ1c2VyU3BhY2VPblVzZSI+CiAgICAgIDxzdG9wIG9mZnNldD0iMCIgc3RvcC1vcGFjaXR5PSIwIi8+CiAgICAgIDxzdG9wIG9mZnNldD0iMC45Ii8+CiAgICA8L2xpbmVhckdyYWRpZW50PgogICAgPG1hc2sgaWQ9Imlrcy1pY29uLWxpZ2h0LW1hc2siIHg9IjAiIHk9IjAiIHdpZHRoPSIzMiIgaGVpZ2h0PSIzMiIgbWFza1VuaXRzPSJ1c2VyU3BhY2VPblVzZSI+CiAgICAgIDxwYXRoIGNsYXNzPSJjbHMtMSIgZD0iTTE2LDMxYS45LjksMCwwLDEtLjUtLjE0bC0xMi03QTEsMSwwLDAsMSwzLDIzVjlhMSwxLDAsMCwxLC41LS44NmwxMi03YTEsMSwwLDAsMSwxLDBsMTIsNy0xLDEuNzJMMTYsMy4xNiw1LDkuNTdWMjIuNDNsMTEsNi40MSwxMS02LjQxVjEyaDJWMjNhMSwxLDAsMCwxLS41Ljg2bC0xMiw3QS45LjksMCwwLDEsMTYsMzFaIi8+CiAgICAgIDxyZWN0IGNsYXNzPSJjbHMtMiIgeD0iMjYiIHk9IjExIiB3aWR0aD0iNCIgaGVpZ2h0PSIxMSIvPgogICAgPC9tYXNrPgogICAgPGxpbmVhckdyYWRpZW50IGlkPSJpa3MtaWNvbi1saWdodC1saW5lYXItZ3JhZGllbnQtMiIgeDE9Ii01ODIzIiB5MT0iLTE5NzkiIHgyPSItNTc5MSIgeTI9Ii0yMDExIiBncmFkaWVudFRyYW5zZm9ybT0ibWF0cml4KDEsIDAsIDAsIC0xLCA1ODIzLCAtMTk3OSkiIGdyYWRpZW50VW5pdHM9InVzZXJTcGFjZU9uVXNlIj4KICAgICAgPHN0b3Agb2Zmc2V0PSIwLjEiIHN0b3AtY29sb3I9IiMzZGRiZDkiLz4KICAgICAgPHN0b3Agb2Zmc2V0PSIwLjkiIHN0b3AtY29sb3I9IiM0NTg5ZmYiLz4KICAgIDwvbGluZWFyR3JhZGllbnQ+CiAgPC9kZWZzPgogIDxnPgogICAgPGcgY2xhc3M9ImNscy0zIj4KICAgICAgPHJlY3QgY2xhc3M9ImNscy00IiB3aWR0aD0iMzIiIGhlaWdodD0iMzIiIHRyYW5zZm9ybT0idHJhbnNsYXRlKDAgMzIpIHJvdGF0ZSgtOTApIi8+CiAgICA8L2c+CiAgICA8Zz4KICAgICAgPHBhdGggY2xhc3M9ImNscy01IiBkPSJNMTYsMjNhMSwxLDAsMCwxLS41MS0uMTRsLTUtM0ExLDEsMCwwLDEsMTAsMTlWMTNhMSwxLDAsMCwxLC40OS0uODZsNS0zYTEsMSwwLDAsMSwxLDBsNSwzQTEsMSwwLDAsMSwyMiwxM3Y2YTEsMSwwLDAsMS0uNDkuODZsLTUsM0ExLDEsMCwwLDEsMTYsMjNabS00LTQuNTcsNCwyLjQsNC0yLjRWMTMuNTdsLTQtMi40LTQsMi40WiIvPgogICAgPC9nPgogIDwvZz4KPC9zdmc+Cg==;strokeColor=#4277BB;strokeWidth=2;labelBackgroundColor=none;rounded=0" parent="aGzLBYTYVUwFU0cL0Yie-1" vertex="1">
            <mxGeometry x="326.33" y="340" width="42" height="42" as="geometry" />
          </mxCell>
        </UserObject>
        <UserObject label="&lt;font color=&quot;#000000&quot;&gt;Cloudant&lt;/font&gt;" id="aGzLBYTYVUwFU0cL0Yie-18">
          <mxCell style="aspect=fixed;perimeter=ellipsePerimeter;html=1;align=center;shadow=0;dashed=0;fontColor=#4277BB;fontSize=12;spacingTop=3;image;image=data:image/svg+xml,PHN2ZyBpZD0iQ2xvdWRhbnQiIHhtbG5zPSJodHRwOi8vd3d3LnczLm9yZy8yMDAwL3N2ZyIgeG1sbnM6eGxpbms9Imh0dHA6Ly93d3cudzMub3JnLzE5OTkveGxpbmsiIHZpZXdCb3g9IjAgMCAzMiAzMiI+PGRlZnM+PGxpbmVhckdyYWRpZW50IGlkPSI4dHc2aTE5am9hIiB4MT0iMjAyIiB5MT0iMjQuNSIgeDI9IjIxMCIgeTI9IjI0LjUiIGdyYWRpZW50VHJhbnNmb3JtPSJtYXRyaXgoMSAwIDAgLTEgLTE4NiA0OSkiIGdyYWRpZW50VW5pdHM9InVzZXJTcGFjZU9uVXNlIj48c3RvcCBvZmZzZXQ9IjAiIHN0b3Atb3BhY2l0eT0iMCIvPjxzdG9wIG9mZnNldD0iLjgiLz48L2xpbmVhckdyYWRpZW50PjxsaW5lYXJHcmFkaWVudCBpZD0icGhla29ranJ2YiIgeDE9Ii0zNjgzIiB5MT0iLTcxMTEiIHgyPSItMzY3NSIgeTI9Ii03MTExIiBncmFkaWVudFRyYW5zZm9ybT0ibWF0cml4KDEgMCAwIC0xIDM2OTMgLTcxMDUpIiB4bGluazpocmVmPSIjOHR3NmkxOWpvYSIvPjxsaW5lYXJHcmFkaWVudCBpZD0iaTBocWR3anZnZCIgeDE9IjI3NDIuNTA0IiB5MT0iMzEuNTM4IiB4Mj0iMjcxMS4yODgiIHkyPSIuMzIyIiBncmFkaWVudFRyYW5zZm9ybT0ibWF0cml4KDEgMCAwIC0xIC0yNzEwLjk2NiAzMikiIGdyYWRpZW50VW5pdHM9InVzZXJTcGFjZU9uVXNlIj48c3RvcCBvZmZzZXQ9Ii4xIiBzdG9wLWNvbG9yPSIjMDhiZGJhIi8+PHN0b3Agb2Zmc2V0PSIuOSIgc3RvcC1jb2xvcj0iIzBmNjJmZSIvPjwvbGluZWFyR3JhZGllbnQ+PG1hc2sgaWQ9ImRweHJ6aXNya2MiIHg9IjAiIHk9IjAiIHdpZHRoPSIzMiIgaGVpZ2h0PSIzMiIgbWFza1VuaXRzPSJ1c2VyU3BhY2VPblVzZSI+PHBhdGggZD0iTTQgMTRoMnYtMmE1LjAwNiA1LjAwNiAwIDAgMSA1LTVoNlY1aC02YTcuMDA4IDcuMDA4IDAgMCAwLTcgN3pNMTcgMjZoNGE3LjAwOCA3LjAwOCAwIDAgMCA3LTd2LTJoLTJ2MmE1LjAwNiA1LjAwNiAwIDAgMS01IDVoLTR6IiBzdHlsZT0iZmlsbDojZmZmIi8+PHBhdGggdHJhbnNmb3JtPSJyb3RhdGUoLTE4MCAyMCAyNC41KSIgc3R5bGU9ImZpbGw6dXJsKCM4dHc2aTE5am9hKSIgZD0iTTE2IDIyaDh2NWgtOHoiLz48cGF0aCBzdHlsZT0iZmlsbDp1cmwoI3BoZWtva2pydmIpIiBkPSJNMTAgNGg4djRoLTh6Ii8+PC9tYXNrPjwvZGVmcz48ZyBzdHlsZT0ibWFzazp1cmwoI2RweHJ6aXNya2MpIj48cGF0aCB0cmFuc2Zvcm09InJvdGF0ZSgtMTgwIDE2IDE2KSIgc3R5bGU9ImZpbGw6dXJsKCNpMGhxZHdqdmdkKSIgZD0iTTAgMGgzMnYzMkgweiIvPjwvZz48cGF0aCBkPSJNMjMuOTY5IDJhNS41MjYgNS41MjYgMCAwIDAtNS4yMTcgMy43NjRBNC4yNDggNC4yNDggMCAwIDAgMjAuMjE5IDE0aDcuNjA3YTQuMjQ5IDQuMjQ5IDAgMCAwIDEuMzYtOC4yMzZBNS41MjUgNS41MjUgMCAwIDAgMjMuOTY5IDJ6bS0zLjc1IDEwYTIuMjQ5IDIuMjQ5IDAgMCAxLS40NDktNC40NTNsLjY0My0uMTMxLjEzNS0uNjQyYTMuNSAzLjUgMCAwIDEgNi44NDMgMGwuMTM1LjY0Mi42NDMuMTMxQTIuMjUgMi4yNSAwIDAgMSAyNy44IDEyek05Ljk2OSAxN2gtNmEyIDIgMCAwIDAtMiAydjEwYTIgMiAwIDAgMCAyIDJoNmEyIDIgMCAwIDAgMi0yVjE5YTIgMiAwIDAgMC0yLTJ6bS02IDR2LTJoNnYyem0wIDR2LTJoNnYyem0wIDR2LTJoNnYyeiIgc3R5bGU9ImZpbGw6IzAwMWQ2YyIvPjwvc3ZnPg==;strokeColor=#4277BB;strokeWidth=2;labelBackgroundColor=none;rounded=0" parent="aGzLBYTYVUwFU0cL0Yie-1" vertex="1">
            <mxGeometry x="754" y="399" width="60" height="60" as="geometry" />
          </mxCell>
        </UserObject>
        <UserObject link="https://cloud.ibm.com/catalog/services/kms" label="&lt;font color=&quot;#000000&quot;&gt;Key Protect&lt;/font&gt;" id="aGzLBYTYVUwFU0cL0Yie-19">
          <mxCell style="aspect=fixed;perimeter=ellipsePerimeter;html=1;align=left;shadow=0;dashed=0;fontColor=#4277BB;fontSize=12;spacingTop=3;image;image=data:image/svg+xml,PD94bWwgdmVyc2lvbj0iMS4wIiBlbmNvZGluZz0idXRmLTgiPz4KPCEtLSBHZW5lcmF0b3I6IEFkb2JlIElsbHVzdHJhdG9yIDI0LjIuMSwgU1ZHIEV4cG9ydCBQbHVnLUluIC4gU1ZHIFZlcnNpb246IDYuMDAgQnVpbGQgMCkgIC0tPgo8c3ZnIHZlcnNpb249IjEuMSIgaWQ9IkNsb3VkLUtleVByb3RlY3RfbGlnaHRfdGhlbWVfaWNvbiIKCSB4bWxucz0iaHR0cDovL3d3dy53My5vcmcvMjAwMC9zdmciIHhtbG5zOnhsaW5rPSJodHRwOi8vd3d3LnczLm9yZy8xOTk5L3hsaW5rIiB4PSIwcHgiIHk9IjBweCIgdmlld0JveD0iMCAwIDMyIDMyIgoJIHN0eWxlPSJlbmFibGUtYmFja2dyb3VuZDpuZXcgMCAwIDMyIDMyOyIgeG1sOnNwYWNlPSJwcmVzZXJ2ZSI+CjxzdHlsZSB0eXBlPSJ0ZXh0L2NzcyI+Cgkuc3Qwe2ZpbGw6I0ZGRkZGRjtmaWx0ZXI6dXJsKCNBZG9iZV9PcGFjaXR5TWFza0ZpbHRlcik7fQoJLnN0MXtmaWxsOnVybCgjU1ZHSURfMV8pO30KCS5zdDJ7bWFzazp1cmwoI2JfMV8pO30KCS5zdDN7ZmlsbDp1cmwoI1NWR0lEXzJfKTt9Cgkuc3Q0e2ZpbGw6IzAwMUQ2Qzt9Cjwvc3R5bGU+CjxkZWZzPgoJPGZpbHRlciBpZD0iQWRvYmVfT3BhY2l0eU1hc2tGaWx0ZXIiIGZpbHRlclVuaXRzPSJ1c2VyU3BhY2VPblVzZSIgeD0iMCIgeT0iMCIgd2lkdGg9IjMyIiBoZWlnaHQ9IjMyIj4KCQk8ZmVDb2xvck1hdHJpeCAgdHlwZT0ibWF0cml4IiB2YWx1ZXM9IjEgMCAwIDAgMCAgMCAxIDAgMCAwICAwIDAgMSAwIDAgIDAgMCAwIDEgMCIvPgoJPC9maWx0ZXI+CjwvZGVmcz4KPG1hc2sgbWFza1VuaXRzPSJ1c2VyU3BhY2VPblVzZSIgeD0iMCIgeT0iMCIgd2lkdGg9IjMyIiBoZWlnaHQ9IjMyIiBpZD0iYl8xXyI+Cgk8cGF0aCBjbGFzcz0ic3QwIiBkPSJNMjQsNHYxNC4zYzAsMy4yLTEuNyw2LjItNC41LDcuOEwxNSwyOC43bC00LjUtMi42QzcuNywyNC41LDYsMjEuNSw2LDE4LjNWNEgyNCBNMjQsMkg2QzQuOSwyLDQsMi45LDQsNHYxNC4zCgkJYzAsMy45LDIuMSw3LjYsNS41LDkuNUwxNSwzMWw1LjUtMy4yYzMuNC0yLDUuNS01LjYsNS41LTkuNVY0QzI2LDIuOSwyNS4xLDIsMjQsMnoiLz4KCQoJCTxsaW5lYXJHcmFkaWVudCBpZD0iU1ZHSURfMV8iIGdyYWRpZW50VW5pdHM9InVzZXJTcGFjZU9uVXNlIiB4MT0iMTEuNzUiIHkxPSI2LjI1IiB4Mj0iMzMuNzUiIHkyPSIyOC4yNSIgZ3JhZGllbnRUcmFuc2Zvcm09Im1hdHJpeCgxIDAgMCAtMSAwIDM0KSI+CgkJPHN0b3AgIG9mZnNldD0iMC4xMyIgc3R5bGU9InN0b3AtY29sb3I6IzAwMDAwMDtzdG9wLW9wYWNpdHk6MCIvPgoJCTxzdG9wICBvZmZzZXQ9IjAuMzgiIHN0eWxlPSJzdG9wLWNvbG9yOiMwMDAwMDAiLz4KCTwvbGluZWFyR3JhZGllbnQ+Cgk8cG9seWdvbiBjbGFzcz0ic3QxIiBwb2ludHM9IjE1LDMxIDI5LDMxIDI5LDEgMTgsMSAxOCw3IDE1LDcgCSIvPgo8L21hc2s+CjxnIGNsYXNzPSJzdDIiPgoJCgkJPGxpbmVhckdyYWRpZW50IGlkPSJTVkdJRF8yXyIgZ3JhZGllbnRVbml0cz0idXNlclNwYWNlT25Vc2UiIHgxPSItMS44MTg5ODllLTEyIiB5MT0iMiIgeDI9IjMyIiB5Mj0iMzQiIGdyYWRpZW50VHJhbnNmb3JtPSJtYXRyaXgoMSAwIDAgLTEgMCAzNCkiPgoJCTxzdG9wICBvZmZzZXQ9IjAuMSIgc3R5bGU9InN0b3AtY29sb3I6I0E1NkVGRiIvPgoJCTxzdG9wICBvZmZzZXQ9IjAuOSIgc3R5bGU9InN0b3AtY29sb3I6IzBGNjJGRSIvPgoJPC9saW5lYXJHcmFkaWVudD4KCTxyZWN0IGNsYXNzPSJzdDMiIHdpZHRoPSIzMiIgaGVpZ2h0PSIzMiIvPgo8L2c+CjxwYXRoIGNsYXNzPSJzdDQiIGQ9Ik0yNiwxNC4xVjJoLTV2MmgzdjJoLTN2MmgzdjYuMWMtMi4xLDAuNi0zLjQsMi43LTIuOSw0LjljMC42LDIuMSwyLjcsMy40LDQuOSwyLjljMi4xLTAuNiwzLjQtMi43LDIuOS00LjkKCUMyOC41LDE1LjYsMjcuNCwxNC41LDI2LDE0LjF6IE0yNSwyMGMtMS4xLDAtMi0wLjktMi0yczAuOS0yLDItMnMyLDAuOSwyLDJTMjYuMSwyMCwyNSwyMHoiLz4KPC9zdmc+Cg==;strokeColor=#4277BB;strokeWidth=2;labelBackgroundColor=none;rounded=0;labelPosition=right;verticalLabelPosition=middle;verticalAlign=middle;" parent="aGzLBYTYVUwFU0cL0Yie-1" vertex="1">
            <mxGeometry x="656.28" y="585" width="60" height="60" as="geometry" />
          </mxCell>
        </UserObject>
        <mxCell id="0LPbAUn-eOT9UEBuuD9y-5" style="edgeStyle=orthogonalEdgeStyle;rounded=0;orthogonalLoop=1;jettySize=auto;html=1;entryX=0;entryY=0.75;entryDx=0;entryDy=0;fontColor=#000000;startArrow=classic;startFill=1;endArrow=none;endFill=0;" parent="aGzLBYTYVUwFU0cL0Yie-1" source="0LPbAUn-eOT9UEBuuD9y-0" target="aGzLBYTYVUwFU0cL0Yie-16" edge="1">
          <mxGeometry relative="1" as="geometry">
            <Array as="points">
              <mxPoint x="191" y="688" />
              <mxPoint x="190" y="688" />
              <mxPoint x="190" y="628" />
            </Array>
          </mxGeometry>
        </mxCell>
        <mxCell id="0LPbAUn-eOT9UEBuuD9y-0" value="&lt;font color=&quot;#000000&quot;&gt;Internet Services&lt;/font&gt;" style="aspect=fixed;perimeter=ellipsePerimeter;html=1;align=center;shadow=0;dashed=0;fontColor=#4277BB;labelBackgroundColor=#ffffff;fontSize=12;spacingTop=3;image;image=img/lib/ibm/vpc/InternetServices2.svg;" parent="aGzLBYTYVUwFU0cL0Yie-1" vertex="1">
          <mxGeometry x="160.09999999999997" y="730" width="60" height="60" as="geometry" />
        </mxCell>
        <mxCell id="0LPbAUn-eOT9UEBuuD9y-6" style="edgeStyle=orthogonalEdgeStyle;rounded=0;orthogonalLoop=1;jettySize=auto;html=1;entryX=0;entryY=0.25;entryDx=0;entryDy=0;fontColor=#000000;startArrow=classic;startFill=1;endArrow=none;endFill=0;" parent="aGzLBYTYVUwFU0cL0Yie-1" source="0LPbAUn-eOT9UEBuuD9y-2" target="aGzLBYTYVUwFU0cL0Yie-16" edge="1">
          <mxGeometry relative="1" as="geometry" />
        </mxCell>
        <mxCell id="0LPbAUn-eOT9UEBuuD9y-2" value="" style="sketch=0;html=1;aspect=fixed;strokeColor=none;shadow=0;align=center;verticalAlign=top;fillColor=#3B8DF1;shape=mxgraph.gcp2.lock;fontColor=#000000;" parent="aGzLBYTYVUwFU0cL0Yie-1" vertex="1">
          <mxGeometry x="61.45" y="579" width="35.1" height="45" as="geometry" />
        </mxCell>
        <mxCell id="0LPbAUn-eOT9UEBuuD9y-4" value="Let&#39;s Encrypt" style="text;html=1;align=center;verticalAlign=middle;resizable=0;points=[];autosize=1;strokeColor=none;fillColor=none;fontColor=#000000;" parent="aGzLBYTYVUwFU0cL0Yie-1" vertex="1">
          <mxGeometry x="36.5" y="630" width="90" height="30" as="geometry" />
        </mxCell>
      </root>
    </mxGraphModel>
  </diagram>
</mxfile>
